<?xml version="1.0" encoding="utf-8"?>
<!-- Generator: Adobe Illustrator 16.0.0, SVG Export Plug-In . SVG Version: 6.00 Build 0)  -->
<!DOCTYPE svg PUBLIC "-//W3C//DTD SVG 1.1//EN" "http://www.w3.org/Graphics/SVG/1.1/DTD/svg11.dtd">
<svg version="1.1" id="Layer_1" xmlns="http://www.w3.org/2000/svg" xmlns:xlink="http://www.w3.org/1999/xlink" x="0px" y="0px"
	 width="150px" height="150px" viewBox="0 0 150 150" enable-background="new 0 0 150 150" xml:space="preserve">
<g>
	<path fill="#F0EACA" d="M14.687,84.152c1.994,1.127,9.22,2.933,9.5,4.47c0.278,1.537,7.124,28.499,29.336,32.97
		c22.212,4.47,21.862,0.978,33.353-0.56c11.491-1.536,28.96-8.102,30.563-9.918c1.603-1.816,10.124-9.919,11.103-13.97
		c0.978-4.052,4.19-13.552,1.396-18.859c0,0,6.286-8.905,7.264-11.229c0.979-2.323-1.709-13.789-15.313-12.247l-2.002,0.704
		c0,0-8.249-2.305-9.507-3.736c-1.257-1.432-10.924-1.213-12.517-2.021c-1.592-0.808-13.606-0.783-14.584,0.252
		c-0.979,1.036-1.458,3.286-1.458,3.286s-16.132,4.734-17.187,7.389c-1.053,2.655-9.715,9.22-12.368,8.242
		c0,0-14.948,6.564-17.183,6.426c-2.236-0.14-5.17-0.559-10.059,1.537c-4.89,2.096-0.839,3.492-7.685,3.912
		C10.495,81.219,13.664,83.575,14.687,84.152z"/>
	<radialGradient id="SVGID_1_" cx="93.1973" cy="121.0313" r="40.4949" gradientUnits="userSpaceOnUse">
		<stop  offset="0" style="stop-color:#D86D1F"/>
		<stop  offset="0.1224" style="stop-color:#E1761F"/>
		<stop  offset="0.3253" style="stop-color:#FB8F1E"/>
		<stop  offset="0.3548" style="stop-color:#FF931E"/>
		<stop  offset="0.7043" style="stop-color:#FBCE73"/>
		<stop  offset="1" style="stop-color:#F0EACA"/>
	</radialGradient>
	<path fill="url(#SVGID_1_)" d="M128.103,95.096c1.937,9.811-16.23,21.652-40.573,26.453c-24.345,4.803-45.646,0.744-47.581-9.062
		c-1.936-9.809,16.231-21.652,40.574-26.453C104.866,81.23,126.17,85.29,128.103,95.096z"/>
	<radialGradient id="SVGID_2_" cx="50.6709" cy="77.3301" r="26.5821" gradientUnits="userSpaceOnUse">
		<stop  offset="0" style="stop-color:#8C6239"/>
		<stop  offset="0.1294" style="stop-color:#926B42;stop-opacity:0.8706"/>
		<stop  offset="0.3446" style="stop-color:#A4835C;stop-opacity:0.6554"/>
		<stop  offset="0.6189" style="stop-color:#C1AA85;stop-opacity:0.3811"/>
		<stop  offset="0.9388" style="stop-color:#E8DFBE;stop-opacity:0.0612"/>
		<stop  offset="1" style="stop-color:#F0EACA;stop-opacity:0"/>
	</radialGradient>
	<path opacity="0.7" fill="url(#SVGID_2_)" d="M48.262,72.512c0,0,6.391,7.439,2.409,20.222s-3.813,10.582-5.993,10.163
		c-2.179-0.419-4.17-1.152-4.17-3.144c0-1.99,2.737-5.028,3.412-5.657s3.713-4.61,4.132-5.029S50.356,82.78,48.262,72.512z"/>
	<radialGradient id="SVGID_3_" cx="69.7393" cy="71.4072" r="30.0351" gradientUnits="userSpaceOnUse">
		<stop  offset="0" style="stop-color:#8C6239"/>
		<stop  offset="0.1294" style="stop-color:#926B42;stop-opacity:0.8706"/>
		<stop  offset="0.3446" style="stop-color:#A4835C;stop-opacity:0.6554"/>
		<stop  offset="0.6189" style="stop-color:#C1AA85;stop-opacity:0.3811"/>
		<stop  offset="0.9388" style="stop-color:#E8DFBE;stop-opacity:0.0612"/>
		<stop  offset="1" style="stop-color:#F0EACA;stop-opacity:0"/>
	</radialGradient>
	<path opacity="0.7" fill="url(#SVGID_3_)" d="M64.897,66.723c0,0,3.701,7.724,3.538,10.133c-0.162,2.41-1.534,9.207-3.101,10.052
		c-1.567,0.845-7.435,6.607-5.129,10.589c2.305,3.981,4.596,5.867,5.703,4.086c1.106-1.781,1.432-10.268,2.526-11.839
		c1.095-1.572,2.353-8.173,2.457-9.011S68.437,71.049,64.897,66.723z"/>
	<radialGradient id="SVGID_4_" cx="81.2744" cy="59.9863" r="32.7135" gradientUnits="userSpaceOnUse">
		<stop  offset="0" style="stop-color:#8C6239"/>
		<stop  offset="0.1294" style="stop-color:#926B42;stop-opacity:0.8706"/>
		<stop  offset="0.3446" style="stop-color:#A4835C;stop-opacity:0.6554"/>
		<stop  offset="0.6189" style="stop-color:#C1AA85;stop-opacity:0.3811"/>
		<stop  offset="0.9388" style="stop-color:#E8DFBE;stop-opacity:0.0612"/>
		<stop  offset="1" style="stop-color:#F0EACA;stop-opacity:0"/>
	</radialGradient>
	<path opacity="0.7" fill="url(#SVGID_4_)" d="M82,57.544c0,0,1.732,10.825,0.037,16.692s-5.31,10.373-4.279,11.001
		c1.031,0.629,6.841-7.02,8.603-5.448c1.763,1.572,4.701,7.021,8.683,6.182c3.981-0.838,1.592-4.296,1.792-5.343
		c0.201-1.048-6.128-4.506-9.354-10.688c-3.226-6.182-3.995-10.582-3.785-11.63S82,55.481,82,55.481V57.544z"/>
	<radialGradient id="SVGID_5_" cx="98.0859" cy="58.2539" r="31.9077" gradientUnits="userSpaceOnUse">
		<stop  offset="0" style="stop-color:#8C6239"/>
		<stop  offset="0.1294" style="stop-color:#926B42;stop-opacity:0.8706"/>
		<stop  offset="0.3446" style="stop-color:#A4835C;stop-opacity:0.6554"/>
		<stop  offset="0.6189" style="stop-color:#C1AA85;stop-opacity:0.3811"/>
		<stop  offset="0.9388" style="stop-color:#E8DFBE;stop-opacity:0.0612"/>
		<stop  offset="1" style="stop-color:#F0EACA;stop-opacity:0"/>
	</radialGradient>
	<path opacity="0.7" fill="url(#SVGID_5_)" d="M97.877,56.544c0,0,3.143,14.911,6.601,17.111c3.457,2.2,6.496,2.725,7.124,5.658
		c0.629,2.934-1.152,5.517-2.409,5.744c-1.258,0.228-4.087-1.06-3.981-1.568c0.104-0.509-3.144-6.481-4.087-6.796
		c-0.942-0.313-1.467-1.467-1.467-1.467S96.724,64.683,97.877,56.544z"/>
	<radialGradient id="SVGID_6_" cx="109.0859" cy="54.6914" r="17.4876" gradientUnits="userSpaceOnUse">
		<stop  offset="0" style="stop-color:#8C6239"/>
		<stop  offset="0.1294" style="stop-color:#926B42;stop-opacity:0.8706"/>
		<stop  offset="0.3446" style="stop-color:#A4835C;stop-opacity:0.6554"/>
		<stop  offset="0.6189" style="stop-color:#C1AA85;stop-opacity:0.3811"/>
		<stop  offset="0.9388" style="stop-color:#E8DFBE;stop-opacity:0.0612"/>
		<stop  offset="1" style="stop-color:#F0EACA;stop-opacity:0"/>
	</radialGradient>
	<path opacity="0.7" fill="url(#SVGID_6_)" d="M111.183,53.763c0,0-2.934,11.302,2.41,15.492c5.343,4.191,3.403,5.029,3.403,5.029
		s-2.984-4.313-4.556-4.515c-1.572-0.2-5.868-2.596-5.239-5.746S108.354,53.254,111.183,53.763z"/>
	<path fill="none" d="M13,83.108c0,0,10.552,1.62,12.927,4.381s8.185,26.999,26.952,31.636s53.474-7.375,54.21-8
		s13.512-10.375,14.012-11.5s7.637-12.93,8.824-21.34c0.427-3.022,1.45-3.866,2.576-3.716c1.859-2.732,4.141-6.189,4.697-7.513
		c0.979-2.323-1.708-13.789-15.313-12.247l-2.001,0.704c0,0-8.248-2.305-9.506-3.736c-1.257-1.432-10.924-1.213-12.517-2.021
		c-1.592-0.808-13.606-0.783-14.584,0.252c-0.979,1.036-1.458,3.286-1.458,3.286s-16.132,4.734-17.187,7.389
		c-1.053,2.655-9.715,9.22-12.368,8.242c0,0-14.948,6.564-17.183,6.426c-2.236-0.14-5.17-0.559-10.059,1.537
		c-4.89,2.096-1.038,3.492-7.884,3.912C12.584,81.079,13,82.216,13,83.116C13,83.115,13,83.108,13,83.108z"/>
	<radialGradient id="SVGID_7_" cx="37.0879" cy="77.4375" r="95.9348" gradientUnits="userSpaceOnUse">
		<stop  offset="0" style="stop-color:#8C6239"/>
		<stop  offset="0.1294" style="stop-color:#926B42;stop-opacity:0.8706"/>
		<stop  offset="0.3446" style="stop-color:#A4835C;stop-opacity:0.6554"/>
		<stop  offset="0.6189" style="stop-color:#C1AA85;stop-opacity:0.3811"/>
		<stop  offset="0.9388" style="stop-color:#E8DFBE;stop-opacity:0.0612"/>
		<stop  offset="1" style="stop-color:#F0EACA;stop-opacity:0"/>
	</radialGradient>
	<path fill="url(#SVGID_7_)" d="M129.938,78.285c0,0,1.166-1.651,2.569-3.716C131.381,74.419,130.364,75.263,129.938,78.285z"/>
	<linearGradient id="SVGID_8_" gradientUnits="userSpaceOnUse" x1="80.6299" y1="139.8311" x2="66.7549" y2="47.8311">
		<stop  offset="0" style="stop-color:#8C6239"/>
		<stop  offset="0.1294" style="stop-color:#926B42;stop-opacity:0.8706"/>
		<stop  offset="0.3446" style="stop-color:#A4835C;stop-opacity:0.6554"/>
		<stop  offset="0.6189" style="stop-color:#C1AA85;stop-opacity:0.3811"/>
		<stop  offset="0.9388" style="stop-color:#E8DFBE;stop-opacity:0.0612"/>
		<stop  offset="1" style="stop-color:#F0EACA;stop-opacity:0"/>
	</linearGradient>
	<path fill="url(#SVGID_8_)" d="M107.139,111.125c-0.736,0.625-29.392,17.615-46.139,7.959
		c-14.372-8.287-21.193-21.75-27.833-29.333C30.768,87.011,13,83.108,13,83.108s0,0.007,0,0.008c1,0.451,1.146,0.843,1.488,1.036
		c1.994,1.127,9.318,2.933,9.599,4.47c0.278,1.537,7.174,28.499,29.386,32.97c22.212,4.47,21.888,0.978,33.378-0.56
		c11.491-1.536,28.972-8.102,30.575-9.918c1.603-1.816,10.131-9.919,11.109-13.97c0.978-4.052,4.193-13.552,1.399-18.859
		c-1.188,8.41-8.312,20.215-8.812,21.34S107.875,110.5,107.139,111.125z"/>
	<g>
		<g>
			<path fill="#FFFFFF" d="M20.625,83.75c2.085,0,4.168,0.005,6.25,0.125c1.934,0.111,1.923-2.89,0-3
				c-2.082-0.12-4.165-0.125-6.25-0.125C18.69,80.75,18.69,83.75,20.625,83.75L20.625,83.75z"/>
		</g>
	</g>
	<g>
		<g>
			<path fill="#FFFFFF" d="M34.189,79.311c1.147,1.377,2.322,2.767,2.614,4.588c0.129,0.809,1.123,1.246,1.845,1.048
				c0.853-0.234,1.177-1.038,1.048-1.845c-0.372-2.322-1.927-4.162-3.386-5.912C35.07,75.702,32.96,77.836,34.189,79.311
				L34.189,79.311z"/>
		</g>
	</g>
	<g>
		<g>
			<path fill="#FFFFFF" d="M56.25,70.5c0.025,0.208,0.042,0.416,0.098,0.619c0.104,0.385,0.183-0.593-0.044-0.018
				c-0.524,1.33,1.154,2.226,2.203,1.693c1.098-0.557,2.152-1.193,3.25-1.75c0.729-0.369,0.933-1.379,0.538-2.052
				c-0.431-0.736-1.322-0.908-2.052-0.538c-1.098,0.557-2.152,1.193-3.25,1.75c0.734,0.564,1.469,1.129,2.203,1.693
				c0.116-0.295,0.168-0.604,0.158-0.923c0.003,0.073-0.171-1.024-0.104-0.476c-0.099-0.812-0.607-1.5-1.5-1.5
				C57.007,69,56.151,69.687,56.25,70.5L56.25,70.5z"/>
		</g>
	</g>
	<g>
		<g>
			<path fill="#FFFFFF" d="M71.75,61.25c1.569,0.029,3.062,0.485,4.635,0.251c2.064-0.309,2.721-2.484,2.865-4.251
				c0.086-1.058-1.017-1.593-1.898-1.446c-1.892,0.313-3.647,1.059-5.358,1.901c-1.735,0.854-0.215,3.441,1.514,2.59
				c1.489-0.733,2.998-1.325,4.642-1.599c-0.633-0.482-1.266-0.964-1.898-1.446c-0.079,0.968-0.164,1.369-1.094,1.354
				c-1.143-0.02-2.261-0.332-3.406-0.354C69.814,58.215,69.817,61.215,71.75,61.25L71.75,61.25z"/>
		</g>
	</g>
	<g>
		<g>
			<path fill="#FFFFFF" d="M88.75,53.25c1.583,0,3.167,0,4.75,0c1.935,0,1.935-3,0-3c-1.583,0-3.167,0-4.75,0
				C86.815,50.25,86.815,53.25,88.75,53.25L88.75,53.25z"/>
		</g>
	</g>
	<g>
		<g>
			<path fill="#FFFFFF" d="M119.205,60.007c1.724,3.122,1.01,6.878,2.349,10.142c0.724,1.765,3.627,0.993,2.893-0.797
				c-1.447-3.529-0.763-7.439-2.651-10.858C120.86,56.8,118.269,58.313,119.205,60.007L119.205,60.007z"/>
		</g>
	</g>
</g>
</svg>
