<?xml version="1.0" encoding="utf-8"?>
<!-- Generator: Adobe Illustrator 16.0.0, SVG Export Plug-In . SVG Version: 6.00 Build 0)  -->
<!DOCTYPE svg PUBLIC "-//W3C//DTD SVG 1.1//EN" "http://www.w3.org/Graphics/SVG/1.1/DTD/svg11.dtd">
<svg version="1.1" id="Layer_1" xmlns="http://www.w3.org/2000/svg" xmlns:xlink="http://www.w3.org/1999/xlink" x="0px" y="0px"
	 width="150px" height="150px" viewBox="0 0 150 150" enable-background="new 0 0 150 150" xml:space="preserve">
<g>
	<g>
		<path fill="#56AA1E" d="M31.271,17.768c0,0,14.117,15.227,18.303,17.615c11.384,7.358,17.555,18.987,24.399,24.695
			c6.845,5.706,5.643,2.813,13.954,7.963c8.313,5.148,16.864,2.908,35.473,25.716c0,0-14.316,16.739-43.83,1.315
			c0,0-9.587-6.688-18.829-17.891c0,0-20.386-8.237-28.573-18.891c-7.431-9.669-9.065-30.953-2.994-38.63
			C29.792,18.881,30.49,18.24,31.271,17.768z"/>
		
			<radialGradient id="SVGID_1_" cx="44.4331" cy="52.8428" r="49.231" gradientTransform="matrix(0.9873 0.1591 -0.1591 0.9873 10.6968 -15.6454)" gradientUnits="userSpaceOnUse">
			<stop  offset="0" style="stop-color:#93C65F"/>
			<stop  offset="0.9624" style="stop-color:#58AC1A;stop-opacity:0"/>
			<stop  offset="0.9946" style="stop-color:#56AB18"/>
		</radialGradient>
		<path fill="url(#SVGID_1_)" d="M63.588,64.361c-4.014,5.218-14.35,3.993-23.088-2.729c-8.736-6.725-12.566-16.403-8.553-21.618
			c4.014-5.215,14.35-3.991,23.088,2.731C63.772,49.47,67.601,59.147,63.588,64.361z"/>
		
			<radialGradient id="SVGID_2_" cx="88.998" cy="78.9795" r="47.5117" gradientTransform="matrix(0.9873 0.1591 -0.1591 0.9873 10.6968 -15.6454)" gradientUnits="userSpaceOnUse">
			<stop  offset="0" style="stop-color:#93C65F"/>
			<stop  offset="0.9624" style="stop-color:#58AC1A;stop-opacity:0"/>
			<stop  offset="0.9946" style="stop-color:#56AB18"/>
		</radialGradient>
		<path fill="url(#SVGID_2_)" d="M106.486,90.859c-2.376,5.385-11.614,6.522-20.633,2.541c-9.02-3.979-14.405-11.572-12.029-16.954
			c2.376-5.382,11.613-6.52,20.633-2.54C103.476,77.888,108.862,85.478,106.486,90.859z"/>
		<path opacity="0.4" fill="#001C00" d="M123.399,93.757l-16.665,1.376c-29.451,3.888-46.235-24.338-46.235-24.338
			c-36.68-19.838-33.076-47.952-33.053-48.123c-3.911,9.229-1.89,27.019,4.721,35.619C40.354,68.944,60.74,77.182,60.74,77.182
			c9.242,11.203,18.829,17.891,18.829,17.891C109.083,110.496,123.399,93.757,123.399,93.757z"/>
		<path fill="#34671C" d="M28.605,15.4c-2.523-1.604,3.301-3.736,4.048-2.854c0.745,0.882,0.849,4.379,0.769,4.872
			c-0.08,0.495-0.379,2.349-0.379,2.349l-3.005,1.55l-1.27-1.096C28.768,20.221,30.274,16.462,28.605,15.4z"/>
	</g>
	<g>
		<path fill="#56AA1E" d="M15.297,46.592c0,0,20.353,15.907,25.967,18.014c15.439,6.783,25.32,19.844,34.856,25.498
			c9.536,5.654,7.486,2.34,18.714,7.019c11.229,4.678,21.288,0.233,48.659,24.563c0,0-14.27,23.394-53.571,10.294
			c0,0-13.1-6.316-26.668-18.247c0,0-26.668-6.083-38.833-17.545C13.379,85.781,7.158,59.963,13.096,49.334
			C13.701,48.251,14.432,47.327,15.297,46.592z"/>
		<radialGradient id="SVGID_3_" cx="38.6904" cy="75.3662" r="61.2475" gradientUnits="userSpaceOnUse">
			<stop  offset="0" style="stop-color:#93C65F"/>
			<stop  offset="0.9624" style="stop-color:#58AC1A;stop-opacity:0"/>
			<stop  offset="0.9946" style="stop-color:#56AB18"/>
		</radialGradient>
		<path fill="url(#SVGID_3_)" d="M64.214,97.424c-3.897,7.2-16.835,7.744-28.898,1.215C23.253,92.11,16.634,80.98,20.53,73.781
			c3.897-7.2,16.835-7.743,28.898-1.215C61.491,79.094,68.11,90.225,64.214,97.424z"/>
		<radialGradient id="SVGID_4_" cx="94.1323" cy="107.8818" r="59.1089" gradientUnits="userSpaceOnUse">
			<stop  offset="0" style="stop-color:#93C65F"/>
			<stop  offset="0.9624" style="stop-color:#58AC1A;stop-opacity:0"/>
			<stop  offset="0.9946" style="stop-color:#56AB18"/>
		</radialGradient>
		<path fill="url(#SVGID_4_)" d="M122.148,121.475c-1.853,7.085-12.974,10.311-24.839,7.207
			c-11.866-3.104-19.983-11.363-18.131-18.443c1.854-7.082,12.973-10.308,24.839-7.203C115.882,106.138,124,114.395,122.148,121.475
			z"/>
		<path opacity="0.4" fill="#001C00" d="M143.493,121.685l-20.196,4.992c-35.402,10.604-61.604-20.742-61.604-20.742
			C12.715,88.83,11.576,53.586,11.57,53.372c-2.975,12.107,3.028,33.559,12.85,42.814c12.165,11.462,38.833,17.545,38.833,17.545
			c13.568,11.931,26.668,18.247,26.668,18.247C129.223,145.078,143.493,121.685,143.493,121.685z"/>
		<path fill="#34671C" d="M11.554,44.212c-3.416-1.47,3.315-5.243,4.406-4.308c1.091,0.936,1.91,5.209,1.91,5.832
			c0,0.624,0,2.961,0,2.961l-3.386,2.496l-1.776-1.095C12.708,50.099,13.815,45.185,11.554,44.212z"/>
	</g>
	<g>
		<g>
			<path fill="#FCF6E6" d="M82.5,98.001c1.935,0,1.935-3,0-3S80.565,98.001,82.5,98.001L82.5,98.001z"/>
		</g>
	</g>
	<g>
		<g>
			<path fill="#FCF6E6" d="M85.939,99.062c0.698,0.727,1.418,1.147,2.459,0.886c0.464-0.116,0.965-0.556,1.047-1.048
				c0.09-0.54,0.149-1.047-0.022-1.58c-0.136-0.424-0.382-0.72-0.629-1.075c-0.466-0.67-1.305-0.977-2.052-0.538
				c-0.664,0.389-1.006,1.38-0.539,2.052c0.107,0.154,0.225,0.302,0.334,0.454c0.074,0.103,0.135,0.349,0.024,0.004
				c-0.128-0.398-0.043,0.088-0.01-0.113c0.349-0.35,0.698-0.699,1.047-1.048c0.142,0.009,0.283,0.019,0.424,0.028
				c0.399,0.273,0.5,0.321,0.304,0.144c-0.093-0.091-0.178-0.192-0.269-0.286c-0.566-0.59-1.552-0.569-2.121,0
				C85.353,97.526,85.373,98.473,85.939,99.062L85.939,99.062z"/>
		</g>
	</g>
	<g>
		<g>
			<path fill="#FCF6E6" d="M93.333,101.501c1.935,0,1.935-3,0-3S91.399,101.501,93.333,101.501L93.333,101.501z"/>
		</g>
	</g>
	<g>
		<g>
			<path fill="#FCF6E6" d="M106.667,105.001c1.935,0,1.935-3,0-3S104.732,105.001,106.667,105.001L106.667,105.001z"/>
		</g>
	</g>
	<g>
		<g>
			<path fill="#FCF6E6" d="M68.887,62.899c0.235,1.345,1.407,2.388,2.799,2.144c1.485-0.261,1.989-2.09,1.786-3.363
				c-0.205-1.284-1.438-2.067-2.68-1.826c-1.306,0.253-1.926,1.61-1.958,2.813c-0.022,0.817,0.699,1.5,1.5,1.5
				c0.834,0,1.478-0.683,1.5-1.5c0.011-0.184,0.003-0.175-0.023,0.025c0.015-0.107,0.049-0.211,0.084-0.313
				c-0.141,0.413,0.145-0.09-0.153,0.27c0.188-0.228-0.298,0.184-0.061,0.038c-0.076,0.03-0.151,0.062-0.227,0.092
				c0.153-0.04,0.087-0.036-0.197,0.015c0.181-0.018-0.374-0.114-0.434-0.14c0.24,0.103-0.272-0.261-0.083-0.064
				c-0.034-0.034-0.281-0.556-0.199-0.302c0.1,0.311-0.013-0.36-0.004,0.007c0.008,0.376,0.091-0.323-0.021,0.122
				c-0.104,0.41,0.129-0.198-0.049,0.099c0.117-0.194,0.281-0.308,0.495-0.378c0.245-0.08,0.495-0.032,0.719,0.08
				c0.056,0.046,0.111,0.092,0.167,0.138c-0.108-0.109-0.091-0.076,0.05,0.099c-0.058-0.075-0.173-0.364-0.037-0.012
				c-0.042-0.109-0.062-0.225-0.082-0.339c-0.141-0.807-1.114-1.249-1.845-1.048C69.091,61.287,68.746,62.095,68.887,62.899
				L68.887,62.899z"/>
		</g>
	</g>
	<g>
		<g>
			<path fill="#FCF6E6" d="M82,67.834c1.935,0,1.935-3,0-3S80.065,67.834,82,67.834L82,67.834z"/>
		</g>
	</g>
	<g>
		<g>
			<path fill="#FCF6E6" d="M60.5,64.834c1.935,0,1.935-3,0-3S58.565,64.834,60.5,64.834L60.5,64.834z"/>
		</g>
	</g>
	<g>
		<g>
			<path fill="#FCF6E6" d="M98.435,100.947c0.198,0.06,0.398,0.106,0.6,0.151c0.101,0.022,0.201,0.048,0.3,0.076
				c0.355,0.096-0.101-0.085,0.241,0.121c1.19,0.72,2.46-0.454,2.204-1.693c-0.36-1.742-2.162-2.473-3.78-2.269
				c-0.811,0.103-1.5,0.605-1.5,1.5c0,0.74,0.687,1.603,1.5,1.5c0.189-0.023,0.375-0.038,0.566-0.041
				c0.089,0,0.178,0.004,0.267,0.013c-0.35-0.024,0.019,0.019,0.091,0.039c0.162,0.057,0.149,0.05-0.038-0.02
				c0.318,0.156-0.205-0.213,0.044,0.027c-0.117-0.167-0.131-0.18-0.042-0.04c-0.172-0.285-0.026-0.033-0.001,0.087
				c0.734-0.564,1.469-1.129,2.204-1.693c-0.589-0.356-1.215-0.457-1.858-0.651c-0.783-0.236-1.633,0.274-1.845,1.048
				C97.166,99.905,97.653,100.711,98.435,100.947L98.435,100.947z"/>
		</g>
	</g>
	<g>
		<g>
			<path fill="#FCF6E6" d="M118.833,116.167c1.935,0,1.935-3,0-3S116.899,116.167,118.833,116.167L118.833,116.167z"/>
		</g>
	</g>
	<g>
		<g>
			<path fill="#FCF6E6" d="M25.333,60.667c1.935,0,1.935-3,0-3S23.399,60.667,25.333,60.667L25.333,60.667z"/>
		</g>
	</g>
	<g>
		<g>
			<path fill="#FCF6E6" d="M21.167,66.334c1.935,0,1.935-3,0-3S19.232,66.334,21.167,66.334L21.167,66.334z"/>
		</g>
	</g>
	<g>
		<g>
			<path fill="#FCF6E6" d="M30,30.667c1.935,0,1.935-3,0-3S28.065,30.667,30,30.667L30,30.667z"/>
		</g>
	</g>
	<g>
		<g>
			<path fill="#FCF6E6" d="M44.667,31.334c1.935,0,1.935-3,0-3S42.732,31.334,44.667,31.334L44.667,31.334z"/>
		</g>
	</g>
</g>
</svg>
