<?xml version="1.0" encoding="utf-8"?>
<!-- Generator: Adobe Illustrator 16.0.0, SVG Export Plug-In . SVG Version: 6.00 Build 0)  -->
<!DOCTYPE svg PUBLIC "-//W3C//DTD SVG 1.1//EN" "http://www.w3.org/Graphics/SVG/1.1/DTD/svg11.dtd">
<svg version="1.1" id="Layer_1" xmlns="http://www.w3.org/2000/svg" xmlns:xlink="http://www.w3.org/1999/xlink" x="0px" y="0px"
	 width="150px" height="150px" viewBox="0 0 150 150" enable-background="new 0 0 150 150" xml:space="preserve">
<g>
	
		<linearGradient id="SVGID_1_" gradientUnits="userSpaceOnUse" x1="17.5605" y1="141.5967" x2="44.5608" y2="101.7213" gradientTransform="matrix(0.9954 0.0956 -0.0956 0.9954 11.2855 -2.6685)">
		<stop  offset="0" style="stop-color:#F5F0DC"/>
		<stop  offset="0.0985" style="stop-color:#F5EDD3"/>
		<stop  offset="0.2623" style="stop-color:#F6E3B9"/>
		<stop  offset="0.4713" style="stop-color:#F8D590"/>
		<stop  offset="0.7173" style="stop-color:#F9C056"/>
		<stop  offset="0.9917" style="stop-color:#FCA60D"/>
		<stop  offset="1" style="stop-color:#FCA50B"/>
	</linearGradient>
	<path fill="url(#SVGID_1_)" d="M39.605,93.432c0,0-24.41,8.754-24.988,19.121c-0.577,10.367,0.529,19.766,3.561,22.192
		c3.032,2.426,17.686,6.094,19.966,5.56c2.28-0.535,12.451-10.985,13.479-15.156c1.028-4.17,2.056-21.401,2.056-21.401
		L39.605,93.432z"/>
	<g>
		<path fill="#FCA50B" d="M40.464,97.212c0,0-1.852,1.436-4.523,3.712c-2.655,2.293-6.199,5.346-9.486,8.641
			c-0.816,0.828-1.631,1.657-2.392,2.508c-0.764,0.849-1.52,1.673-2.228,2.489c-0.721,0.801-1.419,1.574-2.08,2.308
			c-0.649,0.742-1.247,1.453-1.793,2.116c-0.264,0.338-0.518,0.661-0.758,0.969c-0.229,0.315-0.448,0.615-0.652,0.896
			c-0.389,0.574-0.74,1.079-0.988,1.516c-0.274,0.429-0.43,0.791-0.557,1.034c-0.127,0.246-0.195,0.377-0.195,0.377l-0.194-0.049
			c0,0,0.019-0.148,0.053-0.428c0.028-0.283,0.1-0.693,0.243-1.202c0.245-1.035,0.818-2.458,1.73-4.019
			c0.237-0.384,0.485-0.783,0.741-1.197c0.279-0.396,0.568-0.806,0.865-1.227c0.605-0.832,1.294-1.668,2.044-2.494
			c0.771-0.808,1.574-1.631,2.442-2.411c0.858-0.79,1.736-1.581,2.628-2.354c3.55-3.112,7.27-5.991,10.148-8.024
			c2.867-2.048,4.837-3.322,4.837-3.322L40.464,97.212z"/>
	</g>
	<g>
		<path fill="#FCA50B" d="M43.377,100.387c0,0.001-1.841,1.919-4.503,4.886c-1.316,1.494-2.853,3.236-4.499,5.104
			c-1.625,1.883-3.334,3.911-4.988,5.978c-0.808,1.048-1.653,2.066-2.407,3.127c-0.762,1.055-1.554,2.057-2.258,3.069
			c-0.749,0.981-1.469,1.93-2.138,2.836c-0.689,0.896-1.318,1.755-1.873,2.563c-0.289,0.4-0.564,0.783-0.827,1.147
			c-0.241,0.376-0.469,0.732-0.684,1.067c-0.422,0.675-0.856,1.244-1.104,1.755c-0.54,1.011-0.893,1.596-0.892,1.596l-0.191-0.059
			c0,0,0.13-0.653,0.435-1.811c0.114-0.6,0.414-1.247,0.715-2.021c0.153-0.385,0.324-0.794,0.514-1.218
			c0.212-0.41,0.436-0.842,0.669-1.292c0.24-0.447,0.489-0.915,0.748-1.397c0.29-0.462,0.589-0.938,0.896-1.429
			c0.598-0.996,1.307-1.987,2.066-2.991c1.526-2.005,3.333-3.985,5.11-5.98c3.57-3.976,7.304-7.781,10.204-10.531
			c2.884-2.766,4.867-4.542,4.867-4.542L43.377,100.387z"/>
	</g>
	<g>
		<path fill="#FCA50B" d="M47.389,103.857c0,0-1.12,2.299-2.876,5.711c-1.737,3.423-4.199,7.908-6.779,12.34
			c-1.295,2.212-2.571,4.444-3.91,6.453c-0.683,0.995-1.373,1.939-2.07,2.804c-0.69,0.87-1.375,1.671-2.036,2.387
			c-0.66,0.718-1.305,1.344-1.893,1.881c-0.304,0.259-0.589,0.501-0.853,0.725c-0.281,0.204-0.54,0.392-0.773,0.562
			c-0.494,0.31-0.862,0.564-1.16,0.677c-0.282,0.125-0.432,0.191-0.432,0.191l-0.098-0.174c0,0,0.117-0.108,0.336-0.311
			c0.222-0.188,0.52-0.51,0.887-0.911c0.352-0.425,0.771-0.94,1.233-1.552c0.461-0.612,0.96-1.32,1.506-2.091
			c1.063-1.57,2.303-3.401,3.632-5.363c1.364-1.945,2.862-4.003,4.272-6.125c2.829-4.236,5.496-8.589,7.527-11.837
			c2.014-3.259,3.31-5.462,3.31-5.462L47.389,103.857z"/>
	</g>
	<g>
		<path fill="#FCA50B" d="M51.067,106.37c0,0-0.34,2.118-0.963,5.276c-0.598,3.163-1.531,7.352-2.579,11.524
			c-0.535,2.083-1.02,4.188-1.652,6.115c-0.652,1.919-1.415,3.668-2.19,5.116c-0.382,0.727-0.783,1.373-1.155,1.934
			c-0.384,0.557-0.75,1.022-1.086,1.382c-0.346,0.353-0.619,0.622-0.854,0.762c-0.219,0.146-0.336,0.223-0.336,0.223l-0.127-0.154
			c0,0,0.075-0.109,0.214-0.315c0.146-0.189,0.308-0.522,0.513-0.923c0.195-0.413,0.412-0.924,0.642-1.519
			c0.229-0.598,0.464-1.28,0.722-2.026c0.493-1.506,1.068-3.264,1.685-5.146c0.654-1.875,1.43-3.863,2.088-5.893
			c1.338-4.053,2.513-8.167,3.423-11.247c0.876-3.091,1.46-5.151,1.46-5.151L51.067,106.37z"/>
	</g>
</g>
<g>
	
		<linearGradient id="SVGID_2_" gradientUnits="userSpaceOnUse" x1="-62.0728" y1="149.248" x2="-35.0719" y2="109.3718" gradientTransform="matrix(-0.9954 0.0956 0.0956 0.9954 56.8649 -2.6685)">
		<stop  offset="0" style="stop-color:#F5F0DC"/>
		<stop  offset="0.0985" style="stop-color:#F5EDD3"/>
		<stop  offset="0.2623" style="stop-color:#F6E3B9"/>
		<stop  offset="0.4713" style="stop-color:#F8D590"/>
		<stop  offset="0.7173" style="stop-color:#F9C056"/>
		<stop  offset="0.9917" style="stop-color:#FCA60D"/>
		<stop  offset="1" style="stop-color:#FCA50B"/>
	</linearGradient>
	<path fill="url(#SVGID_2_)" d="M108.545,93.432c0,0,24.41,8.754,24.988,19.121c0.577,10.367-0.529,19.766-3.561,22.192
		c-3.032,2.426-17.686,6.094-19.966,5.56c-2.28-0.535-12.451-10.985-13.479-15.156c-1.028-4.17-2.056-21.401-2.056-21.401
		L108.545,93.432z"/>
	<g>
		<path fill="#FCA50B" d="M107.802,97.05c0,0,1.971,1.274,4.837,3.322c2.879,2.033,6.598,4.912,10.148,8.024
			c0.892,0.773,1.77,1.564,2.628,2.354c0.868,0.78,1.671,1.604,2.442,2.411c0.75,0.826,1.438,1.662,2.044,2.494
			c0.297,0.421,0.585,0.831,0.865,1.227c0.256,0.414,0.503,0.813,0.741,1.197c0.912,1.561,1.485,2.983,1.73,4.019
			c0.143,0.509,0.214,0.919,0.243,1.202c0.035,0.279,0.053,0.428,0.053,0.428l-0.194,0.049c0,0-0.068-0.131-0.195-0.377
			c-0.127-0.243-0.283-0.605-0.557-1.034c-0.248-0.437-0.6-0.941-0.988-1.516c-0.205-0.281-0.423-0.581-0.652-0.896
			c-0.241-0.308-0.494-0.631-0.758-0.969c-0.546-0.663-1.144-1.374-1.793-2.116c-0.661-0.733-1.359-1.507-2.08-2.308
			c-0.708-0.816-1.464-1.641-2.228-2.489c-0.761-0.851-1.576-1.68-2.392-2.508c-3.287-3.295-6.831-6.348-9.486-8.641
			c-2.671-2.276-4.523-3.712-4.523-3.712L107.802,97.05z"/>
	</g>
	<g>
		<path fill="#FCA50B" d="M104.913,100.244c0,0,1.982,1.776,4.867,4.542c2.899,2.75,6.633,6.556,10.204,10.531
			c1.777,1.995,3.583,3.976,5.11,5.98c0.759,1.004,1.468,1.995,2.066,2.991c0.308,0.49,0.607,0.967,0.896,1.429
			c0.258,0.482,0.508,0.95,0.748,1.397c0.233,0.45,0.457,0.882,0.669,1.292c0.189,0.424,0.361,0.833,0.514,1.218
			c0.301,0.773,0.601,1.421,0.715,2.021c0.305,1.157,0.435,1.811,0.435,1.811l-0.191,0.059c0,0-0.352-0.585-0.892-1.596
			c-0.248-0.511-0.682-1.08-1.104-1.755c-0.214-0.335-0.443-0.691-0.683-1.067c-0.263-0.364-0.539-0.747-0.828-1.147
			c-0.554-0.809-1.184-1.667-1.873-2.563c-0.669-0.906-1.389-1.854-2.138-2.836c-0.704-1.013-1.496-2.015-2.258-3.069
			c-0.753-1.061-1.599-2.079-2.407-3.127c-1.654-2.066-3.363-4.095-4.988-5.978c-1.646-1.867-3.182-3.609-4.499-5.104
			c-2.662-2.967-4.503-4.885-4.503-4.886L104.913,100.244z"/>
	</g>
	<g>
		<path fill="#FCA50B" d="M100.938,103.762c0,0,1.296,2.203,3.31,5.462c2.031,3.248,4.698,7.601,7.527,11.837
			c1.41,2.122,2.908,4.18,4.272,6.125c1.329,1.962,2.569,3.793,3.632,5.363c0.546,0.771,1.044,1.479,1.506,2.091
			c0.462,0.611,0.881,1.127,1.233,1.552c0.367,0.401,0.665,0.724,0.887,0.911c0.219,0.202,0.336,0.311,0.336,0.311l-0.098,0.174
			c0,0-0.15-0.066-0.432-0.191c-0.298-0.112-0.667-0.367-1.16-0.677c-0.233-0.17-0.492-0.357-0.773-0.562
			c-0.264-0.224-0.549-0.466-0.853-0.725c-0.588-0.537-1.233-1.163-1.893-1.881c-0.661-0.716-1.345-1.517-2.036-2.387
			c-0.697-0.864-1.387-1.809-2.07-2.804c-1.339-2.009-2.615-4.241-3.91-6.453c-2.58-4.432-5.042-8.917-6.779-12.34
			c-1.756-3.412-2.876-5.711-2.876-5.711L100.938,103.762z"/>
	</g>
	<g>
		<path fill="#FCA50B" d="M97.279,106.327c0,0,0.584,2.061,1.46,5.151c0.911,3.08,2.085,7.194,3.423,11.247
			c0.658,2.029,1.435,4.018,2.088,5.893c0.617,1.883,1.192,3.641,1.685,5.146c0.258,0.746,0.493,1.429,0.722,2.026
			c0.229,0.595,0.446,1.105,0.642,1.519c0.206,0.4,0.368,0.733,0.513,0.923c0.14,0.206,0.214,0.315,0.214,0.315l-0.127,0.154
			c0,0-0.117-0.077-0.336-0.223c-0.235-0.14-0.508-0.409-0.854-0.762c-0.336-0.359-0.702-0.825-1.086-1.382
			c-0.373-0.561-0.773-1.207-1.155-1.934c-0.775-1.448-1.538-3.197-2.19-5.116c-0.632-1.927-1.117-4.032-1.652-6.115
			c-1.048-4.173-1.981-8.361-2.579-11.524c-0.623-3.158-0.963-5.276-0.963-5.276L97.279,106.327z"/>
	</g>
</g>
<linearGradient id="SVGID_3_" gradientUnits="userSpaceOnUse" x1="62.665" y1="8.7266" x2="71.665" y2="28.8931">
	<stop  offset="0" style="stop-color:#F5F0DC"/>
	<stop  offset="0.0985" style="stop-color:#F5EDD3"/>
	<stop  offset="0.2623" style="stop-color:#F6E3B9"/>
	<stop  offset="0.4713" style="stop-color:#F8D590"/>
	<stop  offset="0.7173" style="stop-color:#F9C056"/>
	<stop  offset="0.9917" style="stop-color:#FCA60D"/>
	<stop  offset="1" style="stop-color:#FCA50B"/>
</linearGradient>
<path fill="url(#SVGID_3_)" d="M75.667,34.167l-2.437-22L66.25,8.75c0,0-4.084,1.417-3.583,7.25s-1.5,11.5,0.75,14.333
	S75.667,34.167,75.667,34.167z"/>
<path fill="#FCA50B" d="M67.985,36.007l6.861,7.368l5.286-7.133c0,0-2.015-23.742-6.074-26.242s-6.434-1.375-7.809-1.25
	s6.321,0.455,6.25,6.875C72.442,20.867,71.849,20.376,67.985,36.007z"/>
<linearGradient id="SVGID_4_" gradientUnits="userSpaceOnUse" x1="70.8311" y1="116.4395" x2="75.0811" y2="34.4395">
	<stop  offset="0" style="stop-color:#F5F0DC"/>
	<stop  offset="0.1646" style="stop-color:#F6EDD3"/>
	<stop  offset="0.4382" style="stop-color:#F7E5B9"/>
	<stop  offset="0.785" style="stop-color:#F9D790"/>
	<stop  offset="1" style="stop-color:#FBCE73"/>
</linearGradient>
<circle fill="url(#SVGID_4_)" cx="73.23" cy="70.164" r="42.48"/>
<path opacity="0.8" fill="#E55D33" d="M73.23,27.684c-0.247,0-0.491,0.015-0.737,0.019c-0.621,3.061-2.074,9.167-0.659,10.981
	c1.417,1.816,4.417,4.718,5.792,4.892s10.5,5.641,10.5,5.641s3.625-5.091,2.375-5.841s-0.851-3.125,0.262-3.125
	s5.363,1.106,6.238,1.678s2.25,2.303,2.625,0c0.283-1.737,0.762-2.947,0.853-4.348C93.102,31.405,83.602,27.684,73.23,27.684z"/>
<path opacity="0.8" fill="#E55D33" d="M57.75,36.5c2.625,0,4.708,0.875,4.917-0.375s1.417-3.125,0.75-4.25
	c-0.667-1.125-2.737-0.02-2.89-2.257c-2.14,0.67-8.943,3.59-11.103,5.359C50.532,37.188,55.467,36.5,57.75,36.5z"/>
<ellipse transform="matrix(0.8934 0.4493 -0.4493 0.8934 28.0986 -12.4056)" fill="#FCA50B" cx="40.188" cy="53" rx="7.813" ry="11.75"/>
<ellipse transform="matrix(-0.8984 -0.4393 0.4393 -0.8984 50.3778 113.4)" fill="#131419" cx="38.309" cy="50.872" rx="5.191" ry="7.712"/>
<ellipse transform="matrix(-0.8934 0.4493 -0.4493 -0.8934 226.7597 52.1882)" fill="#FCA50B" cx="107.188" cy="53" rx="7.813" ry="11.75"/>
<ellipse fill="#FBCE73" cx="74.93" cy="65.375" rx="15.57" ry="12.375"/>
<ellipse transform="matrix(0.8984 -0.4393 0.4393 0.8984 -11.2603 53.0787)" fill="#131419" cx="109.066" cy="50.872" rx="5.191" ry="7.712"/>
<circle fill="#BA6E74" cx="75.667" cy="71.5" r="13"/>
<linearGradient id="SVGID_5_" gradientUnits="userSpaceOnUse" x1="62.5264" y1="62.6855" x2="43.1514" y2="82.6855">
	<stop  offset="0" style="stop-color:#FBCE73"/>
	<stop  offset="0.1658" style="stop-color:#FBCA6A"/>
	<stop  offset="0.4414" style="stop-color:#FBC050"/>
	<stop  offset="0.7907" style="stop-color:#FCB027"/>
	<stop  offset="1" style="stop-color:#FCA50B"/>
</linearGradient>
<path fill="url(#SVGID_5_)" d="M75,58.353C50.506,78.484,58,83.176,37.25,91.186c0,0-9,2.325-12.75,2.51s9.5-0.163,18-8.241
	c8.5-8.079,15-26.681,22.5-27.101C72.5,57.934,75,58.353,75,58.353z"/>
<linearGradient id="SVGID_6_" gradientUnits="userSpaceOnUse" x1="91.0225" y1="63.166" x2="110.6475" y2="90.041">
	<stop  offset="0" style="stop-color:#FBCE73"/>
	<stop  offset="0.1658" style="stop-color:#FBCA6A"/>
	<stop  offset="0.4414" style="stop-color:#FBC050"/>
	<stop  offset="0.7907" style="stop-color:#FCB027"/>
	<stop  offset="1" style="stop-color:#FCA50B"/>
</linearGradient>
<path fill="url(#SVGID_6_)" d="M74.847,58.353c24.494,20.131,17,24.823,37.75,32.833c0,0,9,2.325,12.75,2.51s-9.5-0.163-18-8.241
	c-8.5-8.079-15-26.681-22.5-27.101C77.347,57.934,74.847,58.353,74.847,58.353z"/>
<g>
	<path fill="#FBCE73" d="M65.25,85.5c0,0,0.294,0.218,0.823,0.552c0.52,0.345,1.28,0.799,2.194,1.286
		c0.463,0.236,0.961,0.482,1.5,0.708c0.523,0.261,1.123,0.401,1.699,0.637c0.606,0.137,1.216,0.353,1.856,0.412
		c0.317,0.047,0.636,0.094,0.957,0.141l0.97,0.014c0.65,0.075,1.286-0.105,1.925-0.136c0.629-0.106,1.241-0.29,1.848-0.422
		c0.578-0.225,1.142-0.449,1.69-0.648c0.537-0.223,1.007-0.526,1.478-0.747c0.463-0.235,0.901-0.444,1.246-0.697
		c0.355-0.238,0.681-0.432,0.948-0.597c0.539-0.324,0.865-0.502,0.865-0.502s-0.205,0.295-0.597,0.796
		c-0.198,0.249-0.438,0.557-0.731,0.894c-0.273,0.361-0.644,0.701-1.075,1.049c-0.431,0.347-0.864,0.784-1.416,1.114
		c-0.558,0.318-1.143,0.685-1.787,0.987c-0.678,0.217-1.364,0.532-2.108,0.679c-0.752,0.098-1.516,0.294-2.293,0.23l-1.16-0.042
		c-0.378-0.07-0.754-0.141-1.127-0.21c-0.186-0.038-0.373-0.067-0.554-0.113l-0.526-0.185c-0.347-0.125-0.693-0.237-1.023-0.371
		c-0.64-0.309-1.263-0.598-1.789-0.972c-0.553-0.33-1.021-0.716-1.444-1.076c-0.429-0.351-0.775-0.727-1.084-1.048
		c-0.299-0.334-0.549-0.631-0.735-0.894C65.417,85.826,65.25,85.5,65.25,85.5z"/>
</g>
<g>
	<path fill="#FCA50B" d="M56.152,61.652c0,0,0.324-0.672,1.021-1.78c0.701-1.103,1.786-2.638,3.316-4.305
		c0.779-0.819,1.636-1.706,2.654-2.527c1.006-0.831,2.114-1.674,3.38-2.373c1.247-0.721,2.618-1.369,4.1-1.788
		c1.468-0.46,3.044-0.68,4.617-0.707c1.583-0.039,3.142,0.28,4.632,0.662c0.729,0.24,1.455,0.488,2.139,0.794
		c0.663,0.346,1.354,0.626,1.962,1.017c0.603,0.396,1.239,0.722,1.778,1.156c0.542,0.425,1.071,0.841,1.587,1.246
		c0.964,0.881,1.876,1.708,2.605,2.574c0.374,0.424,0.753,0.809,1.072,1.212c0.311,0.408,0.606,0.794,0.883,1.158
		c0.274,0.363,0.531,0.704,0.769,1.018c0.214,0.331,0.412,0.635,0.589,0.909c0.707,1.099,1.091,1.733,1.091,1.733
		s-0.51-0.541-1.403-1.487c-0.219-0.238-0.461-0.501-0.725-0.788c-0.277-0.273-0.578-0.568-0.898-0.883
		c-0.631-0.637-1.352-1.343-2.185-2.055c-0.796-0.754-1.755-1.445-2.724-2.22c-0.515-0.342-1.043-0.693-1.583-1.052
		c-0.54-0.357-1.131-0.645-1.708-0.98c-0.577-0.335-1.218-0.553-1.833-0.842c-0.634-0.241-1.29-0.438-1.942-0.652
		c-1.333-0.314-2.708-0.579-4.097-0.522c-1.382,0.003-2.774,0.169-4.097,0.563c-0.67,0.157-1.307,0.425-1.953,0.636
		c-0.624,0.275-1.255,0.517-1.839,0.841c-1.19,0.602-2.296,1.293-3.311,2.007c-1.016,0.712-1.927,1.465-2.765,2.168
		c-0.812,0.731-1.562,1.406-2.189,2.045c-0.633,0.634-1.172,1.202-1.608,1.68C56.618,61.069,56.152,61.652,56.152,61.652z"/>
</g>
<ellipse fill="#FFFFFF" cx="40.406" cy="48.125" rx="1.219" ry="2"/>
<ellipse transform="matrix(0.968 -0.2508 0.2508 0.968 -8.5415 29.2309)" fill="#FFFFFF" cx="110.406" cy="48.125" rx="1.219" ry="2"/>
<g>
	<path fill="#FCA50B" d="M74.847,26.765c0,0-0.114-0.305-0.314-0.837c-0.2-0.52-0.486-1.261-0.829-2.151
		c-0.183-0.432-0.38-0.899-0.59-1.394c-0.213-0.49-0.449-0.998-0.699-1.516c-0.226-0.53-0.542-1.033-0.813-1.564
		c-0.281-0.527-0.617-1.027-0.922-1.545c-0.359-0.475-0.667-0.998-1.047-1.44c-0.392-0.431-0.706-0.933-1.131-1.292
		c-0.402-0.384-0.762-0.8-1.183-1.097c-0.41-0.309-0.765-0.671-1.166-0.888c-0.389-0.238-0.741-0.483-1.061-0.7
		c-0.342-0.158-0.639-0.317-0.888-0.445c-0.497-0.262-0.789-0.434-0.789-0.434s0.321,0.005,0.896,0.051
		c0.287,0.026,0.642,0.054,1.047,0.111c0.388,0.104,0.83,0.23,1.311,0.392c0.5,0.125,0.972,0.402,1.487,0.679
		c0.535,0.252,1.027,0.621,1.524,1.025c0.524,0.376,0.969,0.861,1.433,1.348c0.471,0.48,0.825,1.061,1.239,1.598
		c0.333,0.583,0.703,1.152,0.971,1.754c0.278,0.597,0.526,1.195,0.716,1.787c0.224,0.581,0.357,1.169,0.487,1.72
		c0.147,0.546,0.202,1.084,0.282,1.568C75.062,25.451,74.846,26.765,74.847,26.765z"/>
</g>
<g>
	<path fill="#FCA50B" d="M71.833,27.338c0,0-0.498-0.666-1.221-1.506c-0.362-0.421-0.797-0.878-1.262-1.338
		c-0.475-0.451-0.987-0.905-1.542-1.3c-0.256-0.227-0.57-0.372-0.838-0.579c-0.293-0.173-0.582-0.343-0.862-0.508
		c-0.296-0.151-0.583-0.297-0.854-0.435c-0.271-0.157-0.553-0.246-0.804-0.374c-0.256-0.106-0.489-0.245-0.708-0.317
		c-0.217-0.079-0.409-0.169-0.568-0.239c-0.319-0.146-0.508-0.249-0.508-0.249s0.193-0.066,0.542-0.148
		c0.347-0.072,0.858-0.206,1.471-0.173c0.306,0.011,0.652-0.02,1,0.055c0.349,0.066,0.727,0.125,1.104,0.239
		c0.368,0.137,0.762,0.262,1.132,0.454c0.361,0.208,0.749,0.396,1.08,0.664c0.337,0.262,0.672,0.524,0.95,0.84
		c0.302,0.29,0.542,0.625,0.771,0.946c0.437,0.658,0.749,1.324,0.908,1.927c0.186,0.591,0.232,1.112,0.242,1.472
		C71.873,27.131,71.833,27.338,71.833,27.338z"/>
</g>
</svg>
