<?xml version="1.0" encoding="utf-8"?>
<!-- Generator: Adobe Illustrator 16.0.0, SVG Export Plug-In . SVG Version: 6.00 Build 0)  -->
<!DOCTYPE svg PUBLIC "-//W3C//DTD SVG 1.1//EN" "http://www.w3.org/Graphics/SVG/1.1/DTD/svg11.dtd">
<svg version="1.1" id="Layer_1" xmlns="http://www.w3.org/2000/svg" xmlns:xlink="http://www.w3.org/1999/xlink" x="0px" y="0px"
	 width="150px" height="150px" viewBox="0 0 150 150" enable-background="new 0 0 150 150" xml:space="preserve">
<g>
	<g>
		
			<radialGradient id="SVGID_1_" cx="59.6953" cy="47.1021" r="41.6704" gradientTransform="matrix(0.4029 -1.0206 0.9718 0.3836 -16.0149 113.2814)" gradientUnits="userSpaceOnUse">
			<stop  offset="0" style="stop-color:#F4B6BB"/>
			<stop  offset="0.1774" style="stop-color:#F3ADB2"/>
			<stop  offset="0.4724" style="stop-color:#EF9598"/>
			<stop  offset="0.8462" style="stop-color:#E96E6F"/>
			<stop  offset="1" style="stop-color:#E65C5C"/>
		</radialGradient>
		<path fill="url(#SVGID_1_)" d="M76.172,79.636c0,0-7.913,18.805-27.321,15.328c-19.408-3.479-31.184-18.759-33.413-23.148
			c-2.23-4.391-4.28-10.584-2.341-12.777c1.939-2.196,7.373-1.647,8.323-2.813c0,0-4.091-3.349-5.016-4.483
			c-0.924-1.135,0.515-8.829,15.032-10.104c14.52-1.275,31.319,3.208,38.783,9.089C77.682,56.611,80.831,72.492,76.172,79.636z"/>
		<path opacity="0.2" fill="#C61744" d="M70.218,50.728c-1.139-0.898-2.521-1.758-4.054-2.576
			c5.172,4.375,9.523,12.892,9.523,12.892c-5.92-7.3-17.305-10.253-17.305-10.253c8.628,4.775,15.621,14.725,15.621,14.725
			c-5.617-5.384-17.695-5.958-17.695-5.958c2.478,3.313,7.737,6.944,11.716,9.411c-10.042-3.932-24.339-1.384-24.339-1.384
			c4.458,2.957,20.416,6.089,30.387,9.941c9.971,3.851-32.026-4.341-32.026-4.341c5.522,5.004,30.886,7.229,30.886,7.229
			c-4.37,3.06-28.438,2.467-28.438,2.467c6.733,6.68,20.245,2.599,20.245,2.599c-11.255,11.24-35.683,0.826-35.88,0.742
			c5.274,3.862,11.981,7.309,19.992,8.744c19.408,3.477,27.321-15.328,27.321-15.328C80.831,72.492,77.682,56.611,70.218,50.728z"/>
	</g>
	<g>
		
			<radialGradient id="SVGID_2_" cx="62.3877" cy="24.8125" r="41.6704" gradientTransform="matrix(-0.9616 -0.6426 0.5556 -0.8314 108.3405 159.0076)" gradientUnits="userSpaceOnUse">
			<stop  offset="0" style="stop-color:#F4B6BB"/>
			<stop  offset="0.1774" style="stop-color:#F3ADB2"/>
			<stop  offset="0.4724" style="stop-color:#EF9598"/>
			<stop  offset="0.8462" style="stop-color:#E96E6F"/>
			<stop  offset="1" style="stop-color:#E65C5C"/>
		</radialGradient>
		<path fill="url(#SVGID_2_)" d="M75.305,79.253c0,0,17.633,12.307,10.766,29.969c-6.869,17.662-24.345,25.049-29.165,26.071
			c-4.822,1.021-11.435,1.416-13.316-0.989c-1.882-2.408-0.39-7.459-1.404-8.661c0,0-4.091,3.062-5.397,3.657
			c-1.306,0.597-8.831-2.721-7.61-16.91c1.221-14.191,8.654-29.107,15.888-34.75C52.3,71.996,68.89,72.998,75.305,79.253z"/>
		<path opacity="0.2" fill="#C61744" d="M45.066,77.64c-1.104,0.86-2.212,1.964-3.304,3.223c5.314-3.837,14.672-5.843,14.672-5.843
			c-8.4,3.812-13.352,13.941-13.352,13.941c6.316-7.036,17.579-11.204,17.579-11.204c-6.411,4.006-9.079,15.399-9.079,15.399
			c3.775-1.531,8.353-5.638,11.534-8.815c-5.71,8.6-5.607,22.899-5.607,22.899c3.759-3.51,9.684-17.963,15.298-26.515
			c5.614-8.552-9.922,29.496-9.922,29.496c6.011-4.01,12.643-27.678,12.643-27.678c2.335,4.947-2.423,27.789-2.423,27.789
			c7.915-4.745,6.126-18.681,6.126-18.681c9.412,13.589-5.333,34.292-5.451,34.46c4.812-4.063,9.456-9.599,12.29-16.889
			c6.868-17.662-10.766-29.969-10.766-29.969C68.89,72.998,52.3,71.996,45.066,77.64z"/>
	</g>
	<g>
		
			<radialGradient id="SVGID_3_" cx="89.9482" cy="-29.1304" r="41.6704" gradientTransform="matrix(-0.763 0.6464 -0.6464 -0.763 143.9205 19.4503)" gradientUnits="userSpaceOnUse">
			<stop  offset="0" style="stop-color:#F4B6BB"/>
			<stop  offset="0.1774" style="stop-color:#F3ADB2"/>
			<stop  offset="0.4724" style="stop-color:#EF9598"/>
			<stop  offset="0.8462" style="stop-color:#E96E6F"/>
			<stop  offset="1" style="stop-color:#E65C5C"/>
		</radialGradient>
		<path fill="url(#SVGID_3_)" d="M79.405,81.95c0,0,14.466-11.683,29.131,0.14c14.665,11.824,18.032,29.747,18.043,34.361
			c0.011,4.615-0.885,10.62-3.416,11.513c-2.532,0.893-6.817-2.07-8.095-1.558c0,0,1.993,4.627,2.284,5.98
			c0.292,1.355-4.132,6.967-16.729,1.285c-12.597-5.681-24.672-17.118-28.404-25.374C68.488,100.042,72.535,85.624,79.405,81.95z"/>
		<path opacity="0.2" fill="#C61744" d="M72.219,108.297c0.57,1.262,1.356,2.603,2.288,3.981c-2.462-5.966-2.501-14.93-2.501-14.93
			c1.853,8.699,10.073,16.379,10.073,16.379c-5.164-7.891-6.799-19.249-6.799-19.249c2.406,6.995,12.202,13.055,12.202,13.055
			c-0.668-3.85-3.514-9.25-5.784-13.103c6.691,7.857,19.638,12.397,19.638,12.397c-2.461-4.476-14.404-14.422-21.072-22.181
			c-6.667-7.758,24.784,18.37,24.784,18.37c-2.487-6.64-22.625-20.199-22.625-20.199c4.913-0.474,24.66,11.154,24.66,11.154
			c-2.791-8.57-15.727-11.495-15.727-11.495c14.069-3.962,29.991,15.846,30.12,16.006c-2.762-5.594-6.886-11.512-12.939-16.393
			c-14.665-11.823-29.131-0.14-29.131-0.14C72.535,85.624,68.488,100.042,72.219,108.297z"/>
	</g>
	<g>
		
			<radialGradient id="SVGID_4_" cx="114.1309" cy="28.397" r="41.6704" gradientTransform="matrix(0.4357 0.9001 -0.9001 0.4357 73.8602 -46.4218)" gradientUnits="userSpaceOnUse">
			<stop  offset="0" style="stop-color:#F4B6BB"/>
			<stop  offset="0.1774" style="stop-color:#F3ADB2"/>
			<stop  offset="0.4724" style="stop-color:#EF9598"/>
			<stop  offset="0.8462" style="stop-color:#E96E6F"/>
			<stop  offset="1" style="stop-color:#E65C5C"/>
		</radialGradient>
		<path fill="url(#SVGID_4_)" d="M77.058,78.472c0,0-7.708-16.921,7.399-28.176c15.107-11.253,33.303-10.046,37.774-8.907
			c4.472,1.14,10.063,3.505,10.297,6.179c0.234,2.674-3.704,6.086-3.527,7.451c0,0,4.978-0.777,6.361-0.722
			c1.385,0.055,5.716,5.739-2.926,16.521C123.793,81.601,109.708,90.444,100.782,92C91.856,93.555,78.903,86.041,77.058,78.472z"/>
		<path opacity="0.2" fill="#C61744" d="M100.782,92c1.364-0.237,2.858-0.665,4.426-1.223c-6.392,0.898-15.083-1.3-15.083-1.3
			c8.886,0.374,18.374-5.67,18.374-5.67c-8.93,3.033-20.336,1.784-20.336,1.784c7.374-0.587,15.686-8.561,15.686-8.561
			c-3.896-0.313-9.834,1.097-14.133,2.335c9.279-4.522,16.903-15.928,16.903-15.928c-4.949,1.268-17.558,10.354-26.735,14.877
			c-9.176,4.522,23.97-19.422,23.97-19.422C96.802,59.645,78.65,75.766,78.65,75.766c0.767-4.877,16.95-21.102,16.95-21.102
			C86.605,55.231,80.547,67.03,80.547,67.03c-0.33-14.612,22.823-25.094,23.009-25.178c-6.105,1.28-12.865,3.799-19.1,8.444
			c-15.106,11.254-7.399,28.176-7.399,28.176C78.903,86.041,91.856,93.555,100.782,92z"/>
	</g>
	<g>
		
			<radialGradient id="SVGID_5_" cx="76.5146" cy="56.7124" r="41.6709" gradientTransform="matrix(1 0 0 1.0568 0 -3.5742)" gradientUnits="userSpaceOnUse">
			<stop  offset="0" style="stop-color:#F4B6BB"/>
			<stop  offset="0.1774" style="stop-color:#F3ADB2"/>
			<stop  offset="0.4724" style="stop-color:#EF9598"/>
			<stop  offset="0.8462" style="stop-color:#E96E6F"/>
			<stop  offset="1" style="stop-color:#E65C5C"/>
		</radialGradient>
		<path fill="url(#SVGID_5_)" d="M76.192,80.819c0,0-18.589-0.46-22.136-20.012c-3.547-19.553,5.468-36.305,8.442-40.034
			c2.975-3.729,7.54-7.958,10.048-6.949c2.509,1.009,3.864,6.326,5.17,6.786c0,0,1.469-5.093,2.122-6.383
			c0.653-1.291,7.656-2.794,13.595,10.391c5.939,13.186,7.762,30.657,5.272,39.864C96.216,73.688,83.808,82.549,76.192,80.819z"/>
		<path opacity="0.2" fill="#C61744" d="M98.706,64.482c0.381-1.407,0.647-3.025,0.827-4.773
			c-1.977,6.493-7.742,13.748-7.742,13.748C96,65.178,94.693,53.37,94.693,53.37c-1.161,9.891-7.255,20.165-7.255,20.165
			c2.685-7.283-0.871-18.862-0.871-18.862c-1.979,3.563-3.298,9.86-4.057,14.519c-0.027-10.909-6.971-23.414-6.971-23.414
			c-1.016,5.291,1.669,21.469,1.741,32.28c0.073,10.811-7.037-31.743-7.037-31.743c-2.394,7.054,4.208,31.743,4.208,31.743
			c-4.056-2.974-11.608-25.839-11.608-25.839c-3.41,8.817,4.57,20.012,4.57,20.012c-13.295-6.415-12.641-33.264-12.636-33.48
			c-1.508,6.396-2.187,13.986-0.722,22.056c3.547,19.551,22.136,20.012,22.136,20.012C83.808,82.549,96.216,73.688,98.706,64.482z"
			/>
	</g>
	<circle fill="#B4BA63" cx="76.897" cy="80.521" r="6.591"/>
	<g>
		<g>
			<path fill="#F3F9AA" d="M63.911,76.953c1.028,0.684,2.068,1.313,3.258,1.677c1.855,0.567,2.642-2.329,0.798-2.893
				c-0.932-0.285-1.736-0.839-2.541-1.375c-0.682-0.454-1.658-0.136-2.053,0.539C62.942,75.637,63.232,76.5,63.911,76.953
				L63.911,76.953z"/>
		</g>
	</g>
	<g>
		<g>
			<path fill="#F3F9AA" d="M67.188,85.875c0.323,0.468,0.666,0.858,0.916,1.221c0.463,0.672,1.307,0.975,2.053,0.539
				c0.665-0.39,1.003-1.378,0.538-2.052c-0.323-0.469-0.665-0.858-0.916-1.222c-0.463-0.671-1.307-0.975-2.052-0.538
				C67.061,84.212,66.723,85.201,67.188,85.875L67.188,85.875z"/>
		</g>
	</g>
	<g>
		<g>
			<path fill="#F3F9AA" d="M79.012,87.076c0.33,0.001,0.246,0.058,0.005-0.052c0.744,0.339,1.608,0.22,2.053-0.539
				c0.381-0.651,0.206-1.713-0.538-2.052c-0.507-0.23-0.961-0.354-1.52-0.357C77.077,84.066,77.078,87.066,79.012,87.076
				L79.012,87.076z"/>
		</g>
	</g>
	<g>
		<g>
			<path fill="#F3F9AA" d="M71.155,78.551c0.27,0.445,0.627,0.719,0.998,1.066c0.596,0.559,1.53,0.592,2.121,0
				c0.564-0.564,0.596-1.562,0-2.121c-0.123-0.116-0.25-0.225-0.38-0.333c-0.046-0.038-0.285-0.353-0.147-0.127
				c-0.423-0.698-1.338-0.956-2.053-0.538C70.997,76.906,70.731,77.851,71.155,78.551L71.155,78.551z"/>
		</g>
	</g>
	<g>
		<g>
			<path fill="#F3F9AA" d="M72.071,69.242c0.386,0.535,0.833,0.922,1.303,1.372c0.59,0.565,1.534,0.587,2.121,0
				c0.568-0.568,0.591-1.556,0-2.121c-0.136-0.13-0.278-0.253-0.42-0.376c-0.078-0.067-0.154-0.136-0.229-0.207
				c0.012,0.011-0.314-0.361-0.185-0.182c-0.477-0.662-1.296-0.981-2.052-0.539C71.955,67.574,71.592,68.578,72.071,69.242
				L72.071,69.242z"/>
		</g>
	</g>
	<g>
		<g>
			<path fill="#F3F9AA" d="M81.226,74.583c-0.162-0.368-0.026,0.26-0.06-0.147c0.013,0.152,0.008,0.307,0.008,0.458
				c0.003,1.935,3.003,1.935,3,0c-0.001-0.661-0.091-1.22-0.357-1.825c-0.33-0.749-1.409-0.916-2.052-0.539
				C81,72.979,80.897,73.835,81.226,74.583L81.226,74.583z"/>
		</g>
	</g>
	<g>
		<g>
			<path fill="#F3F9AA" d="M77.952,80.533c0.655,0.588,1.403,0.864,2.281,0.897c0.817,0.03,1.5-0.705,1.5-1.5
				c0-0.84-0.683-1.47-1.5-1.5c-0.451-0.017,0.231,0.081-0.198-0.037c0.258,0.07-0.166-0.165,0.038,0.019
				c-0.608-0.545-1.52-0.602-2.121,0C77.397,78.966,77.342,79.987,77.952,80.533L77.952,80.533z"/>
		</g>
	</g>
	<g>
		<g>
			<path fill="#F3F9AA" d="M79.928,70.596c1.935,0,1.935-3,0-3S77.993,70.596,79.928,70.596L79.928,70.596z"/>
		</g>
	</g>
	<g>
		<g>
			<path fill="#F3F9AA" d="M91.83,78.988c1.935,0,1.935-3,0-3S89.895,78.988,91.83,78.988L91.83,78.988z"/>
		</g>
	</g>
	<g>
		<g>
			<path fill="#F3F9AA" d="M88.989,88.243c0.71,0.155,0.989,0.299,1.626,0.765c0.661,0.483,1.671,0.113,2.052-0.539
				c0.445-0.76,0.12-1.57-0.539-2.052c-0.699-0.511-1.494-0.882-2.342-1.066c-0.798-0.174-1.62,0.228-1.845,1.047
				C87.734,87.153,88.19,88.069,88.989,88.243L88.989,88.243z"/>
		</g>
	</g>
	<g>
		<g>
			<path fill="#F3F9AA" d="M79.317,95.01c-0.472-0.032-0.801-0.247-0.989-0.643c0.116,0.811,1.133,1.243,1.845,1.047
				c0.862-0.237,1.163-1.036,1.047-1.845c-0.137-0.962-1.037-1.448-1.904-1.559c-0.813-0.104-1.5,0.761-1.5,1.5
				C77.817,94.406,78.506,94.907,79.317,95.01L79.317,95.01z"/>
		</g>
	</g>
	<g>
		<g>
			<path fill="#F3F9AA" d="M72.477,87.102c-0.008,0.693-0.101,1.351-0.406,1.989c-0.352,0.738-0.21,1.614,0.539,2.053
				c0.66,0.387,1.7,0.2,2.052-0.538c0.534-1.12,0.8-2.262,0.815-3.504C75.5,85.166,72.5,85.168,72.477,87.102L72.477,87.102z"/>
		</g>
	</g>
	<g>
		<g>
			<path fill="#F3F9AA" d="M61.98,83.97c-0.129-0.064-0.111-0.055,0.054,0.027c0.095,0.05,0.186,0.105,0.275,0.165
				c0.147,0.094,0.218,0.178,0.383,0.338c0.587,0.568,1.536,0.585,2.121,0c0.571-0.57,0.588-1.553,0-2.121
				c-0.604-0.583-1.248-1.013-2.035-1.301c-0.769-0.281-1.642,0.308-1.845,1.047C60.703,82.963,61.213,83.689,61.98,83.97
				L61.98,83.97z"/>
		</g>
	</g>
	<g>
		<g>
			<path fill="#F3F9AA" d="M66.202,96.555c0.158,0.138,0.326,0.264,0.496,0.387c0.043,0.032,0.386,0.307,0.115,0.071
				c0.616,0.537,1.514,0.608,2.121,0c0.548-0.548,0.617-1.584,0-2.121c-0.158-0.138-0.326-0.264-0.496-0.387
				c-0.044-0.032-0.385-0.307-0.115-0.071c-0.615-0.537-1.514-0.607-2.121,0C65.653,94.982,65.586,96.017,66.202,96.555
				L66.202,96.555z"/>
		</g>
	</g>
	<g>
		<g>
			<path fill="#F3F9AA" d="M69.856,72.58c1.935,0,1.935-3,0-3S67.922,72.58,69.856,72.58L69.856,72.58z"/>
		</g>
	</g>
	<g>
		<g>
			<path fill="#F3F9AA" d="M85.421,82.345c0.305,0,0.61,0,0.916,0c1.935,0,1.935-3,0-3c-0.305,0-0.61,0-0.916,0
				C83.486,79.345,83.486,82.345,85.421,82.345L85.421,82.345z"/>
		</g>
	</g>
	<g>
		<g>
			<path fill="#F3F9AA" d="M82.527,91.296c0.134,0.057,0.262,0.119,0.389,0.189c0.083,0.048,0.163,0.1,0.241,0.155
				c-0.115-0.088-0.106-0.075,0.027,0.039c0.069,0.066,0.135,0.135,0.197,0.207c-0.085-0.118-0.077-0.105,0.023,0.04
				c0.108,0.159,0.188,0.335,0.264,0.511c0.323,0.752,1.414,0.912,2.053,0.538c0.77-0.451,0.86-1.301,0.538-2.053
				c-0.416-0.968-1.248-1.801-2.217-2.216c-0.752-0.322-1.602-0.231-2.053,0.539C81.615,89.883,81.775,90.974,82.527,91.296
				L82.527,91.296z"/>
		</g>
	</g>
	<g>
		<g>
			<path fill="#F3F9AA" d="M75.197,83.871c1.935,0,1.935-3,0-3S73.263,83.871,75.197,83.871L75.197,83.871z"/>
		</g>
	</g>
	<g>
		<g>
			<path fill="#F3F9AA" d="M76.723,75.021c1.935,0,1.935-3,0-3S74.789,75.021,76.723,75.021L76.723,75.021z"/>
		</g>
	</g>
	<g>
		<g>
			<path fill="#F3F9AA" d="M69.551,82.345c1.935,0,1.935-3,0-3S67.617,82.345,69.551,82.345L69.551,82.345z"/>
		</g>
	</g>
	<g>
		<g>
			<path fill="#F3F9AA" d="M87.405,78.531c1.935,0,1.935-3,0-3S85.47,78.531,87.405,78.531L87.405,78.531z"/>
		</g>
	</g>
	<g>
		<g>
			<path fill="#F3F9AA" d="M60.854,70.291c1.935,0,1.935-3,0-3S58.919,70.291,60.854,70.291L60.854,70.291z"/>
		</g>
	</g>
	<g>
		<g>
			<path fill="#F3F9AA" d="M65.584,65.408c1.935,0,1.935-3,0-3S63.649,65.408,65.584,65.408L65.584,65.408z"/>
		</g>
	</g>
	<g>
		<g>
			<path fill="#F3F9AA" d="M93.661,69.375c1.935,0,1.935-3,0-3S91.727,69.375,93.661,69.375L93.661,69.375z"/>
		</g>
	</g>
	<g>
		<g>
			<path fill="#F3F9AA" d="M56.429,89.517c1.935,0,1.935-3,0-3S54.494,89.517,56.429,89.517L56.429,89.517z"/>
		</g>
	</g>
	<g>
		<g>
			<path fill="#F3F9AA" d="M51.698,81.583c1.935,0,1.935-3,0-3S49.764,81.583,51.698,81.583L51.698,81.583z"/>
		</g>
	</g>
	<g>
		<g>
			<path fill="#F3F9AA" d="M83.438,106.455c1.935,0,1.935-3,0-3S81.503,106.455,83.438,106.455L83.438,106.455z"/>
		</g>
	</g>
	<g>
		<g>
			<path fill="#F3F9AA" d="M92.135,99.13c1.935,0,1.935-3,0-3S90.201,99.13,92.135,99.13L92.135,99.13z"/>
		</g>
	</g>
	<g>
		<g>
			<path fill="#F3F9AA" d="M81.606,66.17c1.935,0,1.935-3,0-3S79.671,66.17,81.606,66.17L81.606,66.17z"/>
		</g>
	</g>
</g>
</svg>
