<?xml version="1.0" encoding="utf-8"?>
<!-- Generator: Adobe Illustrator 16.0.0, SVG Export Plug-In . SVG Version: 6.00 Build 0)  -->
<!DOCTYPE svg PUBLIC "-//W3C//DTD SVG 1.1//EN" "http://www.w3.org/Graphics/SVG/1.1/DTD/svg11.dtd">
<svg version="1.1" id="Layer_1" xmlns="http://www.w3.org/2000/svg" xmlns:xlink="http://www.w3.org/1999/xlink" x="0px" y="0px"
	 width="150px" height="150px" viewBox="0 0 150 150" enable-background="new 0 0 150 150" xml:space="preserve">
<g>
	<path fill="#141611" d="M129,54.609c0-0.229,0.199-0.457,0.199-0.688c0-8.38-15.224-15.172-34.101-15.172
		s-34.14,7.107-34.14,15.486c0,0.152,0.056-0.236,0.064,0.764H61v38.951c0,0.007,0,0.014,0,0.021s0,0.014,0,0.021V94h0.023
		c0.536,9,15.616,14.934,34.155,14.934c18.877,0,34.021-6.688,34.021-15.067c0-0.229-0.199-0.354-0.199-0.581V54.609z"/>
	<g>
		<radialGradient id="SVGID_1_" cx="91.4453" cy="41.4912" r="34.5501" gradientUnits="userSpaceOnUse">
			<stop  offset="0.4839" style="stop-color:#FCF6E6"/>
			<stop  offset="1" style="stop-color:#AD9772"/>
		</radialGradient>
		<path fill="url(#SVGID_1_)" d="M127.788,54.464c0,0.995-2.098,1.761-2.571,2.694c-0.424,0.835,0.094,2.558-0.67,3.326
			c-0.661,0.665-1.747,1.195-2.636,1.8c-0.786,0.533-2.278,0.021-3.224,0.498c-0.857,0.434-1.096,2.456-2.07,2.839
			c-0.902,0.354-2.114,0.164-3.108,0.47c-0.934,0.287-1.922,0.675-2.928,0.917c-0.953,0.229-1.807,1.398-2.818,1.584
			c-0.97,0.178-2.108-0.073-3.126,0.062c-0.98,0.13-2.146-0.947-3.166-0.859c-0.988,0.084-1.964,1.035-2.983,1.078
			c-0.994,0.042-2.047-0.127-3.065-0.127c-1.018,0-2.083,0.532-3.076,0.49c-1.019-0.042-2.038-0.647-3.026-0.732
			c-1.019-0.087-2.074-0.091-3.055-0.221c-1.018-0.134-1.877-1.304-2.847-1.48c-1.013-0.186-1.879-0.88-2.833-1.109
			c-1.006-0.241-2.116,0.058-3.049-0.229c-0.994-0.306-1.634-1.443-2.536-1.797c-0.977-0.383-2.402,0.378-3.26-0.055
			c-0.947-0.479-1.659-1.327-2.445-1.861c-0.89-0.604-1.571-1.364-2.231-2.029c-0.764-0.769-0.108-2.189-0.531-3.024
			c-0.474-0.933-2.976-1.238-2.976-2.232c0-0.995,2.02-1.546,2.493-2.479c0.424-0.834-0.604-2.861,0.159-3.63
			c0.66-0.664,1.668-1.353,2.557-1.956c0.786-0.533,1.538-1.567,2.485-2.046c0.856-0.433,2.199-0.161,3.174-0.543
			c0.902-0.354,1.971-0.492,2.965-0.798c0.934-0.288,2.276,0.848,3.282,0.606c0.953-0.229,1.463-2.745,2.475-2.93
			c0.97-0.178,2.002-0.596,3.019-0.729c0.98-0.13,2.107,0.304,3.126,0.216c0.989-0.084,2.014-0.854,3.034-0.897
			c0.993-0.042,2.078,0.056,3.097,0.056c1.018,0,1.978,2.835,2.971,2.877c1.019,0.042,1.983,0.006,2.972,0.091
			c1.019,0.087,2.094-0.717,3.074-0.587c1.017,0.134,2.344-1.548,3.313-1.371c1.013,0.186,1.887,1.275,2.841,1.505
			c1.006,0.241,1.492,2.276,2.425,2.563c0.994,0.306,2.117,0.007,3.02,0.36c0.977,0.382,2.597-0.655,3.454-0.222
			c0.947,0.479,0.9,2.643,1.687,3.177c0.89,0.604,1.204,1.552,1.865,2.216c0.764,0.769,2.982,0.37,3.406,1.205
			C126.922,52.08,127.788,53.47,127.788,54.464z"/>
	</g>
	<linearGradient id="SVGID_2_" gradientUnits="userSpaceOnUse" x1="82.3711" y1="51.5586" x2="102.373" y2="51.5586">
		<stop  offset="0" style="stop-color:#FBCE73"/>
		<stop  offset="0.4839" style="stop-color:#FF931E"/>
		<stop  offset="1" style="stop-color:#D86D1F"/>
	</linearGradient>
	<path fill="url(#SVGID_2_)" d="M92.695,59.024c0,0-9.442-3.846-10.229-6.108c-0.785-2.262,3.345-6.785,8.458-8.368
		c5.112-1.584,10.619,1.356,11.406,2.714C103.118,48.618,92.695,59.024,92.695,59.024z"/>
	<path fill="#93C65F" d="M94.514,57.168c-1.913-2.931,2.404-3.861,3.39-3.623c0.986,0.238,2.853,2.104,2.853,2.397
		c0,0.295-1.866,2.258-2.161,2.258C98.301,58.2,95.634,58.884,94.514,57.168z"/>
	<path fill="#719942" d="M95.691,52.455c-1.913-2.929,2.404-3.859,3.391-3.622c0.985,0.238,2.852,2.104,2.852,2.397
		c0,0.295-1.866,2.259-2.161,2.259C99.479,53.489,96.812,54.172,95.691,52.455z"/>
	<path fill="#A9D873" d="M106.108,56.107c-0.967,3.363-4.494,0.705-4.957-0.196c-0.465-0.902-0.274-3.533-0.052-3.726
		c0.225-0.192,2.93-0.064,3.122,0.159C104.415,52.567,106.674,54.139,106.108,56.107z"/>
	<path fill="#93C65F" d="M106.179,47.408c3.21,1.395,0.118,4.547-0.837,4.89c-0.953,0.344-3.538-0.186-3.7-0.432
		c-0.161-0.247,0.315-2.913,0.562-3.074C102.449,48.63,104.3,46.591,106.179,47.408z"/>
</g>
<g>
	<path fill="#141611" d="M95,74.039c0-0.264,0.44-0.527,0.44-0.793c0-9.664-17.45-17.496-39.218-17.496
		c-21.769,0-39.316,7.951-39.316,17.613c0,0.176,0.117-0.363,0.127,0.637H17v45.406c0,0.008,0,0.016,0,0.023s0,0.016,0,0.023V119
		h0.033c0.618,11,18.008,17.452,39.387,17.452c21.769,0,39.021-7.597,39.021-17.259c0-0.266-0.44-0.293-0.44-0.555V74.039z"/>
	<g>
		<radialGradient id="SVGID_3_" cx="51.9902" cy="58.9707" r="39.9226" gradientUnits="userSpaceOnUse">
			<stop  offset="0.4839" style="stop-color:#FCF6E6"/>
			<stop  offset="1" style="stop-color:#AD9772"/>
		</radialGradient>
		<path fill="url(#SVGID_3_)" d="M94.024,73.871c0,1.063-2.386,1.88-2.856,2.882c-0.426,0.909,0.293,2.801-0.483,3.645
			c-0.678,0.736-1.84,1.337-2.76,2.013c-0.815,0.599-2.48,0.021-3.469,0.564c-0.896,0.493-1.015,2.796-2.039,3.237
			c-0.947,0.408-2.267,0.204-3.313,0.564c-0.981,0.337-2.02,0.793-3.081,1.085c-1.006,0.277-1.86,1.638-2.933,1.87
			c-1.022,0.223-2.254-0.041-3.33,0.139c-1.037,0.173-2.334-1.035-3.416-0.904c-1.047,0.127-2.04,1.254-3.124,1.34
			c-1.054,0.083-2.182-0.07-3.267-0.028c-1.059,0.041-2.17,0.701-3.253,0.701s-2.193-0.643-3.251-0.684
			c-1.083-0.042-2.203,0.021-3.257-0.063c-1.083-0.085-2.055-1.366-3.102-1.493c-1.081-0.131-2.047-0.854-3.084-1.026
			c-1.078-0.18-2.244,0.279-3.269,0.057c-1.07-0.232-1.85-1.45-2.855-1.728c-1.063-0.292-2.508,0.801-3.49,0.463
			c-1.049-0.36-1.916-1.156-2.862-1.563c-1.025-0.442-1.909-1.077-2.806-1.57c-0.989-0.544-0.933-2.411-1.749-3.011
			c-0.92-0.676-3.528,0.717-4.206-0.021c-0.775-0.843,0.382-2.913-0.044-3.822c-0.47-1.001-2.993-1.585-2.993-2.646
			c0-1.063,0.48-2.607,0.951-3.609c0.427-0.909,0.804-2.492,1.58-3.334c0.679-0.736,2.281-0.936,3.201-1.611
			c0.815-0.599,1.94-1.009,2.929-1.552c0.896-0.493,2.574,0.547,3.6,0.105c0.946-0.408,0.987-3.333,2.032-3.692
			c0.982-0.338,2.027-0.964,3.089-1.256c1.006-0.277,2.286,0.066,3.356-0.167c1.023-0.223,2.004-1.237,3.08-1.417
			c1.039-0.173,2.21-0.201,3.292-0.332c1.047-0.127,2.451,2.994,3.534,2.908c1.055-0.083,2.07-0.256,3.154-0.299
			c1.059-0.041,2.086-1.117,3.169-1.117s2.234-2.133,3.292-2.092c1.083,0.042,2.153,1.129,3.207,1.212
			c1.083,0.085,1.938,2.298,2.984,2.425c1.081,0.131,2.218-0.465,3.256-0.292c1.078,0.18,2.508-1.433,3.533-1.21
			c1.07,0.232,1.612,2.616,2.618,2.894c1.063,0.292,1.844,1.184,2.826,1.521c1.048,0.36,2.89-1.45,3.837-1.042
			c1.024,0.442,1.39,2.212,2.286,2.704c0.989,0.545,1.402,1.71,2.219,2.31c0.92,0.676,2.209,0.645,2.887,1.381
			c0.776,0.843,1.931,1.386,2.356,2.295C92.472,71.604,94.024,72.81,94.024,73.871z"/>
	</g>
	<linearGradient id="SVGID_4_" gradientUnits="userSpaceOnUse" x1="41.6494" y1="70.5195" x2="64.7168" y2="70.5195">
		<stop  offset="0" style="stop-color:#FBCE73"/>
		<stop  offset="0.4839" style="stop-color:#FF931E"/>
		<stop  offset="1" style="stop-color:#D86D1F"/>
	</linearGradient>
	<path fill="url(#SVGID_4_)" d="M53.557,79.13c0,0-10.889-4.435-11.796-7.044c-0.905-2.608,3.857-7.824,9.754-9.65
		c5.896-1.826,12.246,1.564,13.153,3.13C65.576,67.13,53.557,79.13,53.557,79.13z"/>
	<path fill="#93C65F" d="M55.653,76.989c-2.206-3.38,2.772-4.453,3.909-4.178c1.137,0.274,3.289,2.425,3.289,2.765
		s-2.152,2.604-2.492,2.604C60.021,78.18,56.945,78.968,55.653,76.989z"/>
	<path fill="#719942" d="M57.012,71.555c-2.206-3.378,2.772-4.451,3.909-4.178c1.137,0.275,3.289,2.426,3.289,2.766
		s-2.152,2.604-2.492,2.604C61.379,72.747,58.303,73.534,57.012,71.555z"/>
	<path fill="#A9D873" d="M69.023,75.766c-1.114,3.879-5.182,0.813-5.716-0.226c-0.536-1.041-0.316-4.075-0.06-4.297
		c0.259-0.222,3.378-0.074,3.601,0.184C67.071,71.684,69.676,73.496,69.023,75.766z"/>
	<path fill="#93C65F" d="M69.105,65.734c3.701,1.608,0.136,5.243-0.966,5.639c-1.099,0.396-4.08-0.214-4.267-0.498
		c-0.186-0.285,0.363-3.359,0.647-3.545C64.805,67.144,66.938,64.792,69.105,65.734z"/>
</g>
</svg>
