<?xml version="1.0" encoding="utf-8"?>
<!-- Generator: Adobe Illustrator 16.0.0, SVG Export Plug-In . SVG Version: 6.00 Build 0)  -->
<!DOCTYPE svg PUBLIC "-//W3C//DTD SVG 1.1//EN" "http://www.w3.org/Graphics/SVG/1.1/DTD/svg11.dtd">
<svg version="1.1" id="Layer_1" xmlns="http://www.w3.org/2000/svg" xmlns:xlink="http://www.w3.org/1999/xlink" x="0px" y="0px"
	 width="150px" height="150px" viewBox="0 0 150 150" enable-background="new 0 0 150 150" xml:space="preserve">
<g>
	<path fill="#C5C2AF" d="M147.91,150c0.057-1.179,0.09-2.364,0.09-3.557c0-40.317-32.684-73-73-73s-73,32.683-73,73
		c0,1.193,0.033,2.378,0.09,3.557H147.91z"/>
	<circle fill="#D8D5C2" cx="73.717" cy="73.283" r="58.384"/>
	<path fill="#F36781" d="M98.813,57.76c1.063-1.824,1.688-3.962,1.688-6.26v-4c0-6.627-5.104-12-11.4-12H59.65
		c-6.296,0-11.15,5.373-11.15,12v4c0,2.121,0.502,4.109,1.384,5.838c0.154,0.802,0.396,1.601,0.749,2.382L58.5,77.162v11.29
		c-2.047,2.984-3.25,6.593-3.25,10.485c0,10.252,8.311,18.563,18.563,18.563s18.563-8.311,18.563-18.563
		c0-3.641-1.063-7.027-2.875-9.893V78.406L98.813,57.76z"/>
	<path fill="#FA6481" d="M55.397,98.5c-0.004,0-0.022,0.228-0.022,0.375c0,10.321,8.367,18.656,18.688,18.656
		s18.688-8.32,18.688-18.641c0-0.147-0.019-0.391-0.022-0.391H55.397z"/>
	<polygon fill="#D65073" points="73.167,51.833 69,49.417 55.293,49.917 51.833,52.438 65.124,67.1 73.75,52.438 	"/>
	<path fill="#F18499" d="M74.063,52.899L58.5,77.625V88c0,0-3.855,6.606-3.112,11.378s-0.095,0.805-0.095,0.805l37.437-0.429
		c0,0-0.604-7.773-2.854-10.076L89.5,78.406L74.063,52.899z"/>
	<polygon fill="#EAB0C5" points="73.75,52.438 68.5,63.625 68.5,82 74.25,88.875 80,81.625 78.438,63.625 	"/>
	<polygon fill="#BE576C" points="67.833,81.885 80,81.625 73.916,90.656 	"/>
	<path fill="#963443" d="M71,49c0,1.104-0.896,2-2,2H56c-1.104,0-2-0.896-2-2l0,0c0-1.104,0.896-2,2-2h13C70.104,47,71,47.896,71,49
		L71,49z"/>
	<path fill="none" stroke="#7C2435" stroke-width="3" stroke-linecap="round" stroke-linejoin="round" stroke-miterlimit="10" d="
		M58.74,55.88c0,0,5.442,8.071,9.058-0.89"/>
	<polygon fill="#D65073" points="74.415,51.833 78.582,49.417 92.289,49.917 95.749,52.438 82.458,67.1 73.832,52.438 	"/>
	<path fill="none" stroke="#7C2435" stroke-width="3" stroke-linecap="round" stroke-linejoin="round" stroke-miterlimit="10" d="
		M88.842,55.88c0,0-5.442,8.071-9.058-0.89"/>
	<path fill="#963443" d="M93,49c0,1.104-0.896,2-2,2H78c-1.104,0-2-0.896-2-2l0,0c0-1.104,0.896-2,2-2h13C92.104,47,93,47.896,93,49
		L93,49z"/>
	<polygon fill="#D65073" points="76.142,99.968 55.293,100.383 72.788,104.376 	"/>
	<polygon fill="#D65073" points="70.586,99.968 93.012,100.383 74.193,104.376 	"/>
</g>
</svg>
