<?xml version="1.0" encoding="utf-8"?>
<!-- Generator: Adobe Illustrator 16.0.0, SVG Export Plug-In . SVG Version: 6.00 Build 0)  -->
<!DOCTYPE svg PUBLIC "-//W3C//DTD SVG 1.1//EN" "http://www.w3.org/Graphics/SVG/1.1/DTD/svg11.dtd">
<svg version="1.1" id="Layer_1" xmlns="http://www.w3.org/2000/svg" xmlns:xlink="http://www.w3.org/1999/xlink" x="0px" y="0px"
	 width="150px" height="150px" viewBox="0 0 150 150" enable-background="new 0 0 150 150" xml:space="preserve">
<g>
	<radialGradient id="SVGID_1_" cx="47.4854" cy="67.1182" r="41.8996" gradientUnits="userSpaceOnUse">
		<stop  offset="0.4839" style="stop-color:#FCF6E6"/>
		<stop  offset="1" style="stop-color:#AD9772"/>
	</radialGradient>
	<path fill="url(#SVGID_1_)" d="M11.729,94.778c3.046,7.532,9.023,11.479,30.681,11.556c30.078-1.204,35.492-1.055,39.704-2.633
		c4.211-1.578,9.023-4.219,9.926-10.568c0.902-6.351,0.302-18.001-3.91-28.117c-4.211-10.116-19.852-27.563-28.575-30.57
		c-8.723-3.008-11.73-3.609-18.949-1.805S22.67,48.922,18.045,59.712C13.421,70.502,8.684,87.247,11.729,94.778z"/>
	<path fill="#141611" d="M37.814,106.334l31.271-0.435c0,0,3.3-0.03,4.653-6.234s1.156-25.666,1.156-25.666H42.409l-0.339,23.01
		C42.07,97.009,41.779,103.368,37.814,106.334z"/>
	<path fill="#AD9772" d="M46.852,41.418c0,0,10.485,1.594,13.455-6.685l-4.061-1.396L46.852,41.418z"/>
	<circle fill="#C1272D" cx="48.275" cy="33.577" r="7.971"/>
	<radialGradient id="SVGID_2_" cx="44.332" cy="29.7573" r="1.7476" gradientUnits="userSpaceOnUse">
		<stop  offset="0.4839" style="stop-color:#FCF6E6"/>
		<stop  offset="1" style="stop-color:#AD9772"/>
	</radialGradient>
	<circle fill="url(#SVGID_2_)" cx="44.496" cy="29.839" r="1.635"/>
</g>
<g>
	<path fill="#D5A45F" d="M51,119.528c3.375,8.347,10,12.722,34,12.806c33.333-1.334,39.333-1.169,44-2.918s10-4.675,11-11.712
		s0.334-19.948-4.333-31.159S113.667,56,104,52.667s-13-4-21-2S63.125,68.71,58,80.668C52.875,92.625,47.625,111.182,51,119.528z"/>
	
		<radialGradient id="SVGID_3_" cx="98.7266" cy="93.3574" r="72.3945" gradientTransform="matrix(0.9739 0 0 1.0789 4.2211 -10.4355)" gradientUnits="userSpaceOnUse">
		<stop  offset="0.4839" style="stop-color:#FCF6E6"/>
		<stop  offset="1" style="stop-color:#AD9772"/>
	</radialGradient>
	<path fill="url(#SVGID_3_)" d="M62.189,122.071c2.917,7.992,8.644,12.183,29.39,12.263c28.814-1.277,33.999-1.119,38.034-2.794
		c4.034-1.676,8.644-4.477,9.508-11.215c0.864-6.74,0.29-19.104-3.744-29.839c-4.034-10.735-19.019-29.25-27.374-32.443
		c-8.357-3.192-11.237-3.831-18.152-1.915c-6.916,1.915-17.181,17.278-21.609,28.729C63.81,96.308,59.271,114.078,62.189,122.071z"
		/>
	<path fill="#141611" d="M79.908,134.334l34.654-0.481c0,0,3.656-0.034,5.156-6.909S121,98.5,121,98.5H85L84.625,124
		C84.625,124,84.302,131.047,79.908,134.334z"/>
	<g>
		<g>
			<path fill="#6D492F" d="M52,108.5c1.935,0,1.935-3,0-3S50.065,108.5,52,108.5L52,108.5z"/>
		</g>
	</g>
	<g>
		<g>
			<path fill="#6D492F" d="M56.5,100.334c1.935,0,1.935-3,0-3S54.565,100.334,56.5,100.334L56.5,100.334z"/>
		</g>
	</g>
	<g>
		<g>
			<path fill="#6D492F" d="M65.333,83.667c1.935,0,1.935-3,0-3S63.398,83.667,65.333,83.667L65.333,83.667z"/>
		</g>
	</g>
	<g>
		<g>
			<path fill="#6D492F" d="M60,93.167c1.935,0,1.935-3,0-3S58.065,93.167,60,93.167L60,93.167z"/>
		</g>
	</g>
	<g>
		<g>
			<path fill="#6D492F" d="M57.833,90.167c1.935,0,1.935-3,0-3S55.898,90.167,57.833,90.167L57.833,90.167z"/>
		</g>
	</g>
	<g>
		<g>
			<path fill="#6D492F" d="M67.833,74.667c1.935,0,1.935-3,0-3S65.898,74.667,67.833,74.667L67.833,74.667z"/>
		</g>
	</g>
	<g>
		<g>
			<path fill="#6D492F" d="M53.333,123.667c1.935,0,1.935-3,0-3S51.398,123.667,53.333,123.667L53.333,123.667z"/>
		</g>
	</g>
	<g>
		<g>
			<path fill="#6D492F" d="M61.333,125.667c1.935,0,1.935-3,0-3S59.398,125.667,61.333,125.667L61.333,125.667z"/>
		</g>
	</g>
	<g>
		<g>
			<path fill="#6D492F" d="M53.167,112.334c1.935,0,1.935-3,0-3S51.232,112.334,53.167,112.334L53.167,112.334z"/>
		</g>
	</g>
	<g>
		<g>
			<path fill="#6D492F" d="M58.667,110.667c1.935,0,1.935-3,0-3S56.732,110.667,58.667,110.667L58.667,110.667z"/>
		</g>
	</g>
	<g>
		<g>
			<path fill="#6D492F" d="M78,71.5c0,0.056,0,0.111,0,0.167c0,1.935,3,1.935,3,0c0-0.056,0-0.111,0-0.167
				C81,69.565,78,69.565,78,71.5L78,71.5z"/>
		</g>
	</g>
	<g>
		<g>
			<path fill="#6D492F" d="M73.833,69.833c1.935,0,1.935-3,0-3S71.898,69.833,73.833,69.833L73.833,69.833z"/>
		</g>
	</g>
	<g>
		<g>
			<path fill="#6D492F" d="M65,104.334c1.935,0,1.935-3,0-3S63.065,104.334,65,104.334L65,104.334z"/>
		</g>
	</g>
	<g>
		<g>
			<path fill="#6D492F" d="M85.5,54.667c1.935,0,1.935-3,0-3S83.565,54.667,85.5,54.667L85.5,54.667z"/>
		</g>
	</g>
	<g>
		<g>
			<path fill="#6D492F" d="M76,58.833c1.935,0,1.935-3,0-3S74.065,58.833,76,58.833L76,58.833z"/>
		</g>
	</g>
	<g>
		<g>
			<path fill="#6D492F" d="M81.667,62c1.935,0,1.935-3,0-3S79.732,62,81.667,62L81.667,62z"/>
		</g>
	</g>
	<g>
		<g>
			<path fill="#6D492F" d="M94.833,53.333c1.935,0,1.935-3,0-3S92.898,53.333,94.833,53.333L94.833,53.333z"/>
		</g>
	</g>
	<g>
		<g>
			<path fill="#6D492F" d="M103.833,59.333c1.935,0,1.935-3,0-3S101.898,59.333,103.833,59.333L103.833,59.333z"/>
		</g>
	</g>
	<g>
		<g>
			<path fill="#6D492F" d="M111.833,59.667c1.935,0,1.935-3,0-3S109.898,59.667,111.833,59.667L111.833,59.667z"/>
		</g>
	</g>
	<g>
		<g>
			<path fill="#6D492F" d="M134.833,85.667c1.935,0,1.935-3,0-3S132.898,85.667,134.833,85.667L134.833,85.667z"/>
		</g>
	</g>
	<g>
		<g>
			<path fill="#6D492F" d="M125.5,76.167c1.935,0,1.935-3,0-3S123.565,76.167,125.5,76.167L125.5,76.167z"/>
		</g>
	</g>
	<g>
		<g>
			<path fill="#6D492F" d="M61.5,80c1.935,0,1.935-3,0-3S59.565,80,61.5,80L61.5,80z"/>
		</g>
	</g>
	<g>
		<g>
			<path fill="#6D492F" d="M65.667,69.667c1.935,0,1.935-3,0-3S63.732,69.667,65.667,69.667L65.667,69.667z"/>
		</g>
	</g>
	<g>
		<g>
			<path fill="#6D492F" d="M71.667,65.333c1.935,0,1.935-3,0-3S69.732,65.333,71.667,65.333L71.667,65.333z"/>
		</g>
	</g>
	<g>
		<g>
			<path fill="#EEC38C" d="M58.667,116.333c1.935,0,1.935-3,0-3S56.732,116.333,58.667,116.333L58.667,116.333z"/>
		</g>
	</g>
	<g>
		<g>
			<path fill="#EEC38C" d="M51.667,119c1.935,0,1.935-3,0-3S49.732,119,51.667,119L51.667,119z"/>
		</g>
	</g>
	<g>
		<g>
			<path fill="#EEC38C" d="M57.167,105.833c1.935,0,1.935-3,0-3S55.232,105.833,57.167,105.833L57.167,105.833z"/>
		</g>
	</g>
	<g>
		<g>
			<path fill="#EEC38C" d="M54.333,103.167c1.935,0,1.935-3,0-3S52.398,103.167,54.333,103.167L54.333,103.167z"/>
		</g>
	</g>
	<g>
		<g>
			<path fill="#EEC38C" d="M57.667,96.5c1.935,0,1.935-3,0-3S55.732,96.5,57.667,96.5L57.667,96.5z"/>
		</g>
	</g>
	<g>
		<g>
			<path fill="#EEC38C" d="M59,85.833c1.935,0,1.935-3,0-3S57.065,85.833,59,85.833L59,85.833z"/>
		</g>
	</g>
	<g>
		<g>
			<path fill="#EEC38C" d="M68,94.5c1.935,0,1.935-3,0-3S66.065,94.5,68,94.5L68,94.5z"/>
		</g>
	</g>
	<g>
		<g>
			<path fill="#EEC38C" d="M62.167,101.167c1.935,0,1.935-3,0-3S60.232,101.167,62.167,101.167L62.167,101.167z"/>
		</g>
	</g>
	<g>
		<g>
			<path fill="#EEC38C" d="M64.167,111.833c1.935,0,1.935-3,0-3S62.232,111.833,64.167,111.833L64.167,111.833z"/>
		</g>
	</g>
	<g>
		<g>
			<path fill="#EEC38C" d="M63.667,122.167c1.935,0,1.935-3,0-3S61.732,122.167,63.667,122.167L63.667,122.167z"/>
		</g>
	</g>
	<g>
		<g>
			<path fill="#EEC38C" d="M68.333,81.667c1.935,0,1.935-3,0-3S66.398,81.667,68.333,81.667L68.333,81.667z"/>
		</g>
	</g>
	<g>
		<g>
			<path fill="#EEC38C" d="M62.667,90c-0.084-0.027-0.17-0.04-0.257-0.038c0.649,0.501,1.679,0.1,2.052-0.538
				c0.453-0.773,0.108-1.554-0.538-2.052c-0.359-0.277-0.813-0.362-1.257-0.372c-0.817-0.018-1.5,0.695-1.5,1.5
				C61.167,89.331,61.85,89.982,62.667,90L62.667,90z"/>
		</g>
	</g>
	<g>
		<g>
			<path fill="#EEC38C" d="M64.5,96c1.935,0,1.935-3,0-3S62.565,96,64.5,96L64.5,96z"/>
		</g>
	</g>
	<g>
		<g>
			<path fill="#EEC38C" d="M69.5,85.667c1.935,0,1.935-3,0-3S67.565,85.667,69.5,85.667L69.5,85.667z"/>
		</g>
	</g>
	<g>
		<g>
			<path fill="#EEC38C" d="M64.167,72.333c1.935,0,1.935-3,0-3S62.232,72.333,64.167,72.333L64.167,72.333z"/>
		</g>
	</g>
	<g>
		<g>
			<path fill="#EEC38C" d="M73.833,67.5c1.935,0,1.935-3,0-3S71.898,67.5,73.833,67.5L73.833,67.5z"/>
		</g>
	</g>
	<g>
		<g>
			<path fill="#EEC38C" d="M74.833,74c1.935,0,1.935-3,0-3S72.898,74,74.833,74L74.833,74z"/>
		</g>
	</g>
	<g>
		<g>
			<path fill="#EEC38C" d="M78.667,62.333c1.935,0,1.935-3,0-3S76.732,62.333,78.667,62.333L78.667,62.333z"/>
		</g>
	</g>
	<g>
		<g>
			<path fill="#EEC38C" d="M82.167,55.667c1.935,0,1.935-3,0-3S80.232,55.667,82.167,55.667L82.167,55.667z"/>
		</g>
	</g>
	<g>
		<g>
			<path fill="#EEC38C" d="M86.833,59.833c1.935,0,1.935-3,0-3S84.898,59.833,86.833,59.833L86.833,59.833z"/>
		</g>
	</g>
	<g>
		<g>
			<path fill="#EEC38C" d="M90.333,52.833c1.935,0,1.935-3,0-3S88.398,52.833,90.333,52.833L90.333,52.833z"/>
		</g>
	</g>
	<g>
		<g>
			<path fill="#EEC38C" d="M100.333,54.833c1.935,0,1.935-3,0-3S98.398,54.833,100.333,54.833L100.333,54.833z"/>
		</g>
	</g>
	<g>
		<g>
			<path fill="#EEC38C" d="M105.167,55.667c1.935,0,1.935-3,0-3S103.232,55.667,105.167,55.667L105.167,55.667z"/>
		</g>
	</g>
	<g>
		<g>
			<path fill="#EEC38C" d="M112.5,66.333c1.935,0,1.935-3,0-3S110.565,66.333,112.5,66.333L112.5,66.333z"/>
		</g>
	</g>
	<g>
		<g>
			<path fill="#EEC38C" d="M118,66.333c1.935,0,1.935-3,0-3S116.065,66.333,118,66.333L118,66.333z"/>
		</g>
	</g>
	<g>
		<g>
			<path fill="#EEC38C" d="M120.333,69.167c1.935,0,1.935-3,0-3S118.398,69.167,120.333,69.167L120.333,69.167z"/>
		</g>
	</g>
	<g>
		<g>
			<path fill="#EEC38C" d="M129.667,86.333c1.935,0,1.935-3,0-3S127.732,86.333,129.667,86.333L129.667,86.333z"/>
		</g>
	</g>
	<g>
		<g>
			<path fill="#EEC38C" d="M136.167,86c1.935,0,1.935-3,0-3S134.232,86,136.167,86L136.167,86z"/>
		</g>
	</g>
	<g>
		<g>
			<path fill="#EEC38C" d="M137.667,92.5c1.935,0,1.935-3,0-3S135.732,92.5,137.667,92.5L137.667,92.5z"/>
		</g>
	</g>
	<g>
		<g>
			<path fill="#EEC38C" d="M57,122c1.935,0,1.935-3,0-3S55.065,122,57,122L57,122z"/>
		</g>
	</g>
	<g>
		<g>
			<path fill="#C77851" d="M58,113.834c1.935,0,1.935-3,0-3S56.065,113.834,58,113.834L58,113.834z"/>
		</g>
	</g>
	<g>
		<g>
			<path fill="#C77851" d="M54.833,115.334c0.056,0,0.111,0,0.167,0c1.935,0,1.935-3,0-3c-0.056,0-0.111,0-0.167,0
				C52.898,112.334,52.898,115.334,54.833,115.334L54.833,115.334z"/>
		</g>
	</g>
	<g>
		<g>
			<path fill="#C77851" d="M62.666,128c1.935,0,1.935-3,0-3S60.731,128,62.666,128L62.666,128z"/>
		</g>
	</g>
	<g>
		<g>
			<path fill="#C77851" d="M52,109.667c1.935,0,1.935-3,0-3S50.065,109.667,52,109.667L52,109.667z"/>
		</g>
	</g>
	<g>
		<g>
			<path fill="#C77851" d="M61.5,99.667c1.935,0,1.935-3,0-3S59.565,99.667,61.5,99.667L61.5,99.667z"/>
		</g>
	</g>
	<g>
		<g>
			<path fill="#C77851" d="M59.833,103.5c1.935,0,1.935-3,0-3S57.898,103.5,59.833,103.5L59.833,103.5z"/>
		</g>
	</g>
	<g>
		<g>
			<path fill="#C77851" d="M55.666,97.5c1.935,0,1.935-3,0-3S53.731,97.5,55.666,97.5L55.666,97.5z"/>
		</g>
	</g>
	<g>
		<g>
			<path fill="#C77851" d="M63.333,82.334c1.935,0,1.935-3,0-3S61.398,82.334,63.333,82.334L63.333,82.334z"/>
		</g>
	</g>
	<g>
		<g>
			<path fill="#C77851" d="M60.166,84.834c1.935,0,1.935-3,0-3S58.231,84.834,60.166,84.834L60.166,84.834z"/>
		</g>
	</g>
	<g>
		<g>
			<path fill="#C77851" d="M66.166,72.5c1.935,0,1.935-3,0-3S64.231,72.5,66.166,72.5L66.166,72.5z"/>
		</g>
	</g>
	<g>
		<g>
			<path fill="#C77851" d="M71,76.667c1.935,0,1.935-3,0-3S69.065,76.667,71,76.667L71,76.667z"/>
		</g>
	</g>
	<g>
		<g>
			<path fill="#C77851" d="M71.333,61.667c1.935,0,1.935-3,0-3S69.398,61.667,71.333,61.667L71.333,61.667z"/>
		</g>
	</g>
	<g>
		<g>
			<path fill="#C77851" d="M77.333,63.167c1.935,0,1.935-3,0-3S75.398,63.167,77.333,63.167L77.333,63.167z"/>
		</g>
	</g>
	<g>
		<g>
			<path fill="#C77851" d="M82,56c1.935,0,1.935-3,0-3S80.065,56,82,56L82,56z"/>
		</g>
	</g>
	<g>
		<g>
			<path fill="#C77851" d="M99.5,56.5c1.935,0,1.935-3,0-3S97.565,56.5,99.5,56.5L99.5,56.5z"/>
		</g>
	</g>
	<g>
		<g>
			<path fill="#C77851" d="M125.5,72.5c1.935,0,1.935-3,0-3S123.565,72.5,125.5,72.5L125.5,72.5z"/>
		</g>
	</g>
	<g>
		<g>
			<path fill="#C77851" d="M139.333,104.667c1.935,0,1.935-3,0-3S137.398,104.667,139.333,104.667L139.333,104.667z"/>
		</g>
	</g>
	<g>
		<g>
			<path fill="#C77851" d="M131.166,86.667c1.935,0,1.935-3,0-3S129.231,86.667,131.166,86.667L131.166,86.667z"/>
		</g>
	</g>
	<g>
		<g>
			<path fill="#C77851" d="M71,81.834c1.935,0,1.935-3,0-3S69.065,81.834,71,81.834L71,81.834z"/>
		</g>
	</g>
</g>
</svg>
