<?xml version="1.0" encoding="utf-8"?>
<!-- Generator: Adobe Illustrator 16.0.0, SVG Export Plug-In . SVG Version: 6.00 Build 0)  -->
<!DOCTYPE svg PUBLIC "-//W3C//DTD SVG 1.1//EN" "http://www.w3.org/Graphics/SVG/1.1/DTD/svg11.dtd">
<svg version="1.1" id="Layer_1" xmlns="http://www.w3.org/2000/svg" xmlns:xlink="http://www.w3.org/1999/xlink" x="0px" y="0px"
	 width="150px" height="150px" viewBox="0 0 150 150" enable-background="new 0 0 150 150" xml:space="preserve">
<g>
	<linearGradient id="SVGID_1_" gradientUnits="userSpaceOnUse" x1="51.8262" y1="125.4688" x2="91.6422" y2="126.8156">
		<stop  offset="0" style="stop-color:#F2F2F2"/>
		<stop  offset="1" style="stop-color:#8E8F94"/>
	</linearGradient>
	<path fill="url(#SVGID_1_)" d="M103.743,114H46v10.851c0,0.48,0.212,0.969,0.212,1.465c0,7.094,13.076,13.132,28.958,13.132
		c15.448,0,28.221-6.063,28.895-11.814L103.743,114z"/>
	<g>
		<linearGradient id="SVGID_2_" gradientUnits="userSpaceOnUse" x1="28.8359" y1="46.1348" x2="119.3184" y2="105.7538">
			<stop  offset="0" style="stop-color:#F2F2F2"/>
			<stop  offset="1" style="stop-color:#8E8F94"/>
		</linearGradient>
		<path fill="url(#SVGID_2_)" d="M75.083,37.365c-38.062,0-68.917,10.686-68.917,23.868c0.575,7.19-0.192,30.193,18.211,47.829
			c18.403,17.637,52.005,15.721,52.005,15.721c41.844,0.575,54.389-20.514,60.524-31.631C143.042,82.033,144,61.233,144,61.233
			C144,48.051,113.145,37.365,75.083,37.365z"/>
		<ellipse fill="#8E8F94" cx="75.946" cy="62" rx="64.795" ry="20.798"/>
		<linearGradient id="SVGID_3_" gradientUnits="userSpaceOnUse" x1="4.3584" y1="73.4653" x2="138.9072" y2="73.4653">
			<stop  offset="0" style="stop-color:#FFFFFF;stop-opacity:0"/>
			<stop  offset="0.1774" style="stop-color:#FFFFFF;stop-opacity:0.1774"/>
			<stop  offset="0.3118" style="stop-color:#FFFFFF"/>
			<stop  offset="1" style="stop-color:#8E8F94;stop-opacity:0"/>
		</linearGradient>
		<path fill="none" stroke="url(#SVGID_3_)" stroke-width="4" stroke-linecap="round" stroke-miterlimit="10" d="M6.358,61.712
			c4.601,25.687,106.011,32.973,130.549,8.434"/>
		
			<line fill="none" stroke="#B2C7F2" stroke-width="2" stroke-linecap="round" stroke-miterlimit="10" x1="15" y1="77" x2="15" y2="91"/>
		
			<line fill="none" stroke="#B2C7F2" stroke-width="2" stroke-linecap="round" stroke-miterlimit="10" x1="20" y1="79" x2="20" y2="93"/>
		
			<line fill="none" stroke="#B2C7F2" stroke-width="2" stroke-linecap="round" stroke-miterlimit="10" x1="24" y1="81" x2="24" y2="95"/>
		
			<line fill="none" stroke="#B2C7F2" stroke-width="2" stroke-linecap="round" stroke-miterlimit="10" x1="29" y1="84" x2="29" y2="98"/>
		
			<line fill="none" stroke="#82A4E0" stroke-width="2" stroke-linecap="round" stroke-miterlimit="10" x1="34" y1="85" x2="34" y2="99"/>
		
			<line fill="none" stroke="#82A4E0" stroke-width="2" stroke-linecap="round" stroke-miterlimit="10" x1="38" y1="86" x2="38" y2="100"/>
		
			<line fill="none" stroke="#82A4E0" stroke-width="2" stroke-linecap="round" stroke-miterlimit="10" x1="43" y1="86" x2="43" y2="100"/>
		
			<line fill="none" stroke="#82A4E0" stroke-width="2" stroke-linecap="round" stroke-miterlimit="10" x1="47" y1="87" x2="47" y2="101"/>
		
			<line fill="none" stroke="#82A4E0" stroke-width="2" stroke-linecap="round" stroke-miterlimit="10" x1="52" y1="88" x2="52" y2="102"/>
		
			<line fill="none" stroke="#4C7FC9" stroke-width="2" stroke-linecap="round" stroke-miterlimit="10" x1="57" y1="88" x2="57" y2="102"/>
		
			<line fill="none" stroke="#4C7FC9" stroke-width="2" stroke-linecap="round" stroke-miterlimit="10" x1="61" y1="90" x2="61" y2="103"/>
		
			<line fill="none" stroke="#4C7FC9" stroke-width="2" stroke-linecap="round" stroke-miterlimit="10" x1="66" y1="90" x2="66" y2="103"/>
		
			<line fill="none" stroke="#4C7FC9" stroke-width="2" stroke-linecap="round" stroke-miterlimit="10" x1="70" y1="90" x2="70" y2="103"/>
		
			<line fill="none" stroke="#4C7FC9" stroke-width="2" stroke-linecap="round" stroke-miterlimit="10" x1="75" y1="90" x2="75" y2="103"/>
		
			<line fill="none" stroke="#286BBC" stroke-width="2" stroke-linecap="round" stroke-miterlimit="10" x1="80" y1="90" x2="80" y2="103"/>
		
			<line fill="none" stroke="#286BBC" stroke-width="2" stroke-linecap="round" stroke-miterlimit="10" x1="84" y1="90" x2="84" y2="103"/>
		
			<line fill="none" stroke="#286BBC" stroke-width="2" stroke-linecap="round" stroke-miterlimit="10" x1="89" y1="90" x2="89" y2="103"/>
		
			<line fill="none" stroke="#286BBC" stroke-width="2" stroke-linecap="round" stroke-miterlimit="10" x1="93" y1="88" x2="93" y2="102"/>
		
			<line fill="none" stroke="#286BBC" stroke-width="2" stroke-linecap="round" stroke-miterlimit="10" x1="98" y1="88" x2="98" y2="102"/>
		
			<line fill="none" stroke="#0C5EAF" stroke-width="2" stroke-linecap="round" stroke-miterlimit="10" x1="103" y1="88" x2="103" y2="102"/>
		
			<line fill="none" stroke="#0C5EAF" stroke-width="2" stroke-linecap="round" stroke-miterlimit="10" x1="107" y1="87" x2="107" y2="101"/>
		
			<line fill="none" stroke="#0C5EAF" stroke-width="2" stroke-linecap="round" stroke-miterlimit="10" x1="112" y1="86" x2="112" y2="100"/>
		
			<line fill="none" stroke="#0C5EAF" stroke-width="2" stroke-linecap="round" stroke-miterlimit="10" x1="116" y1="85" x2="116" y2="99"/>
		
			<line fill="none" stroke="#0C5EAF" stroke-width="2" stroke-linecap="round" stroke-miterlimit="10" x1="121" y1="84" x2="121" y2="98"/>
		
			<line fill="none" stroke="#0C5EAF" stroke-width="2" stroke-linecap="round" stroke-miterlimit="10" x1="126" y1="83" x2="126" y2="96"/>
		
			<line fill="none" stroke="#0C5EAF" stroke-width="2" stroke-linecap="round" stroke-miterlimit="10" x1="130" y1="81" x2="130" y2="95"/>
		
			<line fill="none" stroke="#0C5EAF" stroke-width="2" stroke-linecap="round" stroke-miterlimit="10" x1="135" y1="79" x2="135" y2="93"/>
		<path fill="#0C5EAF" d="M143.317,71.169c-0.103-0.03-0.13-0.063-0.243-0.063c-0.635,0-1.075,0.514-1.075,1.149v7.279
			C142,77.04,142.932,74.243,143.317,71.169z"/>
		<path fill="#0C5EAF" d="M141,83.94v-7.084c0-0.636-0.865-1.15-1.5-1.15s-1.5,0.515-1.5,1.15v13.626
			C139,88.814,140,86.624,141,83.94z"/>
		<path fill="#B2C7F2" d="M8,80.001V69.955c0-0.636-0.377-1.15-1.013-1.15c-0.217,0-0.478,0.076-0.65,0.181
			C6.63,72.127,7,75.962,8,80.001z"/>
		<path fill="#B2C7F2" d="M10.663,88.325C11.218,88.242,12,87.785,12,87.208V73.405c0-0.636-0.865-1.15-1.5-1.15
			c-0.636,0-1.5,0.515-1.5,1.15v11.006C10,85.719,10.176,87.028,10.663,88.325z"/>
	</g>
	<radialGradient id="SVGID_4_" cx="62.8335" cy="14.167" r="84.5843" gradientUnits="userSpaceOnUse">
		<stop  offset="0.4839" style="stop-color:#FCF6E6"/>
		<stop  offset="1" style="stop-color:#AD9772"/>
	</radialGradient>
	<path fill="url(#SVGID_4_)" d="M15.177,69.23c0,0,12.508-36.945,34.938-38.958c22.429-2.013,40.833-4.745,45.721-1.869
		c4.889,2.875,12.863,0.108,21.279,8.339c8.416,8.231,19.793,32.488,19.793,32.488s-17.493,13.058-59.044,13.864
		C40.146,83.827,18.555,73.046,15.177,69.23"/>
	<path fill="#FFFCF3" d="M39.643,35.408c-1.17-2.776,9.75-3.597,12.873-3.124c3.124,0.474,4.733,0.568,4.07,1.988
		c-0.663,1.42-5.207,2.083-7.667,2.461C46.458,37.111,40.4,37.206,39.643,35.408z"/>
	<path fill="#FFFCF3" d="M94.853,35.408c-1.17-2.776,9.75-3.597,12.873-3.124c3.124,0.474,4.733,0.568,4.07,1.988
		c-0.663,1.42-5.207,2.083-7.667,2.461C101.668,37.111,95.61,37.206,94.853,35.408z"/>
	<path fill="#FFFCF3" d="M58.797,68.425c-2.727-0.948,1.141-7.696,2.82-9.214c1.679-1.517,2.422-2.386,3.293-1.178
		s-0.479,4.206-1.194,5.84C63,65.505,60.563,69.038,58.797,68.425z"/>
	<path fill="#FFFCF3" d="M28.892,48.872c-2.727-0.948,1.141-7.697,2.82-9.215c1.679-1.517,2.422-2.386,3.293-1.178
		s-0.479,4.206-1.194,5.84C33.095,45.952,30.657,49.485,28.892,48.872z"/>
	<path fill="#E6D9C8" d="M32.552,55.042c-0.458-2.85,7.318-2.643,9.45-1.885c2.131,0.759,3.25,1.002,2.598,2.342
		c-0.651,1.34-3.93,1.572-5.708,1.717C37.115,57.359,32.849,56.888,32.552,55.042z"/>
	<path fill="#FFFCF3" d="M95.054,58.906c-1.5,2.466-7.284-2.735-8.416-4.696c-1.129-1.96-1.823-2.87-0.458-3.467
		c1.365-0.597,4.01,1.353,5.458,2.396C93.084,54.183,96.025,57.309,95.054,58.906z"/>
	<path fill="#E6D9C8" d="M113.457,61.207c-1.5,2.466-7.284-2.735-8.415-4.696c-1.13-1.96-1.823-2.87-0.458-3.468
		c1.365-0.597,4.011,1.353,5.458,2.396C111.487,56.483,114.428,59.609,113.457,61.207z"/>
	<path fill="#FFFCF3" d="M62.667,43.49c1.484,2.476-5.811,5.175-8.073,5.264c-2.26,0.088-3.388,0.278-3.282-1.208
		c0.107-1.486,3.063-2.92,4.661-3.716C57.569,43.036,61.705,41.888,62.667,43.49z"/>
	<path fill="#FFFCF3" d="M37.6,73.727c-2.056,2.026-6.397-4.427-7.018-6.604c-0.618-2.176-1.068-3.228,0.4-3.474
		c1.47-0.247,3.561,2.289,4.71,3.653C36.841,68.666,38.931,72.414,37.6,73.727z"/>
	<path fill="#FFFCF3" d="M54.458,49.808c2.661,1.117-1.62,7.611-3.39,9.021c-1.77,1.409-2.567,2.229-3.361,0.969
		c-0.793-1.261,0.74-4.167,1.556-5.754C50.081,52.459,52.733,49.086,54.458,49.808z"/>
	<path fill="#FFFCF3" d="M30.763,48.937c2.107,1.974-4.169,6.569-6.32,7.275c-2.149,0.704-3.182,1.196-3.487-0.262
		c-0.305-1.458,2.146-3.648,3.463-4.851C25.736,49.897,29.398,47.659,30.763,48.937z"/>
	<path fill="#FFFCF3" d="M67.718,36.385c0.533,2.837-7.245,2.837-9.397,2.135c-2.15-0.703-3.274-0.916-2.659-2.272
		c0.616-1.357,3.887-1.675,5.661-1.867C63.096,34.19,67.373,34.548,67.718,36.385z"/>
	<path fill="#FFFCF3" d="M61.967,70.892c0.533,2.837-7.245,2.837-9.398,2.134c-2.15-0.701-3.274-0.914-2.659-2.271
		c0.616-1.357,3.887-1.676,5.661-1.868C57.345,68.697,61.621,69.054,61.967,70.892z"/>
	<path fill="#E6D9C8" d="M109.125,70.892c0.533,2.837-7.245,2.837-9.398,2.134c-2.15-0.701-3.274-0.914-2.659-2.271
		c0.616-1.357,3.887-1.676,5.661-1.868C104.503,68.697,108.78,69.054,109.125,70.892z"/>
	<path fill="#FFFCF3" d="M34.226,59.451c1.034,2.695-6.619,4.091-8.862,3.787c-2.241-0.305-3.385-0.313-3.023-1.758
		s3.523-2.346,5.233-2.853C29.284,58.121,33.556,57.706,34.226,59.451z"/>
	<path fill="#FFFCF3" d="M77.905,67.922c-0.245,2.877-7.74,0.797-9.626-0.455c-1.884-1.251-2.911-1.757-1.955-2.9
		c0.956-1.142,4.194-0.575,5.954-0.286C74.038,64.571,78.063,66.06,77.905,67.922z"/>
	<path fill="#E6D9C8" d="M85.957,78.273c-0.245,2.877-7.74,0.798-9.626-0.455c-1.884-1.251-2.911-1.757-1.955-2.9
		c0.956-1.142,4.193-0.574,5.954-0.286C82.089,74.923,86.115,76.411,85.957,78.273z"/>
	<path fill="#E6D9C8" d="M84.806,34.566c-0.245,2.876-7.74,0.796-9.626-0.456c-1.884-1.251-2.911-1.757-1.955-2.9
		c0.956-1.142,4.194-0.575,5.954-0.286C80.939,31.215,84.965,32.704,84.806,34.566z"/>
	<path fill="#FFFCF3" d="M128.514,55.27c-0.245,2.876-7.74,0.796-9.626-0.456c-1.884-1.251-2.911-1.757-1.955-2.9
		c0.956-1.142,4.193-0.575,5.954-0.286C124.647,51.919,128.673,53.408,128.514,55.27z"/>
	<path fill="#FFFCF3" d="M63.069,30.04c0.807,2.771-6.935,3.53-9.145,3.042c-2.209-0.489-3.349-0.591-2.868-2.002
		c0.48-1.41,3.705-2.047,5.451-2.411C58.254,28.306,62.546,28.246,63.069,30.04z"/>
	<path fill="#FFFCF3" d="M101.025,64.546c0.807,2.771-6.934,3.53-9.144,3.042c-2.209-0.489-3.349-0.591-2.869-2.001
		c0.48-1.41,3.705-2.047,5.451-2.411C96.211,62.813,100.503,62.752,101.025,64.546z"/>
	<path fill="#E6D9C8" d="M76.104,35.559c2.699,2.172-5.037,8.431-7.714,9.52c-2.676,1.086-3.956,1.795-4.382,0.058
		c-0.424-1.739,2.585-4.664,4.202-6.268C69.828,37.267,74.355,34.153,76.104,35.559z"/>
	<path fill="#FFFCF3" d="M125.563,65.464c2.699,2.172-5.037,8.432-7.714,9.521c-2.676,1.085-3.956,1.795-4.382,0.057
		c-0.424-1.739,2.585-4.664,4.202-6.267C119.287,67.172,123.814,64.059,125.563,65.464z"/>
	<path fill="#FFFCF3" d="M87.619,38.182c1.198,1.858-4.785,4.093-6.636,4.214c-1.849,0.12-2.773,0.292-2.677-0.847
		c0.097-1.138,2.524-2.304,3.835-2.95C83.452,37.955,86.841,36.979,87.619,38.182z"/>
	<path fill="#FFFCF3" d="M111.773,47.384c1.198,1.858-4.785,4.093-6.636,4.214c-1.849,0.12-2.773,0.292-2.677-0.847
		c0.097-1.138,2.524-2.304,3.835-2.95C107.606,47.156,110.996,46.181,111.773,47.384z"/>
	<path fill="#FFFCF3" d="M94.8,31.832c-0.021,2.211-6.248,0.788-7.86-0.128c-1.61-0.917-2.476-1.281-1.77-2.179
		c0.707-0.897,3.376-0.536,4.825-0.355C91.445,29.351,94.813,30.4,94.8,31.832z"/>
	<path fill="#E6D9C8" d="M130.457,61.737c-0.021,2.211-6.248,0.788-7.86-0.129c-1.61-0.917-2.477-1.281-1.771-2.179
		c0.707-0.897,3.376-0.536,4.826-0.355C127.102,59.256,130.469,60.306,130.457,61.737z"/>
	<path fill="#FFFCF3" d="M120.105,64.038c-0.021,2.211-6.248,0.788-7.86-0.129c-1.61-0.917-2.476-1.281-1.77-2.179
		c0.707-0.897,3.375-0.537,4.825-0.355C116.75,61.557,120.117,62.606,120.105,64.038z"/>
	<path fill="#FFFCF3" d="M93.65,46.784c-0.021,2.211-6.248,0.788-7.86-0.128c-1.61-0.917-2.477-1.281-1.771-2.179
		c0.707-0.897,3.376-0.536,4.826-0.355C90.295,44.304,93.662,45.353,93.65,46.784z"/>
	<path fill="#E6D9C8" d="M82.148,55.986c-0.021,2.211-6.248,0.788-7.86-0.128c-1.61-0.917-2.476-1.281-1.77-2.179
		c0.707-0.897,3.376-0.536,4.825-0.355C78.793,53.505,82.16,54.555,82.148,55.986z"/>
	<path fill="#E6D9C8" d="M47.642,65.188c-0.021,2.211-6.248,0.788-7.86-0.128c-1.61-0.917-2.477-1.281-1.771-2.179
		c0.707-0.897,3.376-0.536,4.826-0.355C44.287,62.707,47.654,63.756,47.642,65.188z"/>
	<path fill="#FFFCF3" d="M31.539,69.788c-0.021,2.211-6.248,0.789-7.86-0.128c-1.61-0.916-2.477-1.281-1.771-2.179
		c0.707-0.897,3.376-0.537,4.826-0.355C28.184,67.308,31.551,68.357,31.539,69.788z"/>
	<path fill="#FFFCF3" d="M31.443,43.164c0.271-2.356,8.077,1.302,10.036,2.834c1.959,1.533,3.026,2.219,2.023,2.938
		c-1.003,0.717-4.376-0.584-6.21-1.277C35.458,46.967,31.267,44.69,31.443,43.164z"/>
	<path fill="#FFFCF3" d="M58.605,52.905c-1.12-2.091,7.379-3.53,9.863-3.386c2.483,0.143,3.751,0.1,3.335,1.261
		c-0.417,1.161-3.93,2.012-5.831,2.489C64.071,53.744,59.329,54.26,58.605,52.905z"/>
	<path fill="#FFFCF3" d="M63.672,33.673c-1.566-1.781,6.381-5.12,8.832-5.546c2.451-0.426,3.675-0.757,3.536,0.469
		c-0.142,1.225-3.368,2.854-5.111,3.751C69.187,33.244,64.688,34.826,63.672,33.673z"/>
	<path fill="#6DA619" d="M76.655,30.287c0,0,1.059-7.883-5.064-10.425l-0.064,1.795c0,0-2.264-3.962-6.221-3.959l-0.467,1.417
		c0,0-3.806-3.307-6.582-2.524c0,0-0.646,3.125,1.409,6.46l-1.812-1.259c0,0,1.666,7.794,5.799,8.509l-1.865,0.602
		C61.789,30.901,68.932,39.435,76.655,30.287z"/>
	<path fill="#E6D9C8" d="M102.756,39.713c0.271-2.356,8.077,1.302,10.036,2.834c1.959,1.533,3.026,2.219,2.023,2.938
		c-1.003,0.717-4.376-0.584-6.21-1.276C106.771,43.517,102.58,41.239,102.756,39.713z"/>
	<path fill="#376400" d="M68.497,31.045c0,0-1.034-6.633,3.875-8.628l0.091,1.506c0,0,1.747-3.271,4.957-3.181l0.409,1.198
		c0,0,3.013-2.688,5.281-1.97c0,0,0.593,2.634-0.999,5.385l1.441-1.016c0,0-1.177,6.498-4.512,7.005l1.525,0.546
		C80.565,31.891,74.964,38.886,68.497,31.045z"/>
</g>
</svg>
