<?xml version="1.0" encoding="utf-8"?>
<!-- Generator: Adobe Illustrator 16.0.0, SVG Export Plug-In . SVG Version: 6.00 Build 0)  -->
<!DOCTYPE svg PUBLIC "-//W3C//DTD SVG 1.1//EN" "http://www.w3.org/Graphics/SVG/1.1/DTD/svg11.dtd">
<svg version="1.1" id="Layer_1" xmlns="http://www.w3.org/2000/svg" xmlns:xlink="http://www.w3.org/1999/xlink" x="0px" y="0px"
	 width="150px" height="150px" viewBox="0 0 150 150" enable-background="new 0 0 150 150" xml:space="preserve">
<g>
	<radialGradient id="SVGID_1_" cx="37.6348" cy="9.5269" r="108.9987" gradientUnits="userSpaceOnUse">
		<stop  offset="0.4839" style="stop-color:#FCF6E6"/>
		<stop  offset="1" style="stop-color:#AD9772"/>
	</radialGradient>
	<path fill="url(#SVGID_1_)" d="M99.639,50.884c3.373,8.206-0.544,17.594-8.749,20.969L48.789,89.162
		c-8.205,3.375-17.594-0.544-20.967-8.749l-0.511-1.238c-3.372-8.207,0.544-17.594,8.75-20.968l42.101-17.309
		c8.205-3.375,17.594,0.543,20.967,8.749L99.639,50.884z"/>
	<linearGradient id="SVGID_2_" gradientUnits="userSpaceOnUse" x1="18.9375" y1="54.8711" x2="104.3125" y2="54.8711">
		<stop  offset="0" style="stop-color:#FBCE73"/>
		<stop  offset="0.4839" style="stop-color:#FF931E"/>
		<stop  offset="1" style="stop-color:#D86D1F"/>
	</linearGradient>
	<path fill="url(#SVGID_2_)" d="M18.938,84.97c0,0,8.938,5.285,22.438-3.613S63.625,62.958,66.5,59.591
		c2.875-3.367,22.625-16.234,26.125-15.753c3.5,0.481,6,5.171,7,6.013s5.25-8.778,4.625-12.145
		c-0.625-3.367-8.875-11.063-13.375-12.146c-4.5-1.082-17.5-4.689-26.625,0c-9.125,4.69-13.625,6.013-17.875,9.5
		s-17.1,12.529-20,21.645C21.19,73,24.063,76.532,18.938,84.97z"/>
	<path opacity="0.5" fill="#603813" d="M92.625,43.838c0,0,2.611-0.24,7,6.013c0,0,1.109,0.165,3.109-4.968
		S98.393,44.641,92.625,43.838z"/>
	<g>
		<path fill="#FFDFC8" d="M24.19,64.698c0,0,0.42,1.439,0.984,3.55c0.292,1.045,0.633,2.265,0.997,3.572
			c0.181,0.649,0.401,1.308,0.608,1.979c0.22,0.667,0.433,1.346,0.684,2.007c0.943,2.67,2.192,5.179,3.59,6.721
			c0.166,0.203,0.344,0.376,0.517,0.538c0.167,0.172,0.328,0.334,0.499,0.461c0.327,0.28,0.638,0.494,0.902,0.67
			c0.263,0.18,0.49,0.285,0.641,0.377c0.153,0.086,0.235,0.132,0.235,0.132s-0.093-0.01-0.266-0.027
			c-0.171-0.03-0.444-0.02-0.763-0.114c-0.322-0.081-0.725-0.18-1.149-0.385c-0.434-0.186-0.916-0.439-1.38-0.793
			c-0.483-0.334-0.968-0.753-1.415-1.249c-0.465-0.483-0.903-1.035-1.301-1.641c-0.395-0.604-0.783-1.242-1.108-1.92
			c-0.328-0.676-0.624-1.378-0.882-2.089c-0.515-1.424-0.881-2.887-1.123-4.268c-0.247-1.38-0.374-2.681-0.416-3.798
			C23.942,66.187,24.19,64.698,24.19,64.698z"/>
	</g>
	<g>
		<path fill="#FFDFC8" d="M31.709,48.224c0,0,0.517,2.307,0.909,5.681c0.211,1.689,0.42,3.646,0.565,5.739
			c0.054,1.048,0.09,2.131,0.124,3.234c0.034,1.104,0.134,2.217,0.24,3.331c0.132,1.108,0.28,2.216,0.481,3.293
			c0.196,1.078,0.426,2.133,0.712,3.131c0.267,1.007,0.614,1.944,0.952,2.832c0.174,0.441,0.376,0.853,0.555,1.263
			c0.212,0.391,0.418,0.768,0.614,1.13c0.229,0.339,0.439,0.675,0.658,0.981c0.237,0.29,0.463,0.565,0.675,0.824
			c0.474,0.469,0.895,0.88,1.295,1.152c0.373,0.317,0.727,0.468,0.95,0.605c0.229,0.129,0.352,0.198,0.352,0.198l-0.107,0.279
			c0,0-0.136-0.052-0.391-0.148c-0.25-0.106-0.648-0.214-1.087-0.485c-0.219-0.132-0.488-0.248-0.737-0.434
			c-0.25-0.188-0.521-0.392-0.81-0.608c-0.263-0.249-0.542-0.514-0.836-0.792c-0.274-0.297-0.545-0.625-0.838-0.963
			c-0.26-0.36-0.53-0.735-0.811-1.124c-0.244-0.407-0.518-0.824-0.762-1.269c-0.486-0.89-0.93-1.864-1.322-2.891
			c-0.405-1.024-0.756-2.104-1.072-3.21c-0.321-1.105-0.59-2.24-0.841-3.379c-0.249-1.138-0.46-2.284-0.665-3.412
			c-0.204-1.128-0.366-2.246-0.448-3.331c-0.073-1.086-0.092-2.137-0.044-3.133c0.028-0.996,0.1-1.936,0.196-2.802
			c0.361-3.467,1.192-5.712,1.192-5.712L31.709,48.224z"/>
	</g>
	<g>
		<path fill="#FFDFC8" d="M41.613,38.699c0,0,0.301,0.56,0.724,1.543c0.216,0.491,0.45,1.089,0.701,1.775
			c0.242,0.687,0.526,1.464,0.788,2.314c0.269,0.85,0.512,1.777,0.768,2.756c0.263,0.979,0.485,2.018,0.67,3.101
			c0.32,2.175,0.479,4.525,0.793,6.857c0.152,1.166,0.37,2.315,0.549,3.458c0.179,1.144,0.354,2.269,0.523,3.358
			c0.428,2.152,0.792,4.179,1.11,5.921c0.417,1.714,0.765,3.143,1.008,4.143c0.236,1.01,0.372,1.587,0.372,1.587l-0.373,0.144
			c0,0-0.987-2.15-2.373-5.468c-0.601-1.679-1.309-3.645-2.028-5.77c-0.314-1.072-0.639-2.179-0.969-3.305
			c-0.313-1.13-0.667-2.274-0.954-3.429c-0.293-1.154-0.615-2.303-0.941-3.434c-0.337-1.129-0.628-2.25-0.822-3.348
			c-0.376-2.2-0.515-4.288-0.508-6.091c0.002-1.801,0.107-3.318,0.265-4.385c0.138-1.064,0.302-1.677,0.302-1.677L41.613,38.699z"/>
	</g>
	<g>
		<path fill="#FFDFC8" d="M52.625,31.162c0,0,0.115,0.088,0.329,0.252c0.22,0.159,0.504,0.429,0.862,0.78
			c0.358,0.351,0.794,0.798,1.214,1.331c0.427,0.535,0.901,1.148,1.388,1.838c0.46,0.699,0.908,1.482,1.364,2.324
			c0.473,0.835,0.896,1.748,1.229,2.729c0.334,0.982,0.62,2.018,0.881,3.075s0.43,2.154,0.683,3.224
			c0.237,1.072,0.476,2.143,0.709,3.198c0.155,1.069,0.308,2.121,0.456,3.139c0.139,1.015,0.272,1.996,0.4,2.926
			c0.129,0.928,0.121,1.825,0.183,2.64c0.19,3.269,0.258,5.43,0.258,5.43l-0.398,0.042c0,0-0.543-2.11-1.267-5.246
			c-0.201-0.781-0.345-1.638-0.633-2.518c-0.267-0.881-0.548-1.81-0.84-2.771c-0.282-0.958-0.573-1.948-0.87-2.954
			c-0.353-0.985-0.711-1.986-1.069-2.988c-0.373-0.993-0.72-1.995-1.167-2.939c-0.457-0.941-0.878-1.872-1.227-2.793
			c-0.159-0.466-0.327-0.921-0.463-1.376c-0.162-0.444-0.315-0.881-0.446-1.315c-0.277-0.861-0.497-1.699-0.697-2.476
			c-0.226-0.762-0.404-1.48-0.557-2.125c-0.145-0.648-0.271-1.213-0.375-1.679c-0.188-0.95-0.287-1.537-0.287-1.537L52.625,31.162z"
			/>
	</g>
	<g>
		<path fill="#FFDFC8" d="M63.475,25.956c0,0,0.47,0.161,1.228,0.594c0.75,0.437,1.777,1.153,2.871,2.182
			c0.516,0.535,1.126,1.091,1.646,1.773c0.56,0.657,1.086,1.396,1.593,2.188c0.273,0.385,0.503,0.803,0.73,1.229
			c0.232,0.423,0.467,0.853,0.692,1.292c0.394,0.899,0.811,1.814,1.139,2.755c0.282,0.956,0.647,1.892,0.83,2.854
			c0.197,0.958,0.429,1.895,0.526,2.818c0.104,0.923,0.183,1.815,0.248,2.658c0.014,0.849-0.011,1.651-0.032,2.387
			c-0.012,0.367-0.023,0.719-0.034,1.054c-0.042,0.334-0.081,0.651-0.118,0.949c-0.07,0.594-0.163,1.11-0.232,1.533
			c-0.145,0.846-0.262,1.323-0.262,1.323s-0.145-0.481-0.335-1.312c-0.094-0.415-0.215-0.917-0.318-1.49
			c-0.097-0.574-0.255-1.214-0.416-1.909c-0.164-0.694-0.332-1.443-0.49-2.232c-0.211-0.781-0.423-1.601-0.621-2.449
			c-0.191-0.85-0.504-1.695-0.726-2.576c-0.229-0.88-0.576-1.733-0.848-2.611c-0.286-0.873-0.661-1.708-0.961-2.563
			c-0.39-0.809-0.69-1.654-1.087-2.415c-0.188-0.388-0.374-0.769-0.555-1.143c-0.186-0.372-0.398-0.716-0.579-1.071
			c-0.361-0.712-0.772-1.338-1.115-1.955c-0.396-0.57-0.719-1.14-1.06-1.602c-0.339-0.472-0.634-0.883-0.877-1.222
			C63.799,26.334,63.475,25.956,63.475,25.956z"/>
	</g>
	<g>
		<path fill="#FFDFC8" d="M74.301,23.235c0,0,0.426,0.128,1.129,0.485c0.335,0.196,0.77,0.413,1.207,0.741
			c0.463,0.301,0.938,0.699,1.451,1.147c0.476,0.478,1.045,0.97,1.508,1.599c0.241,0.307,0.504,0.615,0.747,0.946
			c0.232,0.339,0.45,0.699,0.68,1.061c0.242,0.356,0.436,0.745,0.633,1.138c0.199,0.393,0.407,0.789,0.586,1.201
			c0.288,0.847,0.668,1.687,0.886,2.569c0.189,0.888,0.463,1.763,0.545,2.651c0.063,0.441,0.116,0.879,0.159,1.313
			c0.061,0.433,0.079,0.861,0.077,1.283c0.017,0.843,0.021,1.658-0.015,2.425c-0.067,0.766-0.157,1.488-0.242,2.15
			c-0.045,0.331-0.072,0.648-0.127,0.947c-0.069,0.297-0.136,0.578-0.198,0.843c-0.12,0.528-0.244,0.984-0.343,1.359
			c-0.202,0.749-0.336,1.168-0.336,1.168s-0.033-0.448-0.059-1.219c-0.011-0.385-0.028-0.852-0.024-1.381
			c0.008-0.53-0.008-1.126-0.06-1.775c-0.043-0.648-0.086-1.347-0.104-2.082c-0.064-0.734-0.187-1.5-0.248-2.294
			c-0.031-0.799-0.285-1.59-0.385-2.415c-0.094-0.829-0.378-1.625-0.567-2.441c-0.177-0.822-0.508-1.592-0.748-2.382
			c-0.35-0.74-0.586-1.527-0.968-2.212c-0.18-0.348-0.365-0.686-0.527-1.03c-0.182-0.332-0.384-0.642-0.567-0.954
			c-0.178-0.317-0.376-0.607-0.577-0.883c-0.195-0.279-0.375-0.561-0.566-0.814c-0.403-0.489-0.752-0.968-1.111-1.348
			c-0.343-0.399-0.672-0.715-0.937-0.993C74.65,23.514,74.301,23.235,74.301,23.235z"/>
	</g>
	<g>
		<path fill="#FFDFC8" d="M83.154,23.895c0,0,0.332,0.152,0.864,0.503c0.526,0.354,1.27,0.895,2.04,1.674
			c0.403,0.375,0.796,0.821,1.201,1.306c0.389,0.494,0.809,1.018,1.17,1.605c0.354,0.592,0.756,1.189,1.048,1.857
			c0.341,0.646,0.602,1.339,0.849,2.039c0.273,0.69,0.411,1.423,0.591,2.128c0.183,0.706,0.203,1.432,0.307,2.113
			c0.093,0.685,0.038,1.36,0.049,1.988c0.029,0.63-0.091,1.223-0.156,1.766c-0.081,0.542-0.118,1.039-0.258,1.466
			c-0.11,0.431-0.227,0.8-0.318,1.103c-0.188,0.605-0.313,0.941-0.313,0.941s-0.041-0.367-0.081-0.992
			c-0.017-0.313-0.043-0.69-0.05-1.116c0.01-0.426-0.099-0.91-0.127-1.428c-0.063-0.519-0.074-1.078-0.188-1.661
			c-0.109-0.583-0.168-1.198-0.302-1.822c-0.15-0.621-0.265-1.269-0.45-1.908c-0.209-0.633-0.331-1.301-0.594-1.926
			c-0.215-0.641-0.445-1.275-0.72-1.884c-0.244-0.621-0.53-1.213-0.81-1.788c-0.294-0.566-0.583-1.116-0.869-1.633
			c-0.312-0.5-0.576-1-0.865-1.432C84.061,25.03,83.154,23.895,83.154,23.895z"/>
	</g>
	<g>
		<path fill="#FFDFC8" d="M90.875,25.561c0,0,1.155,0.602,2.527,1.949c0.693,0.663,1.438,1.508,2.134,2.494
			c0.349,0.492,0.684,1.021,1.009,1.568c0.29,0.567,0.61,1.131,0.853,1.735c0.236,0.606,0.499,1.201,0.652,1.828
			c0.195,0.612,0.325,1.23,0.413,1.838c0.047,0.302,0.107,0.596,0.14,0.888c0.012,0.295,0.022,0.583,0.034,0.864
			c0.027,0.559,0.036,1.084-0.04,1.571c-0.047,0.484-0.106,0.924-0.172,1.309c-0.094,0.384-0.197,0.713-0.277,0.981
			c-0.167,0.537-0.279,0.831-0.279,0.831s-0.054-0.324-0.116-0.871c-0.029-0.273-0.069-0.601-0.092-0.971
			c-0.065-0.373-0.149-0.788-0.211-1.235c-0.05-0.449-0.187-0.924-0.294-1.425c-0.057-0.249-0.115-0.504-0.175-0.766
			c-0.091-0.256-0.155-0.521-0.235-0.788c-0.08-0.266-0.146-0.54-0.24-0.81c-0.105-0.267-0.206-0.538-0.299-0.813
			c-0.178-0.554-0.423-1.096-0.647-1.644c-0.209-0.555-0.502-1.078-0.728-1.619c-0.282-0.516-0.507-1.055-0.787-1.543
			c-0.283-0.487-0.521-0.984-0.792-1.43c-0.264-0.454-0.514-0.883-0.744-1.279c-0.485-0.794-0.89-1.457-1.172-1.92
			C91.042,25.83,90.875,25.561,90.875,25.561z"/>
	</g>
	<g>
		<path fill="#FFDFC8" d="M99.53,31.267c0,0,0.72,0.627,1.49,1.769c0.796,1.126,1.617,2.774,2.124,4.551
			c0.133,0.44,0.225,0.897,0.314,1.343c0.092,0.447,0.129,0.902,0.178,1.334c0.03,0.438,0.026,0.868,0.026,1.269
			c-0.026,0.407-0.079,0.791-0.126,1.139c-0.057,0.35-0.156,0.668-0.231,0.943c-0.061,0.277-0.189,0.509-0.272,0.696
			c-0.18,0.375-0.299,0.571-0.299,0.571s-0.044-0.242-0.094-0.635c-0.023-0.389-0.157-0.94-0.252-1.57
			c-0.078-0.318-0.155-0.658-0.226-1.014c-0.089-0.355-0.182-0.729-0.277-1.117c-0.21-0.771-0.423-1.593-0.665-2.416
			c-0.464-1.649-0.949-3.321-1.244-4.629C99.657,32.206,99.53,31.267,99.53,31.267z"/>
	</g>
	<path opacity="0.3" fill="#603813" d="M24.177,86.499c5.24-2.499,32.49-41.666,62.49-44.833c12.5-0.065,12.5-0.065,13.5,2.717
		S87.834,55.847,87.834,55.847l-16.5,10.745L45.167,84C45.167,84,30.653,85.665,24.177,86.499z"/>
	<g>
		<path fill="#FFDFC8" d="M22.227,78.508c0,0,0.062,0.16,0.181,0.402c0.095,0.234,0.293,0.567,0.444,0.941
			c0.105,0.187,0.219,0.382,0.314,0.59c0.086,0.209,0.213,0.418,0.335,0.636c0.12,0.217,0.229,0.442,0.334,0.674
			c0.143,0.219,0.268,0.448,0.394,0.677c0.129,0.229,0.211,0.479,0.361,0.696c0.141,0.22,0.265,0.447,0.383,0.673
			c0.117,0.226,0.222,0.453,0.317,0.675c0.124,0.202,0.229,0.407,0.325,0.601c0.393,0.76,0.562,1.427,0.562,1.427
			s-0.622-0.167-1.415-0.659c-0.2-0.12-0.417-0.253-0.633-0.41c-0.192-0.179-0.393-0.374-0.589-0.587
			c-0.197-0.212-0.398-0.437-0.587-0.677c-0.209-0.225-0.325-0.525-0.486-0.793c-0.141-0.279-0.283-0.559-0.404-0.841
			c-0.097-0.297-0.171-0.598-0.236-0.887c-0.159-0.565-0.122-1.152-0.104-1.617c0.07-0.483,0.161-0.864,0.289-1.134
			C22.122,78.633,22.227,78.508,22.227,78.508z"/>
	</g>
</g>
<g>
	<radialGradient id="SVGID_3_" cx="50.6533" cy="19.3252" r="145.2167" gradientUnits="userSpaceOnUse">
		<stop  offset="0.4839" style="stop-color:#FCF6E6"/>
		<stop  offset="1" style="stop-color:#AD9772"/>
	</radialGradient>
	<path fill="url(#SVGID_3_)" d="M133.26,74.425c4.493,10.934-0.725,23.441-11.657,27.937l-56.089,23.062
		c-10.932,4.496-23.44-0.725-27.936-11.656l-0.679-1.649c-4.493-10.935,0.725-23.44,11.657-27.937l56.09-23.06
		c10.932-4.496,23.44,0.723,27.934,11.654L133.26,74.425z"/>
	<linearGradient id="SVGID_4_" gradientUnits="userSpaceOnUse" x1="15.833" y1="79.1523" x2="139.4854" y2="79.1523">
		<stop  offset="0" style="stop-color:#FBCE73"/>
		<stop  offset="0.4839" style="stop-color:#FF931E"/>
		<stop  offset="1" style="stop-color:#D86D1F"/>
	</linearGradient>
	<path fill="url(#SVGID_4_)" d="M15.833,116.625c0,0,21.817,10.253,39.803-1.602c17.986-11.855,29.643-24.512,33.473-28.997
		c3.83-4.486,30.145-21.629,34.807-20.987c4.663,0.641,7.994,6.888,9.326,8.01c1.332,1.121,6.995-11.695,6.161-16.182
		c-0.832-4.484-11.824-14.738-17.818-16.18c-5.995-1.442-23.315-6.248-35.473,0s-18.152,8.01-23.814,12.656
		c-5.662,4.646-25.147,16.181-26.646,28.836C34.152,94.838,37.149,105.73,15.833,116.625z"/>
	<path opacity="0.5" fill="#603813" d="M123.915,65.039c0,0,3.479-0.321,9.326,8.01c0,0,1.478,0.22,4.143-6.619
		C140.049,59.592,131.6,66.106,123.915,65.039z"/>
	<g>
		<path fill="#FFDFC8" d="M34.208,96.416c0,0,0.34,1.687,0.85,4.217c0.138,0.622,0.286,1.297,0.443,2.01
			c0.173,0.704,0.354,1.446,0.543,2.215c0.41,1.521,0.862,3.133,1.456,4.68c0.289,0.773,0.59,1.544,0.945,2.269
			c0.353,0.727,0.7,1.438,1.104,2.087c0.399,0.65,0.816,1.256,1.244,1.811c0.444,0.537,0.89,1.025,1.332,1.454
			c0.461,0.401,0.889,0.78,1.309,1.064c0.403,0.315,0.807,0.507,1.119,0.718c0.671,0.346,1.054,0.544,1.054,0.544
			s-0.107-0.014-0.31-0.039c-0.2-0.032-0.508-0.049-0.885-0.133c-0.364-0.114-0.848-0.184-1.339-0.416
			c-0.516-0.188-1.066-0.472-1.647-0.827c-0.279-0.194-0.57-0.396-0.872-0.605c-0.279-0.234-0.57-0.481-0.856-0.747
			c-0.557-0.544-1.124-1.148-1.61-1.842c-0.492-0.688-0.984-1.416-1.371-2.209c-0.409-0.783-0.761-1.604-1.089-2.431
			c-0.29-0.84-0.562-1.685-0.779-2.525c-0.238-0.836-0.374-1.68-0.522-2.488c-0.274-1.623-0.384-3.152-0.403-4.46
			C33.865,98.142,34.208,96.416,34.208,96.416z"/>
	</g>
	<g>
		<path fill="#FFDFC8" d="M42.641,69.542c0,0,0.472,3.142,0.875,7.775c0.216,2.318,0.446,5.011,0.641,7.89
			c0.072,1.44,0.146,2.93,0.221,4.443c0.071,1.515,0.226,3.045,0.387,4.574c0.193,1.524,0.412,3.046,0.696,4.528
			c0.285,1.48,0.599,2.935,1.001,4.309c0.371,1.387,0.846,2.684,1.323,3.902c0.227,0.617,0.524,1.176,0.771,1.741
			c0.271,0.552,0.577,1.058,0.847,1.563c0.316,0.473,0.618,0.926,0.906,1.357c0.33,0.398,0.644,0.776,0.938,1.133
			c0.65,0.649,1.234,1.214,1.791,1.582c0.519,0.428,1.005,0.635,1.316,0.813c0.317,0.172,0.487,0.264,0.487,0.264l-0.107,0.279
			c0,0-0.184-0.074-0.526-0.214c-0.341-0.148-0.872-0.313-1.458-0.697c-0.628-0.321-1.296-0.847-2.048-1.478
			c-0.345-0.347-0.713-0.715-1.1-1.104c-0.346-0.427-0.708-0.874-1.087-1.342c-0.332-0.498-0.704-1.006-1.042-1.559
			c-0.312-0.563-0.681-1.13-0.977-1.748c-0.624-1.222-1.194-2.556-1.691-3.961c-0.521-1.4-0.952-2.878-1.358-4.386
			c-0.403-1.51-0.741-3.057-1.053-4.61c-0.304-1.553-0.569-3.113-0.812-4.652c-0.245-1.538-0.44-3.059-0.544-4.535
			c-0.098-1.478-0.133-2.907-0.099-4.264c0.018-1.355,0.082-2.636,0.176-3.815c0.351-4.723,1.227-7.808,1.227-7.808L42.641,69.542z"
			/>
	</g>
	<g>
		<path fill="#FFDFC8" d="M55.887,58.2c0,0,0.324,0.755,0.794,2.078c0.239,0.661,0.502,1.465,0.786,2.388
			c0.271,0.925,0.606,1.966,0.9,3.11c0.311,1.142,0.613,2.382,0.92,3.695c0.318,1.311,0.601,2.701,0.847,4.146
			c0.217,1.452,0.413,2.955,0.604,4.485c0.182,1.532,0.408,3.083,0.615,4.638c0.226,1.552,0.537,3.082,0.798,4.603
			c0.263,1.521,0.521,3.017,0.771,4.465c0.619,2.863,1.161,5.554,1.632,7.864c1.202,4.554,2.004,7.59,2.004,7.59l-0.373,0.145
			c0,0-1.241-2.894-2.996-7.329c-0.754-2.248-1.64-4.877-2.551-7.713c-0.395-1.431-0.803-2.909-1.217-4.412
			c-0.395-1.507-0.843-3.032-1.204-4.573c-0.389-1.534-0.758-3.074-1.162-4.584c-0.413-1.508-0.772-3.002-1.026-4.464
			c-0.247-1.463-0.442-2.885-0.575-4.24c-0.152-1.353-0.195-2.646-0.25-3.836c-0.101-2.38-0.053-4.386,0.056-5.792
			c0.044-0.703,0.102-1.254,0.153-1.633c0.051-0.378,0.078-0.58,0.078-0.58L55.887,58.2z"/>
	</g>
	<g>
		<path fill="#FFDFC8" d="M70.567,48.184c0,0,0.138,0.126,0.396,0.363c0.264,0.23,0.605,0.608,1.041,1.097
			c0.433,0.488,0.965,1.1,1.478,1.83c0.521,0.732,1.111,1.563,1.705,2.499c0.565,0.947,1.142,1.992,1.712,3.119
			c0.293,0.561,0.574,1.145,0.857,1.745c0.278,0.601,0.48,1.246,0.728,1.886c0.448,1.298,0.851,2.66,1.231,4.049
			c0.372,1.391,0.654,2.829,0.989,4.248c0.337,1.416,0.674,2.832,1.005,4.226c0.23,1.413,0.457,2.805,0.676,4.15
			c0.211,1.343,0.414,2.642,0.606,3.873c0.198,1.228,0.213,2.417,0.318,3.496c0.343,4.334,0.512,7.204,0.512,7.204l-0.398,0.041
			c0,0-0.644-2.819-1.52-7.02c-0.245-1.045-0.412-2.194-0.769-3.374c-0.333-1.182-0.684-2.428-1.046-3.717
			c-0.354-1.286-0.719-2.616-1.091-3.966c-0.45-1.325-0.907-2.67-1.365-4.016c-0.499-1.33-0.904-2.688-1.474-3.964
			c-0.576-1.273-1.115-2.53-1.577-3.768c-0.215-0.625-0.426-1.24-0.632-1.842c-0.226-0.593-0.441-1.175-0.633-1.75
			c-0.405-1.142-0.721-2.255-1.034-3.276c-0.354-0.999-0.634-1.941-0.885-2.781c-0.229-0.856-0.471-1.563-0.639-2.179
			c-0.34-1.25-0.533-1.964-0.533-1.964L70.567,48.184z"/>
	</g>
	<g>
		<path fill="#FFDFC8" d="M85.078,41.214c0,0,0.602,0.25,1.571,0.865c0.467,0.323,1.062,0.7,1.666,1.218
			c0.641,0.486,1.29,1.108,2.003,1.795c0.659,0.725,1.44,1.478,2.099,2.397c0.342,0.45,0.712,0.903,1.058,1.388
			c0.337,0.49,0.658,1.006,0.995,1.526c0.353,0.512,0.648,1.066,0.942,1.63c0.296,0.564,0.596,1.135,0.898,1.71
			c0.508,1.191,1.057,2.396,1.487,3.639c0.374,1.26,0.858,2.493,1.109,3.762c0.137,0.631,0.272,1.257,0.406,1.875
			c0.129,0.619,0.274,1.227,0.327,1.84c0.158,1.216,0.232,2.396,0.344,3.508c0.055,1.119,0.016,2.179,0.016,3.152
			c0,0.486,0,0.952,0,1.395c0,0.443-0.037,0.864-0.069,1.258c-0.065,0.788-0.134,1.474-0.2,2.035
			c-0.135,1.125-0.239,1.761-0.239,1.761s-0.145-0.64-0.343-1.749c-0.097-0.555-0.22-1.225-0.329-1.993
			c-0.097-0.769-0.271-1.627-0.459-2.559c-0.188-0.932-0.381-1.938-0.557-3.001c-0.256-1.05-0.531-2.152-0.774-3.295
			c-0.239-1.145-0.642-2.286-0.933-3.473c-0.299-1.186-0.764-2.336-1.127-3.519c-0.389-1.174-0.896-2.3-1.31-3.445
			c-0.534-1.087-0.953-2.218-1.505-3.235c-0.263-0.516-0.531-1.018-0.772-1.525c-0.26-0.495-0.545-0.959-0.807-1.425
			c-0.516-0.938-1.096-1.761-1.582-2.568c-0.554-0.75-1.016-1.49-1.495-2.086c-0.46-0.618-0.889-1.133-1.24-1.57
			C85.535,41.682,85.078,41.214,85.078,41.214z"/>
	</g>
	<g>
		<path fill="#FFDFC8" d="M99.503,37.588c0,0,0.555,0.196,1.465,0.699c0.436,0.275,0.997,0.58,1.563,1.03
			c0.601,0.414,1.211,0.958,1.877,1.562c0.614,0.646,1.349,1.308,1.948,2.146c0.313,0.409,0.651,0.82,0.966,1.262
			c0.298,0.452,0.582,0.928,0.881,1.408c0.314,0.471,0.563,0.986,0.819,1.508c0.257,0.52,0.527,1.044,0.762,1.588
			c0.202,0.556,0.404,1.117,0.608,1.68s0.422,1.125,0.549,1.712c0.253,1.171,0.619,2.323,0.729,3.497
			c0.085,0.582,0.158,1.161,0.222,1.733c0.032,0.286,0.064,0.57,0.096,0.852c0.008,0.283,0.015,0.564,0.022,0.844
			c0.029,1.115,0.056,2.192,0.024,3.209c-0.076,1.016-0.173,1.973-0.265,2.853c-0.05,0.439-0.078,0.862-0.139,1.26
			c-0.082,0.395-0.159,0.77-0.231,1.123c-0.152,0.701-0.286,1.312-0.396,1.814c-0.231,1.001-0.382,1.565-0.382,1.565
			s-0.016-0.592-0.013-1.616c0.008-0.509,0.018-1.127,0.028-1.837c0.009-0.353,0.019-0.728,0.029-1.123
			c-0.015-0.395-0.029-0.811-0.045-1.244c-0.035-0.866-0.07-1.8-0.081-2.785c-0.069-0.983-0.212-2.012-0.287-3.078
			c-0.034-1.073-0.354-2.139-0.487-3.247c-0.123-1.115-0.5-2.188-0.753-3.288c-0.106-0.557-0.302-1.085-0.482-1.617
			c-0.181-0.532-0.359-1.062-0.537-1.587c-0.472-0.998-0.809-2.05-1.33-2.968c-0.248-0.466-0.501-0.919-0.729-1.377
			c-0.252-0.442-0.531-0.855-0.786-1.27c-0.129-0.207-0.257-0.41-0.383-0.611c-0.141-0.189-0.278-0.376-0.415-0.561
			c-0.271-0.369-0.521-0.74-0.786-1.074c-0.556-0.644-1.041-1.27-1.537-1.762c-0.472-0.52-0.928-0.925-1.292-1.281
			c-0.388-0.323-0.679-0.604-0.898-0.765C99.626,37.67,99.503,37.588,99.503,37.588z"/>
	</g>
	<g>
		<path fill="#FFDFC8" d="M111.298,38.467c0,0,0.425,0.224,1.105,0.718c0.34,0.248,0.746,0.558,1.188,0.943
			c0.438,0.389,0.941,0.825,1.429,1.359c0.518,0.509,1.02,1.113,1.543,1.761c0.502,0.662,1.039,1.364,1.51,2.144
			c0.456,0.787,0.979,1.579,1.354,2.465c0.197,0.437,0.42,0.868,0.6,1.319l0.512,1.37c0.358,0.91,0.528,1.878,0.783,2.803
			c0.139,0.46,0.192,0.936,0.253,1.402c0.063,0.466,0.124,0.925,0.185,1.378c0.13,0.902,0.076,1.792,0.106,2.621
			c0.053,0.831-0.085,1.616-0.15,2.335c-0.09,0.718-0.115,1.377-0.28,1.947c-0.127,0.573-0.259,1.066-0.362,1.472
			c-0.213,0.81-0.353,1.263-0.353,1.263s-0.026-0.484-0.042-1.313c-0.005-0.415-0.016-0.916-0.006-1.485
			c0.034-0.568-0.085-1.214-0.105-1.909c-0.062-0.695-0.056-1.446-0.192-2.231c-0.129-0.783-0.188-1.614-0.359-2.455
			c-0.19-0.838-0.334-1.712-0.572-2.577c-0.262-0.859-0.439-1.757-0.794-2.6l-0.445-1.291c-0.156-0.426-0.357-0.833-0.531-1.247
			c-0.341-0.832-0.736-1.624-1.122-2.392c-0.403-0.758-0.81-1.486-1.208-2.171c-0.431-0.663-0.805-1.32-1.208-1.887
			c-0.773-1.16-1.491-2.087-2.002-2.737C111.619,38.823,111.298,38.467,111.298,38.467z"/>
	</g>
	<g>
		<path fill="#FFDFC8" d="M121.584,40.688c0,0,1.462,0.881,3.218,2.715c0.438,0.458,0.916,0.955,1.362,1.529
			c0.473,0.555,0.933,1.171,1.382,1.83c0.451,0.655,0.885,1.36,1.303,2.086c0.366,0.756,0.796,1.497,1.119,2.291
			c0.31,0.799,0.645,1.587,0.864,2.406c0.269,0.802,0.449,1.614,0.575,2.411c0.068,0.397,0.149,0.784,0.202,1.166
			c0.023,0.387,0.046,0.766,0.068,1.134c0.05,0.735,0.083,1.427,0.003,2.068c-0.045,0.64-0.101,1.221-0.165,1.732
			c-0.106,0.509-0.221,0.947-0.309,1.306c-0.184,0.716-0.307,1.113-0.307,1.113s-0.044-0.427-0.09-1.153
			c-0.02-0.363-0.05-0.8-0.061-1.296c-0.065-0.498-0.153-1.055-0.217-1.657c-0.045-0.604-0.207-1.245-0.336-1.922
			c-0.068-0.337-0.139-0.683-0.211-1.037c-0.11-0.347-0.195-0.705-0.297-1.065c-0.103-0.361-0.187-0.731-0.307-1.097
			c-0.137-0.362-0.267-0.729-0.387-1.103c-0.221-0.754-0.563-1.481-0.866-2.22c-0.278-0.75-0.666-1.457-0.988-2.178
			c-0.389-0.688-0.701-1.407-1.088-2.059c-0.388-0.65-0.725-1.306-1.102-1.894c-0.37-0.596-0.721-1.159-1.044-1.679
			c-0.67-1.029-1.245-1.89-1.663-2.485C121.835,41.027,121.584,40.688,121.584,40.688z"/>
	</g>
	<g>
		<path fill="#FFDFC8" d="M133.116,48.289c0,0,0.86,0.888,1.813,2.435c0.237,0.386,0.493,0.807,0.73,1.268
			c0.233,0.463,0.509,0.941,0.721,1.467c0.47,1.032,0.903,2.168,1.231,3.341c0.177,0.582,0.298,1.185,0.424,1.771
			c0.131,0.587,0.169,1.188,0.254,1.755c0.062,0.574,0.06,1.138,0.076,1.664c-0.012,0.533-0.061,1.037-0.103,1.496
			c-0.058,0.461-0.165,0.881-0.245,1.246c-0.061,0.367-0.208,0.676-0.301,0.928c-0.202,0.502-0.333,0.771-0.333,0.771
			s-0.032-0.314-0.06-0.835c-0.016-0.261-0.013-0.568-0.069-0.926c-0.042-0.351-0.089-0.746-0.141-1.178
			c-0.085-0.429-0.166-0.888-0.236-1.372c-0.113-0.484-0.225-0.989-0.327-1.514c-0.133-0.521-0.27-1.06-0.408-1.607
			c-0.162-0.543-0.276-1.104-0.455-1.655c-0.312-1.109-0.638-2.221-0.952-3.269c-0.313-1.047-0.614-2.029-0.851-2.886
			C133.384,49.488,133.116,48.289,133.116,48.289z"/>
	</g>
	<g>
		<path fill="#FFDFC8" d="M26.128,109.896c0,0,0.054,0.208,0.175,0.533c0.09,0.318,0.305,0.77,0.471,1.286
			c0.121,0.256,0.25,0.528,0.364,0.815c0.099,0.291,0.256,0.581,0.409,0.883c0.151,0.301,0.291,0.614,0.429,0.934
			c0.187,0.302,0.355,0.615,0.526,0.929c0.176,0.311,0.292,0.653,0.501,0.943c0.196,0.296,0.374,0.599,0.544,0.897
			c0.17,0.297,0.324,0.595,0.468,0.884c0.181,0.262,0.338,0.523,0.484,0.769c0.59,0.968,0.89,1.773,0.89,1.773
			s-0.754-0.306-1.743-1.006c-0.25-0.172-0.52-0.361-0.792-0.578c-0.24-0.245-0.49-0.512-0.739-0.797s-0.504-0.585-0.748-0.9
			c-0.268-0.299-0.417-0.691-0.626-1.04c-0.186-0.365-0.372-0.729-0.537-1.094c-0.13-0.385-0.235-0.772-0.331-1.146
			c-0.102-0.37-0.18-0.732-0.191-1.094c-0.028-0.355-0.033-0.691-0.037-0.995c0.057-0.627,0.13-1.126,0.265-1.479
			C26.017,110.069,26.128,109.896,26.128,109.896z"/>
	</g>
</g>
</svg>
