<?xml version="1.0" encoding="utf-8"?>
<!-- Generator: Adobe Illustrator 16.0.0, SVG Export Plug-In . SVG Version: 6.00 Build 0)  -->
<!DOCTYPE svg PUBLIC "-//W3C//DTD SVG 1.1//EN" "http://www.w3.org/Graphics/SVG/1.1/DTD/svg11.dtd">
<svg version="1.1" id="Layer_1" xmlns="http://www.w3.org/2000/svg" xmlns:xlink="http://www.w3.org/1999/xlink" x="0px" y="0px"
	 width="150px" height="150px" viewBox="0 0 150 150" enable-background="new 0 0 150 150" xml:space="preserve">
<g>
	<radialGradient id="SVGID_1_" cx="88.1821" cy="9.0313" r="90.8378" gradientUnits="userSpaceOnUse">
		<stop  offset="0.4839" style="stop-color:#FCF6E6"/>
		<stop  offset="1" style="stop-color:#AD9772"/>
	</radialGradient>
	<path fill="url(#SVGID_1_)" d="M141,48.019c0-0.064,0.009-0.128,0.009-0.191S141,47.7,141,47.635V47h-0.375
		c-0.376-10-16.26-19.904-35.815-19.904C85.255,27.096,69.37,37,68.995,47H69v33h-0.005c-0.006,0-0.019-0.098-0.019,0.035
		c0,11.214,16.041,20.123,35.829,20.123s35.829-8.818,35.829-20.032c0-0.134-0.012-0.126-0.019-0.126H141V48.019z"/>
	<g>
		<path fill="#FFFCF5" d="M135.908,46.831c0,0.62,1.637,1.238,1.508,1.842c-0.127,0.596-0.645,1.048-0.892,1.623
			c-0.237,0.554,1.11,2.083,0.769,2.614c-0.323,0.504-0.021,1.856-0.433,2.339c-0.389,0.454-1.861,0.211-2.325,0.644
			c-0.438,0.409-2.802-1.425-3.302-1.037c-0.475,0.367-0.085,1.866-0.613,2.214c-0.503,0.33-0.075,2.329-0.624,2.64
			c-0.525,0.297-2.989-3.074-3.554-2.796c-0.542,0.266,0.543,4.057-0.033,4.304c-0.556,0.239-2.134-1.995-2.72-1.775
			c-0.568,0.214-0.786,1.387-1.38,1.582c-0.578,0.189-1.25,0.079-1.851,0.251c-0.585,0.167-0.713,2.179-1.319,2.329
			c-0.592,0.146-2.074-3.625-2.685-3.496c-0.597,0.126-0.596,3.213-1.21,3.321c-0.601,0.106-1.437-1.224-2.053-1.135
			c-0.605,0.088-1.141,0.615-1.76,0.686c-0.608,0.068-0.994,2.728-1.615,2.779c-0.61,0.052-1.487-3.457-2.108-3.423
			c-0.612,0.034-1.125,2.522-1.748,2.54c-0.614,0.017-1.263-1.103-1.885-1.103c-0.621,0-1.167-2.674-1.779-2.69
			c-0.621-0.017-1.291,2.274-1.902,2.241c-0.621-0.035-1.409,2.087-2.019,2.036c-0.62-0.053-1.29-0.108-1.897-0.178
			c-0.619-0.07-0.938-2.571-1.543-2.659c-0.617-0.089-1.113-0.721-1.715-0.827c-0.614-0.108-1.557,1.552-2.154,1.426
			c-0.611-0.129-1.647,1.397-2.239,1.253c-0.606-0.15-0.316-3.73-0.902-3.897c-0.601-0.171-1.604,1.052-2.182,0.862
			c-0.595-0.195-1.632,0.774-2.2,0.561c-0.587-0.221-1.44,0.02-1.997-0.22c-0.578-0.248,0.058-3.184-0.485-3.451
			c-0.566-0.277-0.232-2.029-0.758-2.327c-0.55-0.311-2.363,1.63-2.866,1.299c-0.528-0.348-0.355-1.586-0.83-1.953
			c-0.5-0.389-2.006,0.457-2.444,0.048c-0.463-0.433-0.997-0.874-1.385-1.329c-0.412-0.481,1.61-2.619,1.288-3.123
			c-0.341-0.531-1.946-0.111-2.183-0.665c-0.246-0.574,0.896-1.323,0.77-1.918c-0.128-0.602-3.174-0.811-3.174-1.43
			c0-0.62,3.694-0.689,3.823-1.293c0.127-0.596-3.518-2.28-3.271-2.855c0.237-0.554,0.089-1.656,0.43-2.188
			c0.324-0.504,2.911,0.531,3.323,0.05c0.389-0.455,1.02-0.576,1.483-1.009c0.438-0.408,0.853-0.728,1.353-1.115
			c0.475-0.367-0.539-2.885-0.011-3.232c0.503-0.33,2.327,1.423,2.876,1.112c0.525-0.298,1.414,0.226,1.979-0.052
			c0.542-0.267,0.298-2.17,0.875-2.418c0.556-0.238,0.726-1.553,1.313-1.773c0.567-0.213,2.427,3.304,3.021,3.108
			c0.578-0.189-0.381-5.415,0.22-5.587c0.585-0.167,1.642,1.139,2.249,0.989c0.592-0.146,1.83,2.567,2.44,2.439
			c0.597-0.126,0.873-1.767,1.486-1.875c0.601-0.106,0.977-1.754,1.593-1.843c0.605-0.088,1.392,1.022,2.01,0.951
			c0.608-0.068,1.374,1.635,1.994,1.583c0.61-0.052,1.214,0.573,1.835,0.539c0.612-0.034,1.048-4.271,1.67-4.289
			c0.614-0.017,1.283,3.703,1.905,3.703c0.621,0,1.173,0.561,1.785,0.577c0.621,0.017,1.225-0.982,1.837-0.949
			c0.621,0.035,1.306-1.227,1.916-1.176c0.62,0.053,1.361-1.019,1.969-0.949c0.619,0.07,1.047,1.642,1.652,1.729
			c0.617,0.089,0.915,1.868,1.517,1.975c0.614,0.108,1.37-0.829,1.967-0.703c0.611,0.129,1.946-2.861,2.538-2.716
			c0.606,0.15,0.954,1.457,1.539,1.624c0.601,0.171,1.047,0.909,1.625,1.099c0.595,0.195,1.55-0.555,2.118-0.341
			c0.587,0.22,1.634-0.493,2.191-0.254c0.577,0.247,0.633,1.817,1.176,2.084c0.566,0.278,1.524-0.038,2.051,0.26
			c0.549,0.312,1.577,0.082,2.081,0.413c0.528,0.347-0.164,2.563,0.311,2.93c0.501,0.389-0.797,2.72-0.36,3.129
			c0.463,0.433,2.156-0.548,2.544-0.093c0.412,0.481-0.694,1.85-0.371,2.354c0.341,0.532,3.326-0.461,3.563,0.093
			c0.246,0.574-0.981,1.653-0.854,2.248C136.996,45.712,135.908,46.212,135.908,46.831z"/>
	</g>
	<g>
		<g>
			<path fill="#141611" d="M108.212,45.071c4.381-7.378-7.178-8.799-11.914-8.521c-8.21,0.481-14.992,8.689-8.371,15.631
				c6.587,6.906,21.557,7.755,29.58,3.454c3.929-2.105,6.689-7.08,6.585-11.473c-0.119-5.055-5.651-8.12-9.574-9.972
				c-1.739-0.821-3.263,1.765-1.515,2.59c2.807,1.325,5.589,2.76,7.378,5.396c2.529,3.727-1.421,8.867-4.39,10.868
				c-5.152,3.471-13.14,2.038-18.756,0.788c-3.158-0.703-6.439-2.578-8.402-5.166c-2.865-3.776,1.854-7.896,5.339-8.802
				c2.295-0.597,14.126-0.82,11.447,3.691C104.632,45.225,107.226,46.733,108.212,45.071L108.212,45.071z"/>
		</g>
	</g>
	<linearGradient id="SVGID_2_" gradientUnits="userSpaceOnUse" x1="86.5581" y1="46.2314" x2="107.8892" y2="46.2314">
		<stop  offset="0" style="stop-color:#FBCE73"/>
		<stop  offset="0.4839" style="stop-color:#FF931E"/>
		<stop  offset="1" style="stop-color:#D86D1F"/>
	</linearGradient>
	<path fill="url(#SVGID_2_)" d="M97.568,54.194c0,0-10.068-4.101-10.907-6.514c-0.838-2.412,3.567-7.236,9.02-8.925
		c5.452-1.689,11.324,1.446,12.164,2.895C108.684,43.098,97.568,54.194,97.568,54.194z"/>
	<path fill="#A0CC17" d="M97.568,54.194c0,0,6.78,5.148,16.008,0c9.228-5.146,3.076-8.366,1.26-7.963
		c-1.818,0.404-8.121-2.181-8.121-2.181L97.568,54.194z"/>
	<g>
		<g>
			<path fill="#6D492F" d="M83.839,78.032c3.869,0,3.869-6,0-6S79.97,78.032,83.839,78.032L83.839,78.032z"/>
		</g>
	</g>
	<g>
		<g>
			<path fill="#6D492F" d="M87.29,94.22c3.869,0,3.869-6,0-6S83.421,94.22,87.29,94.22L87.29,94.22z"/>
		</g>
	</g>
	<g>
		<g>
			<path fill="#6D492F" d="M71.63,84.932c3.869,0,3.869-6,0-6S67.761,84.932,71.63,84.932L71.63,84.932z"/>
		</g>
	</g>
	<g>
		<g>
			<path fill="#6D492F" d="M108.521,94.485c3.869,0,3.869-6,0-6S104.652,94.485,108.521,94.485L108.521,94.485z"/>
		</g>
	</g>
	<g>
		<g>
			<path fill="#6D492F" d="M112.237,101.917c3.869,0,3.869-6,0-6S108.368,101.917,112.237,101.917L112.237,101.917z"/>
		</g>
	</g>
	<g>
		<g>
			<path fill="#6D492F" d="M89.413,89.441c3.869,0,3.869-6,0-6S85.544,89.441,89.413,89.441L89.413,89.441z"/>
		</g>
	</g>
	<g>
		<g>
			<path fill="#6D492F" d="M96.845,76.173c3.869,0,3.869-6,0-6S92.976,76.173,96.845,76.173L96.845,76.173z"/>
		</g>
	</g>
	<g>
		<g>
			<path fill="#6D492F" d="M107.195,90.238c3.869,0,3.869-6,0-6S103.326,90.238,107.195,90.238L107.195,90.238z"/>
		</g>
	</g>
	<g>
		<g>
			<path fill="#6D492F" d="M128.161,76.703c3.869,0,3.869-6,0-6S124.292,76.703,128.161,76.703L128.161,76.703z"/>
		</g>
	</g>
	<g>
		<g>
			<path fill="#6D492F" d="M134,87.054c3.869,0,3.869-6,0-6S130.131,87.054,134,87.054L134,87.054z"/>
		</g>
	</g>
	<g>
		<g>
			<path fill="#6D492F" d="M129.223,88.647c3.869,0,3.869-6,0-6S125.354,88.647,129.223,88.647L129.223,88.647z"/>
		</g>
	</g>
	<g>
		<g>
			<path fill="#6D492F" d="M109.584,77.235c3.869,0,3.869-6,0-6S105.715,77.235,109.584,77.235L109.584,77.235z"/>
		</g>
	</g>
	<g>
		<g>
			<path fill="#6D492F" d="M125.242,67.682c3.869,0,3.869-6,0-6S121.373,67.682,125.242,67.682L125.242,67.682z"/>
		</g>
	</g>
	<g>
		<g>
			<path fill="#6D492F" d="M120.996,92.098c3.869,0,3.869-6,0-6S117.126,92.098,120.996,92.098L120.996,92.098z"/>
		</g>
	</g>
	<g>
		<g>
			<path fill="#6D492F" d="M135.326,75.906c3.869,0,3.869-6,0-6S131.457,75.906,135.326,75.906L135.326,75.906z"/>
		</g>
	</g>
	<g>
		<g>
			<path fill="#6D492F" d="M136.123,63.964c3.869,0,3.869-6,0-6S132.254,63.964,136.123,63.964L136.123,63.964z"/>
		</g>
	</g>
	<g>
		<g>
			<path fill="#6D492F" d="M77.204,63.964c3.869,0,3.869-6,0-6S73.335,63.964,77.204,63.964L77.204,63.964z"/>
		</g>
	</g>
	<g>
		<g>
			<path fill="#6D492F" d="M77.204,79.092c3.869,0,3.869-6,0-6S73.335,79.092,77.204,79.092L77.204,79.092z"/>
		</g>
	</g>
	<g>
		<g>
			<path fill="#6D492F" d="M99.233,98.732c3.869,0,3.869-6,0-6S95.364,98.732,99.233,98.732L99.233,98.732z"/>
		</g>
	</g>
	<g>
		<g>
			<path fill="#6D492F" d="M123.119,81.48c3.869,0,3.869-6,0-6S119.25,81.48,123.119,81.48L123.119,81.48z"/>
		</g>
	</g>
	<g>
		<g>
			<path fill="#6D492F" d="M100.56,83.604c3.869,0,3.869-6,0-6S96.691,83.604,100.56,83.604L100.56,83.604z"/>
		</g>
	</g>
	<g>
		<g>
			<path fill="#6D492F" d="M91.802,68.212c3.869,0,3.869-6,0-6S87.933,68.212,91.802,68.212L91.802,68.212z"/>
		</g>
	</g>
	<g>
		<g>
			<path fill="#EEC38C" d="M90.209,99.262c3.869,0,3.869-6,0-6S86.34,99.262,90.209,99.262L90.209,99.262z"/>
		</g>
	</g>
	<g>
		<g>
			<path fill="#EEC38C" d="M77.47,92.628c3.869,0,3.869-6,0-6S73.601,92.628,77.47,92.628L77.47,92.628z"/>
		</g>
	</g>
	<g>
		<g>
			<path fill="#EEC38C" d="M86.494,80.951c3.869,0,3.869-6,0-6S82.625,80.951,86.494,80.951L86.494,80.951z"/>
		</g>
	</g>
	<g>
		<g>
			<path fill="#EEC38C" d="M97.641,88.115c3.869,0,3.869-6,0-6S93.772,88.115,97.641,88.115L97.641,88.115z"/>
		</g>
	</g>
	<g>
		<g>
			<path fill="#EEC38C" d="M97.905,94.485c3.869,0,3.869-6,0-6S94.036,94.485,97.905,94.485L97.905,94.485z"/>
		</g>
	</g>
	<g>
		<g>
			<path fill="#EEC38C" d="M112.503,81.48c3.869,0,3.869-6,0-6S108.634,81.48,112.503,81.48L112.503,81.48z"/>
		</g>
	</g>
	<g>
		<g>
			<path fill="#EEC38C" d="M102.152,71.396c3.869,0,3.869-6,0-6S98.283,71.396,102.152,71.396L102.152,71.396z"/>
		</g>
	</g>
	<g>
		<g>
			<path fill="#EEC38C" d="M120.199,70.865c3.869,0,3.869-6,0-6S116.33,70.865,120.199,70.865L120.199,70.865z"/>
		</g>
	</g>
	<g>
		<g>
			<path fill="#EEC38C" d="M119.934,97.14c3.869,0,3.869-6,0-6S116.065,97.14,119.934,97.14L119.934,97.14z"/>
		</g>
	</g>
	<g>
		<g>
			<path fill="#EEC38C" d="M110.91,92.098c1.42-0.089,2.893-0.953,3.159-2.469c0.145-0.824,0.134-1.566-0.303-2.313
				c-0.393-0.67-1.043-1.172-1.793-1.378c-1.462-0.402-3.407,0.482-3.69,2.095c-0.006,0.038-0.013,0.075-0.02,0.112
				c0.101-0.238,0.202-0.478,0.302-0.716c-0.016,0.024-0.033,0.05-0.049,0.075c0.358-0.359,0.717-0.718,1.076-1.076
				c-0.021,0.015-0.043,0.03-0.064,0.045c0.239-0.101,0.478-0.201,0.716-0.302c-0.036,0.017-0.074,0.027-0.113,0.031
				c0.266-0.035,0.532-0.071,0.797-0.106c-0.006,0-0.013,0.001-0.02,0.001c-1.631,0.103-3,1.287-3,3
				C107.91,90.655,109.276,92.2,110.91,92.098L110.91,92.098z"/>
		</g>
	</g>
	<g>
		<g>
			<path fill="#EEC38C" d="M125.508,89.975c3.869,0,3.869-6,0-6S121.639,89.975,125.508,89.975L125.508,89.975z"/>
		</g>
	</g>
	<g>
		<g>
			<path fill="#EEC38C" d="M127.897,94.22c3.869,0,3.869-6,0-6S124.028,94.22,127.897,94.22L127.897,94.22z"/>
		</g>
	</g>
	<g>
		<g>
			<path fill="#EEC38C" d="M130.02,82.277c3.869,0,3.869-6,0-6S126.15,82.277,130.02,82.277L130.02,82.277z"/>
		</g>
	</g>
	<g>
		<g>
			<path fill="#EEC38C" d="M138.247,82.542c3.869,0,3.869-6,0-6S134.378,82.542,138.247,82.542L138.247,82.542z"/>
		</g>
	</g>
	<g>
		<g>
			<path fill="#EEC38C" d="M130.549,69.804c3.869,0,3.869-6,0-6S126.68,69.804,130.549,69.804L130.549,69.804z"/>
		</g>
	</g>
	<g>
		<g>
			<path fill="#EEC38C" d="M122.587,85.197c3.869,0,3.869-6,0-6S118.718,85.197,122.587,85.197L122.587,85.197z"/>
		</g>
	</g>
	<g>
		<g>
			<path fill="#EEC38C" d="M137.715,72.722c3.869,0,3.869-6,0-6S133.846,72.722,137.715,72.722L137.715,72.722z"/>
		</g>
	</g>
	<g>
		<g>
			<path fill="#EEC38C" d="M88.351,71.131c3.869,0,3.869-6,0-6S84.482,71.131,88.351,71.131L88.351,71.131z"/>
		</g>
	</g>
	<g>
		<g>
			<path fill="#EEC38C" d="M71.63,72.988c3.869,0,3.869-6,0-6S67.761,72.988,71.63,72.988L71.63,72.988z"/>
		</g>
	</g>
	<g>
		<g>
			<path fill="#EEC38C" d="M84.37,89.179c3.869,0,3.869-6,0-6S80.5,89.179,84.37,89.179L84.37,89.179z"/>
		</g>
	</g>
	<g>
		<g>
			<path fill="#EEC38C" d="M79.329,70.334c3.869,0,3.869-6,0-6S75.459,70.334,79.329,70.334L79.329,70.334z"/>
		</g>
	</g>
	<g>
		<g>
			<path fill="#C77851" d="M86.494,79.623c3.869,0,3.869-6,0-6S82.625,79.623,86.494,79.623L86.494,79.623z"/>
		</g>
	</g>
	<g>
		<g>
			<path fill="#C77851" d="M78.266,88.647c3.869,0,3.869-6,0-6S74.397,88.647,78.266,88.647L78.266,88.647z"/>
		</g>
	</g>
	<g>
		<g>
			<path fill="#C77851" d="M99.498,80.951c3.869,0,3.869-6,0-6S95.628,80.951,99.498,80.951L99.498,80.951z"/>
		</g>
	</g>
	<g>
		<g>
			<path fill="#C77851" d="M91.802,77.765c3.869,0,3.869-6,0-6S87.933,77.765,91.802,77.765L91.802,77.765z"/>
		</g>
	</g>
	<g>
		<g>
			<path fill="#C77851" d="M101.886,93.423c3.869,0,3.869-6,0-6S98.017,93.423,101.886,93.423L101.886,93.423z"/>
		</g>
	</g>
	<g>
		<g>
			<path fill="#C77851" d="M91.802,101.651c3.869,0,3.869-6,0-6S87.933,101.651,91.802,101.651L91.802,101.651z"/>
		</g>
	</g>
	<g>
		<g>
			<path fill="#C77851" d="M122.057,85.197c3.869,0,3.869-6,0-6S118.188,85.197,122.057,85.197L122.057,85.197z"/>
		</g>
	</g>
	<g>
		<g>
			<path fill="#C77851" d="M113.033,90.238c3.869,0,3.869-6,0-6S109.164,90.238,113.033,90.238L113.033,90.238z"/>
		</g>
	</g>
	<g>
		<g>
			<path fill="#C77851" d="M113.299,72.192c3.869,0,3.869-6,0-6S109.43,72.192,113.299,72.192L113.299,72.192z"/>
		</g>
	</g>
	<g>
		<g>
			<path fill="#C77851" d="M129.223,85.728c3.869,0,3.869-6,0-6S125.354,85.728,129.223,85.728L129.223,85.728z"/>
		</g>
	</g>
	<g>
		<g>
			<path fill="#C77851" d="M134,64.761c3.869,0,3.869-6,0-6S130.131,64.761,134,64.761L134,64.761z"/>
		</g>
	</g>
	<g>
		<g>
			<path fill="#C77851" d="M139.043,53.879c3.869,0,3.869-6,0-6S135.174,53.879,139.043,53.879L139.043,53.879z"/>
		</g>
	</g>
	<g>
		<g>
			<path fill="#C77851" d="M86.228,68.477c3.869,0,3.869-6,0-6S82.359,68.477,86.228,68.477L86.228,68.477z"/>
		</g>
	</g>
	<g>
		<g>
			<path fill="#C77851" d="M72.427,62.903c3.869,0,3.869-6,0-6S68.558,62.903,72.427,62.903L72.427,62.903z"/>
		</g>
	</g>
	<g>
		<g>
			<path fill="#C77851" d="M71.101,71.926c3.869,0,3.869-6,0-6S67.231,71.926,71.101,71.926L71.101,71.926z"/>
		</g>
	</g>
	<g>
		<g>
			<path fill="#C77851" d="M92.332,81.216c3.869,0,3.869-6,0-6S88.463,81.216,92.332,81.216L92.332,81.216z"/>
		</g>
	</g>
</g>
<radialGradient id="SVGID_3_" cx="37.8667" cy="36.9336" r="102.9893" gradientUnits="userSpaceOnUse">
	<stop  offset="0.4839" style="stop-color:#FCF6E6"/>
	<stop  offset="1" style="stop-color:#AD9772"/>
</radialGradient>
<path fill="url(#SVGID_3_)" d="M98,80.933c0-0.072,0.011-0.145,0.011-0.217S98,80.571,98,80.498V80h-0.428
	C97.145,68,79.098,57.386,56.88,57.386C34.662,57.386,16.614,68,16.188,80H16v37h0.188c-0.007,0-0.021,0.023-0.021,0.176
	c0,12.74,18.225,22.93,40.708,22.93s40.708-10.119,40.708-22.86c0-0.152-0.013-0.245-0.021-0.245H98V80.933z"/>
<g>
	<path fill="#FFFCF5" d="M92.212,79.584c0,0.62,1.877,1.239,1.763,1.845c-0.113,0.601-0.661,1.056-0.88,1.64
		c-0.214,0.566,1.442,2.143,1.133,2.69c-0.296,0.523,0.192,1.956-0.188,2.462c-0.361,0.479-1.991,0.241-2.424,0.701
		c-0.412,0.438-3.166-1.527-3.64-1.109c-0.451,0.398,0.166,2.017-0.338,2.396c-0.481,0.362,0.218,2.55-0.31,2.894
		c-0.505,0.33-3.467-3.36-4.013-3.049c-0.525,0.301,1.047,4.482,0.486,4.765c-0.54,0.273-2.41-2.186-2.98-1.929
		c-0.553,0.247-0.639,1.56-1.22,1.791c-0.564,0.224-1.255,0.116-1.843,0.325c-0.573,0.202-0.495,2.467-1.09,2.653
		c-0.581,0.183-2.448-4.011-3.049-3.844c-0.587,0.163-0.285,3.644-0.891,3.791c-0.593,0.145-1.555-1.32-2.165-1.191
		c-0.598,0.126-1.085,0.747-1.698,0.858c-0.602,0.109-0.749,3.138-1.364,3.232c-0.604,0.093-1.79-3.827-2.406-3.749
		c-0.607,0.076-0.905,2.928-1.523,2.989c-0.61,0.061-1.353-1.162-1.973-1.116c-0.611,0.045-1.376-2.942-1.997-2.912
		c-0.613,0.03-1.092,2.683-1.713,2.697c-0.614,0.015-1.223,2.49-1.844,2.49c-0.62,0-1.287,0.003-1.9-0.012
		c-0.62-0.015-1.153-2.809-1.765-2.839c-0.62-0.03-1.173-0.685-1.784-0.729c-0.619-0.046-1.405,1.949-2.014,1.889
		c-0.618-0.062-1.494,1.805-2.101,1.729c-0.617-0.077-0.693-4.142-1.298-4.234c-0.615-0.095-1.486,1.445-2.088,1.336
		c-0.613-0.111-1.523,1.166-2.122,1.04c-0.61-0.129-1.411,0.318-2.004,0.174c-0.606-0.146-0.387-3.534-0.975-3.697
		c-0.602-0.167-0.584-2.183-1.165-2.365c-0.596-0.187-2.069,2.438-2.643,2.235c-0.589-0.209-0.704-1.599-1.268-1.823
		c-0.582-0.231-1.856,1.229-2.41,0.98c-0.572-0.256-1.199-0.455-1.74-0.728c-0.561-0.284,0.5-3.461-0.024-3.761
		c-0.547-0.313-1.953,0.981-2.459,0.651c-0.528-0.345-0.09-1.873-0.571-2.236c-0.503-0.379-3.123,1.912-3.573,1.515
		c-0.473-0.419,2.053-3.794,1.641-4.231c-0.433-0.461-4.259,2.051-4.62,1.571c-0.379-0.505-1.477-0.83-1.772-1.354
		c-0.309-0.547,2.146-2.511,1.933-3.077c-0.219-0.582,0.062-1.13-0.05-1.73c-0.113-0.604-0.123-1.005-0.123-1.624
		c0-0.62-2.912-1.57-2.798-2.175c0.113-0.602,2.968-0.521,3.188-1.104c0.213-0.566,1.282-0.5,1.592-1.047
		c0.296-0.524-1.167-2.078-0.787-2.582c0.361-0.479-0.188-1.862,0.246-2.322c0.412-0.438,3.91,2.393,4.383,1.974
		c0.45-0.397-2.862-5.429-2.358-5.808c0.481-0.362,2.101,0.629,2.629,0.284c0.505-0.329,2.74,2.193,3.286,1.881
		c0.524-0.3,0.173-2.122,0.733-2.405c0.54-0.272,0.354-2.155,0.926-2.411c0.553-0.247,1.681,0.756,2.262,0.524
		c0.564-0.225,1.817,1.456,2.406,1.247c0.573-0.203,1.316,0.346,1.912,0.158c0.581-0.182-0.195-4.947,0.406-5.114
		c0.587-0.163,2.253,3.781,2.858,3.634c0.593-0.145,1.261,0.348,1.87,0.219c0.598-0.126,0.919-1.375,1.531-1.486
		c0.602-0.109,0.941-1.672,1.556-1.766c0.604-0.093,1.051-1.461,1.668-1.539c0.607-0.076,1.421,1.553,2.04,1.491
		c0.61-0.061,1.355,1.825,1.975,1.779c0.611-0.045,1.107-1.286,1.728-1.316c0.613-0.03,1.113-3.699,1.734-3.715
		c0.614-0.014,1.289,1.311,1.91,1.311c0.62,0,1.247,0.661,1.859,0.676c0.62,0.015,1.304-1.125,1.916-1.095
		c0.62,0.03,1.362-1.122,1.972-1.077c0.62,0.046,1.146,1.692,1.755,1.752c0.618,0.062,1.366-0.686,1.974-0.609
		c0.617,0.078,1.406-0.65,2.011-0.558c0.615,0.094,0.854,2.677,1.456,2.786c0.613,0.111,0.611,3.144,1.208,3.271
		c0.61,0.129,1.646-1.853,2.239-1.708c0.606,0.147,0.671,2.172,1.259,2.335c0.602,0.166,2.172-3.055,2.753-2.872
		c0.596,0.188,0.648,2.007,1.221,2.21c0.589,0.208,2.474-2.922,3.038-2.697c0.582,0.231-0.153,3.688,0.4,3.936
		c0.572,0.256,1.36,0.016,1.9,0.289c0.561,0.283,1.612-0.305,2.137-0.004c0.547,0.313-0.894,3.762-0.388,4.093
		c0.528,0.345,4.25-3.858,4.731-3.496c0.503,0.38,0.937,1.17,1.387,1.568c0.474,0.42-2.189,4.098-1.777,4.535
		c0.433,0.461,3.556-1.373,3.916-0.894c0.379,0.505,1.809,0.657,2.105,1.181c0.309,0.548,0.356,1.648,0.569,2.215
		c0.219,0.582-4.075,2.435-3.963,3.034C91.838,78.769,92.212,78.965,92.212,79.584z"/>
</g>
<g>
	<g>
		<path fill="#141611" d="M60.569,77.481c4.886-8.097-8.006-9.66-13.155-9.389c-9.195,0.484-17.171,9.711-9.483,17.509
			c7.561,7.67,24.597,8.816,33.605,3.604c4.246-2.457,7.32-7.994,7.023-12.871c-0.338-5.56-6.371-8.878-10.751-10.935
			c-1.74-0.817-3.264,1.769-1.514,2.59c3.249,1.525,6.498,3.21,8.513,6.303c2.727,4.184-1.482,9.975-4.785,12.322
			c-6.097,4.335-16.384,2.75-23.044,0.749c-3.764-1.131-8.058-3.651-9.333-7.583c-1.34-4.128,4.175-7.645,7.541-8.4
			c2.824-0.634,16.005-0.736,12.792,4.588C56.977,77.628,59.571,79.136,60.569,77.481L60.569,77.481z"/>
	</g>
</g>
<linearGradient id="SVGID_4_" gradientUnits="userSpaceOnUse" x1="36.1426" y1="78.9033" x2="60.3789" y2="78.9033">
	<stop  offset="0" style="stop-color:#FBCE73"/>
	<stop  offset="0.4839" style="stop-color:#FF931E"/>
	<stop  offset="1" style="stop-color:#D86D1F"/>
</linearGradient>
<path fill="url(#SVGID_4_)" d="M48.652,87.95c0,0-11.438-4.659-12.393-7.4c-0.952-2.741,4.053-8.222,10.248-10.141
	c6.194-1.919,12.866,1.644,13.82,3.288C61.282,75.342,48.652,87.95,48.652,87.95z"/>
<path fill="#A0CC17" d="M48.652,87.95c0,0,7.704,5.849,18.188,0c10.484-5.848,3.495-9.505,1.431-9.048
	c-2.065,0.459-9.227-2.477-9.227-2.477L48.652,87.95z"/>
<g>
	<g>
		<path fill="#6D492F" d="M33.054,114.625c3.869,0,3.869-6,0-6S29.185,114.625,33.054,114.625L33.054,114.625z"/>
	</g>
</g>
<g>
	<g>
		<path fill="#6D492F" d="M36.975,133.018c3.869,0,3.869-6,0-6S33.106,133.018,36.975,133.018L36.975,133.018z"/>
	</g>
</g>
<g>
	<g>
		<path fill="#6D492F" d="M19.183,122.465c3.869,0,3.869-6,0-6S15.313,122.465,19.183,122.465L19.183,122.465z"/>
	</g>
</g>
<g>
	<g>
		<path fill="#6D492F" d="M61.098,133.318c3.869,0,3.869-6,0-6S57.229,133.318,61.098,133.318L61.098,133.318z"/>
	</g>
</g>
<g>
	<g>
		<path fill="#6D492F" d="M65.319,141.763c3.869,0,3.869-6,0-6S61.45,141.763,65.319,141.763L65.319,141.763z"/>
	</g>
</g>
<g>
	<g>
		<path fill="#6D492F" d="M39.387,127.589c3.869,0,3.869-6,0-6S35.518,127.589,39.387,127.589L39.387,127.589z"/>
	</g>
</g>
<g>
	<g>
		<path fill="#6D492F" d="M47.831,112.513c3.869,0,3.869-6,0-6S43.961,112.513,47.831,112.513L47.831,112.513z"/>
	</g>
</g>
<g>
	<g>
		<path fill="#6D492F" d="M59.59,128.494c3.869,0,3.869-6,0-6S55.721,128.494,59.59,128.494L59.59,128.494z"/>
	</g>
</g>
<g>
	<g>
		<path fill="#6D492F" d="M83.411,113.115c3.869,0,3.869-6,0-6S79.542,113.115,83.411,113.115L83.411,113.115z"/>
	</g>
</g>
<g>
	<g>
		<path fill="#6D492F" d="M90.045,124.876c3.869,0,3.869-6,0-6S86.176,124.876,90.045,124.876L90.045,124.876z"/>
	</g>
</g>
<g>
	<g>
		<path fill="#6D492F" d="M84.618,126.686c3.869,0,3.869-6,0-6S80.749,126.686,84.618,126.686L84.618,126.686z"/>
	</g>
</g>
<g>
	<g>
		<path fill="#6D492F" d="M62.304,113.721c3.869,0,3.869-6,0-6S58.435,113.721,62.304,113.721L62.304,113.721z"/>
	</g>
</g>
<g>
	<g>
		<path fill="#6D492F" d="M80.094,102.865c3.869,0,3.869-6,0-6S76.225,102.865,80.094,102.865L80.094,102.865z"/>
	</g>
</g>
<g>
	<g>
		<path fill="#6D492F" d="M75.27,130.606c3.869,0,3.869-6,0-6S71.401,130.606,75.27,130.606L75.27,130.606z"/>
	</g>
</g>
<g>
	<g>
		<path fill="#6D492F" d="M91.552,112.211c3.869,0,3.869-6,0-6S87.683,112.211,91.552,112.211L91.552,112.211z"/>
	</g>
</g>
<g>
	<g>
		<path fill="#6D492F" d="M92.458,98.642c3.869,0,3.869-6,0-6S88.588,98.642,92.458,98.642L92.458,98.642z"/>
	</g>
</g>
<g>
	<g>
		<path fill="#6D492F" d="M25.515,98.642c3.869,0,3.869-6,0-6S21.646,98.642,25.515,98.642L25.515,98.642z"/>
	</g>
</g>
<g>
	<g>
		<path fill="#6D492F" d="M25.515,115.829c3.869,0,3.869-6,0-6S21.646,115.829,25.515,115.829L25.515,115.829z"/>
	</g>
</g>
<g>
	<g>
		<path fill="#6D492F" d="M50.544,138.145c3.869,0,3.869-6,0-6S46.675,138.145,50.544,138.145L50.544,138.145z"/>
	</g>
</g>
<g>
	<g>
		<path fill="#6D492F" d="M77.683,118.543c3.869,0,3.869-6,0-6S73.814,118.543,77.683,118.543L77.683,118.543z"/>
	</g>
</g>
<g>
	<g>
		<path fill="#6D492F" d="M52.052,120.957c3.869,0,3.869-6,0-6S48.183,120.957,52.052,120.957L52.052,120.957z"/>
	</g>
</g>
<g>
	<g>
		<path fill="#6D492F" d="M42.101,103.468c3.869,0,3.869-6,0-6S38.231,103.468,42.101,103.468L42.101,103.468z"/>
	</g>
</g>
<g>
	<g>
		<path fill="#EEC38C" d="M40.292,138.746c3.869,0,3.869-6,0-6S36.422,138.746,40.292,138.746L40.292,138.746z"/>
	</g>
</g>
<g>
	<g>
		<path fill="#EEC38C" d="M25.817,131.209c3.869,0,3.869-6,0-6S21.948,131.209,25.817,131.209L25.817,131.209z"/>
	</g>
</g>
<g>
	<g>
		<path fill="#EEC38C" d="M36.07,117.941c3.869,0,3.869-6,0-6S32.201,117.941,36.07,117.941L36.07,117.941z"/>
	</g>
</g>
<g>
	<g>
		<path fill="#EEC38C" d="M48.735,126.082c3.869,0,3.869-6,0-6S44.866,126.082,48.735,126.082L48.735,126.082z"/>
	</g>
</g>
<g>
	<g>
		<path fill="#EEC38C" d="M49.036,133.318c3.869,0,3.869-6,0-6S45.167,133.318,49.036,133.318L49.036,133.318z"/>
	</g>
</g>
<g>
	<g>
		<path fill="#EEC38C" d="M65.621,118.543c3.869,0,3.869-6,0-6S61.751,118.543,65.621,118.543L65.621,118.543z"/>
	</g>
</g>
<g>
	<g>
		<path fill="#EEC38C" d="M53.861,107.085c3.869,0,3.869-6,0-6S49.992,107.085,53.861,107.085L53.861,107.085z"/>
	</g>
</g>
<g>
	<g>
		<path fill="#EEC38C" d="M74.365,106.482c3.869,0,3.869-6,0-6S70.496,106.482,74.365,106.482L74.365,106.482z"/>
	</g>
</g>
<g>
	<g>
		<path fill="#EEC38C" d="M74.064,136.335c3.869,0,3.869-6,0-6S70.195,136.335,74.064,136.335L74.064,136.335z"/>
	</g>
</g>
<g>
	<g>
		<path fill="#EEC38C" d="M63.812,130.606c1.415-0.074,2.967-0.979,3.195-2.505c0.125-0.836,0.142-1.553-0.303-2.313
			c-0.393-0.67-1.043-1.172-1.793-1.378c-0.774-0.213-1.619-0.104-2.312,0.302c-0.604,0.354-1.271,1.068-1.379,1.793
			c-0.005,0.038-0.011,0.075-0.017,0.112c0.101-0.239,0.202-0.478,0.303-0.717c0.303-0.303,0.606-0.606,0.91-0.909
			c0.239-0.101,0.478-0.201,0.716-0.303c-0.033,0.013-0.067,0.021-0.102,0.023c0.266-0.036,0.532-0.071,0.797-0.107
			c-0.005,0-0.011,0.001-0.017,0.001c-1.632,0.086-3,1.3-3,3C60.812,129.177,62.177,130.692,63.812,130.606L63.812,130.606z"/>
	</g>
</g>
<g>
	<g>
		<path fill="#EEC38C" d="M80.397,128.194c3.869,0,3.869-6,0-6S76.528,128.194,80.397,128.194L80.397,128.194z"/>
	</g>
</g>
<g>
	<g>
		<path fill="#EEC38C" d="M83.111,133.018c3.869,0,3.869-6,0-6S79.242,133.018,83.111,133.018L83.111,133.018z"/>
	</g>
</g>
<g>
	<g>
		<path fill="#EEC38C" d="M85.522,119.448c3.869,0,3.869-6,0-6S81.653,119.448,85.522,119.448L85.522,119.448z"/>
	</g>
</g>
<g>
	<g>
		<path fill="#EEC38C" d="M94.871,119.75c3.869,0,3.869-6,0-6S91.002,119.75,94.871,119.75L94.871,119.75z"/>
	</g>
</g>
<g>
	<g>
		<path fill="#EEC38C" d="M86.125,105.276c3.869,0,3.869-6,0-6S82.255,105.276,86.125,105.276L86.125,105.276z"/>
	</g>
</g>
<g>
	<g>
		<path fill="#EEC38C" d="M77.079,122.766c3.869,0,3.869-6,0-6S73.209,122.766,77.079,122.766L77.079,122.766z"/>
	</g>
</g>
<g>
	<g>
		<path fill="#EEC38C" d="M94.267,108.592c3.869,0,3.869-6,0-6S90.397,108.592,94.267,108.592L94.267,108.592z"/>
	</g>
</g>
<g>
	<g>
		<path fill="#EEC38C" d="M38.18,106.784c3.869,0,3.869-6,0-6S34.311,106.784,38.18,106.784L38.18,106.784z"/>
	</g>
</g>
<g>
	<g>
		<path fill="#EEC38C" d="M19.183,108.895c3.869,0,3.869-6,0-6S15.313,108.895,19.183,108.895L19.183,108.895z"/>
	</g>
</g>
<g>
	<g>
		<path fill="#EEC38C" d="M33.657,127.29c3.869,0,3.869-6,0-6S29.788,127.29,33.657,127.29L33.657,127.29z"/>
	</g>
</g>
<g>
	<g>
		<path fill="#EEC38C" d="M27.929,105.879c3.869,0,3.869-6,0-6S24.06,105.879,27.929,105.879L27.929,105.879z"/>
	</g>
</g>
<g>
	<g>
		<path fill="#C77851" d="M36.07,116.434c3.869,0,3.869-6,0-6S32.201,116.434,36.07,116.434L36.07,116.434z"/>
	</g>
</g>
<g>
	<g>
		<path fill="#C77851" d="M26.722,126.686c3.869,0,3.869-6,0-6S22.853,126.686,26.722,126.686L26.722,126.686z"/>
	</g>
</g>
<g>
	<g>
		<path fill="#C77851" d="M50.845,117.941c3.869,0,3.869-6,0-6S46.976,117.941,50.845,117.941L50.845,117.941z"/>
	</g>
</g>
<g>
	<g>
		<path fill="#C77851" d="M42.101,114.322c3.869,0,3.869-6,0-6S38.231,114.322,42.101,114.322L42.101,114.322z"/>
	</g>
</g>
<g>
	<g>
		<path fill="#C77851" d="M53.558,132.112c3.869,0,3.869-6,0-6S49.689,132.112,53.558,132.112L53.558,132.112z"/>
	</g>
</g>
<g>
	<g>
		<path fill="#C77851" d="M42.101,141.461c3.869,0,3.869-6,0-6S38.231,141.461,42.101,141.461L42.101,141.461z"/>
	</g>
</g>
<g>
	<g>
		<path fill="#C77851" d="M76.476,122.766c3.869,0,3.869-6,0-6S72.607,122.766,76.476,122.766L76.476,122.766z"/>
	</g>
</g>
<g>
	<g>
		<path fill="#C77851" d="M66.223,128.494c3.869,0,3.869-6,0-6S62.354,128.494,66.223,128.494L66.223,128.494z"/>
	</g>
</g>
<g>
	<g>
		<path fill="#C77851" d="M66.526,107.99c3.869,0,3.869-6,0-6S62.657,107.99,66.526,107.99L66.526,107.99z"/>
	</g>
</g>
<g>
	<g>
		<path fill="#C77851" d="M84.618,123.368c3.869,0,3.869-6,0-6S80.749,123.368,84.618,123.368L84.618,123.368z"/>
	</g>
</g>
<g>
	<g>
		<path fill="#C77851" d="M90.045,99.547c3.869,0,3.869-6,0-6S86.176,99.547,90.045,99.547L90.045,99.547z"/>
	</g>
</g>
<g>
	<g>
		<path fill="#C77851" d="M95.775,87.184c3.869,0,3.869-6,0-6S91.906,87.184,95.775,87.184L95.775,87.184z"/>
	</g>
</g>
<g>
	<g>
		<path fill="#C77851" d="M35.768,103.769c3.869,0,3.869-6,0-6S31.899,103.769,35.768,103.769L35.768,103.769z"/>
	</g>
</g>
<g>
	<g>
		<path fill="#C77851" d="M20.088,97.437c3.869,0,3.869-6,0-6S16.219,97.437,20.088,97.437L20.088,97.437z"/>
	</g>
</g>
<g>
	<g>
		<path fill="#C77851" d="M18.581,107.688c3.869,0,3.869-6,0-6S14.711,107.688,18.581,107.688L18.581,107.688z"/>
	</g>
</g>
<g>
	<g>
		<path fill="#C77851" d="M42.703,118.243c3.869,0,3.869-6,0-6S38.834,118.243,42.703,118.243L42.703,118.243z"/>
	</g>
</g>
</svg>
